<?xml version="1.0" encoding="us-ascii" standalone="no"?><svg xmlns="http://www.w3.org/2000/svg" xmlns:xlink="http://www.w3.org/1999/xlink" contentStyleType="text/css" height="479px" preserveAspectRatio="none" style="width:872px;height:479px;background:#FFFFFF;" version="1.1" viewBox="0 0 872 479" width="872px" zoomAndPan="magnify"><defs/><g><!--cluster modelo--><g id="cluster_modelo"><path d="M8.5,205 L63.5,205 A3.75,3.75 0 0 1 66,207.5 L73,227.4883 L488.5,227.4883 A2.5,2.5 0 0 1 491,229.9883 L491,469.5 A2.5,2.5 0 0 1 488.5,472 L8.5,472 A2.5,2.5 0 0 1 6,469.5 L6,207.5 A2.5,2.5 0 0 1 8.5,205 " fill="none" style="stroke:#000000;stroke-width:1.5;"/><line style="stroke:#000000;stroke-width:1.5;" x1="6" x2="73" y1="227.4883" y2="227.4883"/><text fill="#000000" font-family="sans-serif" font-size="14" font-weight="bold" lengthAdjust="spacing" textLength="54" x="10" y="220.5352">modelo</text></g><!--cluster controlador--><g id="cluster_controlador"><path d="M266.5,98 L350.5,98 A3.75,3.75 0 0 1 353,100.5 L360,120.4883 L441.5,120.4883 A2.5,2.5 0 0 1 444,122.9883 L444,178.5 A2.5,2.5 0 0 1 441.5,181 L266.5,181 A2.5,2.5 0 0 1 264,178.5 L264,100.5 A2.5,2.5 0 0 1 266.5,98 " fill="none" style="stroke:#000000;stroke-width:1.5;"/><line style="stroke:#000000;stroke-width:1.5;" x1="264" x2="360" y1="120.4883" y2="120.4883"/><text fill="#000000" font-family="sans-serif" font-size="14" font-weight="bold" lengthAdjust="spacing" textLength="83" x="268" y="113.5352">controlador</text></g><!--cluster util--><g id="cluster_util"><path d="M470.5,98 L496.5,98 A3.75,3.75 0 0 1 499,100.5 L506,120.4883 L862.5,120.4883 A2.5,2.5 0 0 1 865,122.9883 L865,178.5 A2.5,2.5 0 0 1 862.5,181 L470.5,181 A2.5,2.5 0 0 1 468,178.5 L468,100.5 A2.5,2.5 0 0 1 470.5,98 " fill="none" style="stroke:#000000;stroke-width:1.5;"/><line style="stroke:#000000;stroke-width:1.5;" x1="468" x2="506" y1="120.4883" y2="120.4883"/><text fill="#000000" font-family="sans-serif" font-size="14" font-weight="bold" lengthAdjust="spacing" textLength="25" x="472" y="113.5352">util</text></g><!--cluster vista--><g id="cluster_vista"><path d="M62.5,6 L98.5,6 A3.75,3.75 0 0 1 101,8.5 L108,28.4883 L237.5,28.4883 A2.5,2.5 0 0 1 240,30.9883 L240,178.5 A2.5,2.5 0 0 1 237.5,181 L62.5,181 A2.5,2.5 0 0 1 60,178.5 L60,8.5 A2.5,2.5 0 0 1 62.5,6 " fill="none" style="stroke:#000000;stroke-width:1.5;"/><line style="stroke:#000000;stroke-width:1.5;" x1="60" x2="108" y1="28.4883" y2="28.4883"/><text fill="#000000" font-family="sans-serif" font-size="14" font-weight="bold" lengthAdjust="spacing" textLength="35" x="64" y="21.5352">vista</text></g><!--class Celda--><g id="elem_Celda"><rect codeLine="3" fill="#F1F1F1" height="32" id="Celda" rx="2.5" ry="2.5" style="stroke:#181818;stroke-width:0.5;" width="71" x="220.5" y="332"/><ellipse cx="235.5" cy="348" fill="#A9DCDF" rx="11" ry="11" style="stroke:#181818;stroke-width:1.0;"/><path d="M235.3633,343.3481 L234.2095,348.4199 L236.5254,348.4199 Z M233.8691,341.1069 L236.8657,341.1069 L240.2109,353.5 L237.7622,353.5 L236.9985,350.437 L233.7197,350.437 L232.9727,353.5 L230.5239,353.5 Z " fill="#000000"/><text fill="#000000" font-family="sans-serif" font-size="14" font-style="italic" lengthAdjust="spacing" textLength="39" x="249.5" y="353.291">Celda</text></g><!--class CeldaTexto--><g id="elem_CeldaTexto"><rect codeLine="6" fill="#F1F1F1" height="32" id="CeldaTexto" rx="2.5" ry="2.5" style="stroke:#181818;stroke-width:0.5;" width="111" x="22.5" y="424"/><ellipse cx="37.5" cy="440" fill="#ADD1B2" rx="11" ry="11" style="stroke:#181818;stroke-width:1.0;"/><path d="M39.9731,446.1431 Q39.3921,446.4419 38.7529,446.5913 Q38.1138,446.7407 37.4082,446.7407 Q34.9014,446.7407 33.5815,445.0889 Q32.2617,443.437 32.2617,440.3159 Q32.2617,437.1865 33.5815,435.5347 Q34.9014,433.8828 37.4082,433.8828 Q38.1138,433.8828 38.7612,434.0322 Q39.4087,434.1816 39.9731,434.4805 L39.9731,437.2031 Q39.3423,436.6221 38.7488,436.3523 Q38.1553,436.0825 37.5244,436.0825 Q36.1797,436.0825 35.4949,437.1492 Q34.8101,438.2158 34.8101,440.3159 Q34.8101,442.4077 35.4949,443.4744 Q36.1797,444.541 37.5244,444.541 Q38.1553,444.541 38.7488,444.2712 Q39.3423,444.0015 39.9731,443.4204 Z " fill="#000000"/><text fill="#000000" font-family="sans-serif" font-size="14" lengthAdjust="spacing" textLength="79" x="51.5" y="445.291">CeldaTexto</text></g><!--class CeldaFormula--><g id="elem_CeldaFormula"><rect codeLine="9" fill="#F1F1F1" height="32" id="CeldaFormula" rx="2.5" ry="2.5" style="stroke:#181818;stroke-width:0.5;" width="128" x="169" y="424"/><ellipse cx="184" cy="440" fill="#ADD1B2" rx="11" ry="11" style="stroke:#181818;stroke-width:1.0;"/><path d="M186.4731,446.1431 Q185.8921,446.4419 185.2529,446.5913 Q184.6138,446.7407 183.9082,446.7407 Q181.4014,446.7407 180.0815,445.0889 Q178.7617,443.437 178.7617,440.3159 Q178.7617,437.1865 180.0815,435.5347 Q181.4014,433.8828 183.9082,433.8828 Q184.6138,433.8828 185.2612,434.0322 Q185.9087,434.1816 186.4731,434.4805 L186.4731,437.2031 Q185.8423,436.6221 185.2488,436.3523 Q184.6553,436.0825 184.0244,436.0825 Q182.6797,436.0825 181.9949,437.1492 Q181.3101,438.2158 181.3101,440.3159 Q181.3101,442.4077 181.9949,443.4744 Q182.6797,444.541 184.0244,444.541 Q184.6553,444.541 185.2488,444.2712 Q185.8423,444.0015 186.4731,443.4204 Z " fill="#000000"/><text fill="#000000" font-family="sans-serif" font-size="14" lengthAdjust="spacing" textLength="96" x="198" y="445.291">CeldaFormula</text></g><!--class CeldaReferencia--><g id="elem_CeldaReferencia"><rect codeLine="12" fill="#F1F1F1" height="32" id="CeldaReferencia" rx="2.5" ry="2.5" style="stroke:#181818;stroke-width:0.5;" width="143" x="332.5" y="424"/><ellipse cx="347.5" cy="440" fill="#ADD1B2" rx="11" ry="11" style="stroke:#181818;stroke-width:1.0;"/><path d="M349.9731,446.1431 Q349.3921,446.4419 348.7529,446.5913 Q348.1138,446.7407 347.4082,446.7407 Q344.9014,446.7407 343.5815,445.0889 Q342.2617,443.437 342.2617,440.3159 Q342.2617,437.1865 343.5815,435.5347 Q344.9014,433.8828 347.4082,433.8828 Q348.1138,433.8828 348.7612,434.0322 Q349.4087,434.1816 349.9731,434.4805 L349.9731,437.2031 Q349.3423,436.6221 348.7488,436.3523 Q348.1553,436.0825 347.5244,436.0825 Q346.1797,436.0825 345.4949,437.1492 Q344.8101,438.2158 344.8101,440.3159 Q344.8101,442.4077 345.4949,443.4744 Q346.1797,444.541 347.5244,444.541 Q348.1553,444.541 348.7488,444.2712 Q349.3423,444.0015 349.9731,443.4204 Z " fill="#000000"/><text fill="#000000" font-family="sans-serif" font-size="14" lengthAdjust="spacing" textLength="111" x="361.5" y="445.291">CeldaReferencia</text></g><!--class Matriz--><g id="elem_Matriz"><rect codeLine="15" fill="#F1F1F1" height="32" id="Matriz" rx="2.5" ry="2.5" style="stroke:#181818;stroke-width:0.5;" width="75" x="253.5" y="240"/><ellipse cx="268.5" cy="256" fill="#ADD1B2" rx="11" ry="11" style="stroke:#181818;stroke-width:1.0;"/><path d="M270.9731,262.1431 Q270.3921,262.4419 269.7529,262.5913 Q269.1138,262.7407 268.4082,262.7407 Q265.9014,262.7407 264.5815,261.0889 Q263.2617,259.437 263.2617,256.3159 Q263.2617,253.1865 264.5815,251.5347 Q265.9014,249.8828 268.4082,249.8828 Q269.1138,249.8828 269.7612,250.0322 Q270.4087,250.1816 270.9731,250.4805 L270.9731,253.2031 Q270.3423,252.6221 269.7488,252.3523 Q269.1553,252.0825 268.5244,252.0825 Q267.1797,252.0825 266.4949,253.1492 Q265.8101,254.2158 265.8101,256.3159 Q265.8101,258.4077 266.4949,259.4744 Q267.1797,260.541 268.5244,260.541 Q269.1553,260.541 269.7488,260.2712 Q270.3423,260.0015 270.9731,259.4204 Z " fill="#000000"/><text fill="#000000" font-family="sans-serif" font-size="14" lengthAdjust="spacing" textLength="43" x="282.5" y="261.291">Matriz</text></g><!--class Posicion--><g id="elem_Posicion"><rect codeLine="18" fill="#F1F1F1" height="32" id="Posicion" rx="2.5" ry="2.5" style="stroke:#181818;stroke-width:0.5;" width="89" x="363.5" y="240"/><ellipse cx="378.5" cy="256" fill="#ADD1B2" rx="11" ry="11" style="stroke:#181818;stroke-width:1.0;"/><path d="M380.9731,262.1431 Q380.3921,262.4419 379.7529,262.5913 Q379.1138,262.7407 378.4082,262.7407 Q375.9014,262.7407 374.5815,261.0889 Q373.2617,259.437 373.2617,256.3159 Q373.2617,253.1865 374.5815,251.5347 Q375.9014,249.8828 378.4082,249.8828 Q379.1138,249.8828 379.7612,250.0322 Q380.4087,250.1816 380.9731,250.4805 L380.9731,253.2031 Q380.3423,252.6221 379.7488,252.3523 Q379.1553,252.0825 378.5244,252.0825 Q377.1797,252.0825 376.4949,253.1492 Q375.8101,254.2158 375.8101,256.3159 Q375.8101,258.4077 376.4949,259.4744 Q377.1797,260.541 378.5244,260.541 Q379.1553,260.541 379.7488,260.2712 Q380.3423,260.0015 380.9731,259.4204 Z " fill="#000000"/><text fill="#000000" font-family="sans-serif" font-size="14" lengthAdjust="spacing" textLength="57" x="392.5" y="261.291">Posicion</text></g><!--class ControladorHoja--><g id="elem_ControladorHoja"><rect codeLine="24" fill="#F1F1F1" height="32" id="ControladorHoja" rx="2.5" ry="2.5" style="stroke:#181818;stroke-width:0.5;" width="147" x="280.5" y="133"/><ellipse cx="295.5" cy="149" fill="#ADD1B2" rx="11" ry="11" style="stroke:#181818;stroke-width:1.0;"/><path d="M297.9731,155.1431 Q297.3921,155.4419 296.7529,155.5913 Q296.1138,155.7407 295.4082,155.7407 Q292.9014,155.7407 291.5815,154.0889 Q290.2617,152.437 290.2617,149.3159 Q290.2617,146.1865 291.5815,144.5347 Q292.9014,142.8828 295.4082,142.8828 Q296.1138,142.8828 296.7612,143.0322 Q297.4087,143.1816 297.9731,143.4805 L297.9731,146.2031 Q297.3423,145.6221 296.7488,145.3523 Q296.1553,145.0825 295.5244,145.0825 Q294.1797,145.0825 293.4949,146.1492 Q292.8101,147.2158 292.8101,149.3159 Q292.8101,151.4077 293.4949,152.4744 Q294.1797,153.541 295.5244,153.541 Q296.1553,153.541 296.7488,153.2712 Q297.3423,153.0015 297.9731,152.4204 Z " fill="#000000"/><text fill="#000000" font-family="sans-serif" font-size="14" lengthAdjust="spacing" textLength="115" x="309.5" y="154.291">ControladorHoja</text></g><!--class Teclado--><g id="elem_Teclado"><rect codeLine="30" fill="#F1F1F1" height="32" id="Teclado" rx="2.5" ry="2.5" style="stroke:#181818;stroke-width:0.5;" width="86" x="484" y="133"/><ellipse cx="499" cy="149" fill="#ADD1B2" rx="11" ry="11" style="stroke:#181818;stroke-width:1.0;"/><path d="M501.4731,155.1431 Q500.8921,155.4419 500.2529,155.5913 Q499.6138,155.7407 498.9082,155.7407 Q496.4014,155.7407 495.0815,154.0889 Q493.7617,152.437 493.7617,149.3159 Q493.7617,146.1865 495.0815,144.5347 Q496.4014,142.8828 498.9082,142.8828 Q499.6138,142.8828 500.2612,143.0322 Q500.9087,143.1816 501.4731,143.4805 L501.4731,146.2031 Q500.8423,145.6221 500.2488,145.3523 Q499.6553,145.0825 499.0244,145.0825 Q497.6797,145.0825 496.9949,146.1492 Q496.3101,147.2158 496.3101,149.3159 Q496.3101,151.4077 496.9949,152.4744 Q497.6797,153.541 499.0244,153.541 Q499.6553,153.541 500.2488,153.2712 Q500.8423,153.0015 501.4731,152.4204 Z " fill="#000000"/><text fill="#000000" font-family="sans-serif" font-size="14" lengthAdjust="spacing" textLength="54" x="513" y="154.291">Teclado</text></g><!--class Constantes--><g id="elem_Constantes"><rect codeLine="33" fill="#F1F1F1" height="32" id="Constantes" rx="2.5" ry="2.5" style="stroke:#181818;stroke-width:0.5;" width="109" x="604.5" y="133"/><ellipse cx="619.5" cy="149" fill="#ADD1B2" rx="11" ry="11" style="stroke:#181818;stroke-width:1.0;"/><path d="M621.9731,155.1431 Q621.3921,155.4419 620.7529,155.5913 Q620.1138,155.7407 619.4082,155.7407 Q616.9014,155.7407 615.5815,154.0889 Q614.2617,152.437 614.2617,149.3159 Q614.2617,146.1865 615.5815,144.5347 Q616.9014,142.8828 619.4082,142.8828 Q620.1138,142.8828 620.7612,143.0322 Q621.4087,143.1816 621.9731,143.4805 L621.9731,146.2031 Q621.3423,145.6221 620.7488,145.3523 Q620.1553,145.0825 619.5244,145.0825 Q618.1797,145.0825 617.4949,146.1492 Q616.8101,147.2158 616.8101,149.3159 Q616.8101,151.4077 617.4949,152.4744 Q618.1797,153.541 619.5244,153.541 Q620.1553,153.541 620.7488,153.2712 Q621.3423,153.0015 621.9731,152.4204 Z " fill="#000000"/><text fill="#000000" font-family="sans-serif" font-size="14" lengthAdjust="spacing" textLength="77" x="633.5" y="154.291">Constantes</text></g><!--class Utilidades--><g id="elem_Utilidades"><rect codeLine="36" fill="#F1F1F1" height="32" id="Utilidades" rx="2.5" ry="2.5" style="stroke:#181818;stroke-width:0.5;" width="100" x="749" y="133"/><ellipse cx="764" cy="149" fill="#ADD1B2" rx="11" ry="11" style="stroke:#181818;stroke-width:1.0;"/><path d="M766.4731,155.1431 Q765.8921,155.4419 765.2529,155.5913 Q764.6138,155.7407 763.9082,155.7407 Q761.4014,155.7407 760.0815,154.0889 Q758.7617,152.437 758.7617,149.3159 Q758.7617,146.1865 760.0815,144.5347 Q761.4014,142.8828 763.9082,142.8828 Q764.6138,142.8828 765.2612,143.0322 Q765.9087,143.1816 766.4731,143.4805 L766.4731,146.2031 Q765.8423,145.6221 765.2488,145.3523 Q764.6553,145.0825 764.0244,145.0825 Q762.6797,145.0825 761.9949,146.1492 Q761.3101,147.2158 761.3101,149.3159 Q761.3101,151.4077 761.9949,152.4744 Q762.6797,153.541 764.0244,153.541 Q764.6553,153.541 765.2488,153.2712 Q765.8423,153.0015 766.4731,152.4204 Z " fill="#000000"/><text fill="#000000" font-family="sans-serif" font-size="14" lengthAdjust="spacing" textLength="68" x="778" y="154.291">Utilidades</text></g><!--class InterfazUsuario--><g id="elem_InterfazUsuario"><rect codeLine="42" fill="#F1F1F1" height="32" id="InterfazUsuario" rx="2.5" ry="2.5" style="stroke:#181818;stroke-width:0.5;" width="138" x="86" y="41"/><ellipse cx="101" cy="57" fill="#ADD1B2" rx="11" ry="11" style="stroke:#181818;stroke-width:1.0;"/><path d="M103.4731,63.1431 Q102.8921,63.4419 102.2529,63.5913 Q101.6138,63.7407 100.9082,63.7407 Q98.4014,63.7407 97.0815,62.0889 Q95.7617,60.437 95.7617,57.3159 Q95.7617,54.1865 97.0815,52.5347 Q98.4014,50.8828 100.9082,50.8828 Q101.6138,50.8828 102.2612,51.0322 Q102.9087,51.1816 103.4731,51.4805 L103.4731,54.2031 Q102.8423,53.6221 102.2488,53.3523 Q101.6553,53.0825 101.0244,53.0825 Q99.6797,53.0825 98.9949,54.1492 Q98.3101,55.2158 98.3101,57.3159 Q98.3101,59.4077 98.9949,60.4744 Q99.6797,61.541 101.0244,61.541 Q101.6553,61.541 102.2488,61.2712 Q102.8423,61.0015 103.4731,60.4204 Z " fill="#000000"/><text fill="#000000" font-family="sans-serif" font-size="14" lengthAdjust="spacing" textLength="106" x="115" y="62.291">InterfazUsuario</text></g><!--class VisualizadorHoja--><g id="elem_VisualizadorHoja"><rect codeLine="45" fill="#F1F1F1" height="32" id="VisualizadorHoja" rx="2.5" ry="2.5" style="stroke:#181818;stroke-width:0.5;" width="148" x="76" y="133"/><ellipse cx="91" cy="149" fill="#ADD1B2" rx="11" ry="11" style="stroke:#181818;stroke-width:1.0;"/><path d="M93.4731,155.1431 Q92.8921,155.4419 92.2529,155.5913 Q91.6138,155.7407 90.9082,155.7407 Q88.4014,155.7407 87.0815,154.0889 Q85.7617,152.437 85.7617,149.3159 Q85.7617,146.1865 87.0815,144.5347 Q88.4014,142.8828 90.9082,142.8828 Q91.6138,142.8828 92.2612,143.0322 Q92.9087,143.1816 93.4731,143.4805 L93.4731,146.2031 Q92.8423,145.6221 92.2488,145.3523 Q91.6553,145.0825 91.0244,145.0825 Q89.6797,145.0825 88.9949,146.1492 Q88.3101,147.2158 88.3101,149.3159 Q88.3101,151.4077 88.9949,152.4744 Q89.6797,153.541 91.0244,153.541 Q91.6553,153.541 92.2488,153.2712 Q92.8423,153.0015 93.4731,152.4204 Z " fill="#000000"/><text fill="#000000" font-family="sans-serif" font-size="14" lengthAdjust="spacing" textLength="116" x="105" y="154.291">VisualizadorHoja</text></g><!--reverse link Celda to CeldaTexto--><g id="link_Celda_CeldaTexto"><path codeLine="49" d="M209.3378,372.5944 C176.6378,389.1344 141.16,407.06 108.5,423.58 " fill="none" id="Celda-backto-CeldaTexto" style="stroke:#181818;stroke-width:1.0;"/><polygon fill="none" points="225.4,364.47,206.6297,367.2404,212.046,377.9485,225.4,364.47" style="stroke:#181818;stroke-width:1.0;"/></g><!--reverse link Celda to CeldaFormula--><g id="link_Celda_CeldaFormula"><path codeLine="50" d="M247.6427,381.7094 C243.4127,398.2594 241.16,407.08 236.92,423.66 " fill="none" id="Celda-backto-CeldaFormula" style="stroke:#181818;stroke-width:1.0;"/><polygon fill="none" points="252.1,364.27,241.8296,380.2236,253.4558,383.1952,252.1,364.27" style="stroke:#181818;stroke-width:1.0;"/></g><!--reverse link Celda to CeldaReferencia--><g id="link_Celda_CeldaReferencia"><path codeLine="51" d="M296.8194,373.8228 C324.0994,390.4128 351.74,407.22 378.89,423.73 " fill="none" id="Celda-backto-CeldaReferencia" style="stroke:#181818;stroke-width:1.0;"/><polygon fill="none" points="281.44,364.47,293.7018,378.9492,299.937,368.6963,281.44,364.47" style="stroke:#181818;stroke-width:1.0;"/></g><!--reverse link Matriz to Celda--><g id="link_Matriz_Celda"><path codeLine="52" d="M280.7142,283.4555 C274.2842,300.0055 268.41,315.08 261.97,331.66 " fill="none" id="Matriz-backto-Celda" style="stroke:#181818;stroke-width:1.0;"/><polygon fill="none" points="285.06,272.27,279.1586,276.4141,280.7142,283.4555,286.6156,279.3113,285.06,272.27" style="stroke:#181818;stroke-width:1.0;"/></g><!--reverse link ControladorHoja to Matriz--><g id="link_ControladorHoja_Matriz"><path codeLine="53" d="M338.5268,175.7804 C326.5468,195.7504 312.03,219.95 300.13,239.78 " fill="none" id="ControladorHoja-backto-Matriz" style="stroke:#181818;stroke-width:1.0;"/><polygon fill="none" points="344.7,165.49,338.1833,168.5775,338.5268,175.7804,345.0435,172.6929,344.7,165.49" style="stroke:#181818;stroke-width:1.0;"/></g><!--reverse link ControladorHoja to Posicion--><g id="link_ControladorHoja_Posicion"><path codeLine="54" d="M367.4581,176.1615 C377.7281,196.1315 389.98,219.95 400.17,239.78 " fill="none" id="ControladorHoja-backto-Posicion" style="stroke:#181818;stroke-width:1.0;"/><polygon fill="none" points="361.97,165.49,361.1569,172.6551,367.4581,176.1615,368.2712,168.9964,361.97,165.49" style="stroke:#181818;stroke-width:1.0;"/></g><!--reverse link InterfazUsuario to ControladorHoja--><g id="link_InterfazUsuario_ControladorHoja"><path codeLine="55" d="M209.8539,77.5623 C223.2639,82.5623 226.73,84.15 240,90 C269.87,103.17 303.02,120.34 325.84,132.57 " fill="none" id="InterfazUsuario-backto-ControladorHoja" style="stroke:#181818;stroke-width:1.0;"/><polygon fill="none" points="198.61,73.37,202.8345,79.2141,209.8539,77.5623,205.6294,71.7182,198.61,73.37" style="stroke:#181818;stroke-width:1.0;"/></g><!--reverse link InterfazUsuario to VisualizadorHoja--><g id="link_InterfazUsuario_VisualizadorHoja"><path codeLine="56" d="M153.484,85.2515 C152.564,101.8015 151.77,116.08 150.85,132.66 " fill="none" id="InterfazUsuario-backto-VisualizadorHoja" style="stroke:#181818;stroke-width:1.0;"/><polygon fill="none" points="154.15,73.27,149.8231,79.0387,153.484,85.2515,157.8108,79.4828,154.15,73.27" style="stroke:#181818;stroke-width:1.0;"/></g><!--reverse link InterfazUsuario to Teclado--><g id="link_InterfazUsuario_Teclado"><path codeLine="57" d="M236.4559,62.4908 C308.8659,67.0908 405.14,75.37 444,90 C469.5,99.6 494.55,118.84 510.34,132.52 " fill="none" id="InterfazUsuario-backto-Teclado" style="stroke:#181818;stroke-width:1.0;"/><polygon fill="none" points="224.48,61.73,230.2143,66.1023,236.4559,62.4908,230.7215,58.1184,224.48,61.73" style="stroke:#181818;stroke-width:1.0;"/></g><!--reverse link CeldaReferencia to Matriz--><g id="link_CeldaReferencia_Matriz"><path codeLine="58" d="M388.1805,413.5151 C366.8605,379.1751 321.71,306.46 300.44,272.2 " fill="none" id="CeldaReferencia-backto-Matriz" style="stroke:#181818;stroke-width:1.0;"/><polygon fill="none" points="394.51,423.71,394.7435,416.5027,388.1805,413.5151,387.9469,420.7224,394.51,423.71" style="stroke:#181818;stroke-width:1.0;"/></g><!--SRC=[ZLB1JWCX4Btp5Vp0_e4t4wC74sDQxrEOwYWm6s2DhlRVPLbgkonfoe73l3Tlvl7eGNt0AqhB6WtB7o7JUIED4cqVlwL5kqCVSXbs8NfGKIe38SXRD1fAno7V-Je3D_WL-IBZZhqTpAJInfznZnwTeZnenNc4w6biTJzn84NiCdOGeYy-5RlesO1cVzbiMU94l-VtudOXE4GoroXjK4qoHuNQBBiGmKKCJP_RD8Gqw1ckDlYar7hD2Wz9t-zXt8O1F75pqWibqD2uT3mFd0E_-UswitXNrHBfgdwAKfJO-0Y9-fcvAz4saEu_Mr4RoeBBXYQdDjaabS14_Gydh2pt1m00]--></g></svg>