<svg xmlns="http://www.w3.org/2000/svg" xmlns:xlink="http://www.w3.org/1999/xlink" contentStyleType="text/css" data-diagram-type="STATE" height="524px" preserveAspectRatio="none" style="width:515px;height:524px;background:#FFFFFF;" version="1.1" viewBox="0 0 515 524" width="515px" zoomAndPan="magnify"><defs/><g><path d="M19.5,7 L489.89,7 A12.5,12.5 0 0 1 502.39,19.5 L502.39,33.2969 L7,33.2969 L7,19.5 A12.5,12.5 0 0 1 19.5,7 " fill="#F1F1F1" style="stroke:#F1F1F1;stroke-width:1;"/><rect fill="transparent" height="511.2969" rx="12.5" ry="12.5" style="stroke:#181818;stroke-width:0.5;" width="495.39" x="7" y="7"/><line style="stroke:#181818;stroke-width:0.5;" x1="7" x2="502.39" y1="33.2969" y2="33.2969"/><text fill="#000000" font-family="sans-serif" font-size="14" lengthAdjust="spacing" textLength="39.7441" x="234.8229" y="24.9951">Celda</text><path d="M60.89,45.2969 L319.4305,45.2969 A12.5,12.5 0 0 1 331.9305,57.7969 L331.9305,71.5938 L48.39,71.5938 L48.39,57.7969 A12.5,12.5 0 0 1 60.89,45.2969 " fill="#F1F1F1" style="stroke:#F1F1F1;stroke-width:1;"/><rect fill="transparent" height="257.2969" rx="12.5" ry="12.5" style="stroke:#181818;stroke-width:0.5;" width="283.5405" x="48.39" y="45.2969"/><line style="stroke:#181818;stroke-width:0.5;" x1="48.39" x2="331.9305" y1="71.5938" y2="71.5938"/><text fill="#000000" font-family="sans-serif" font-size="14" lengthAdjust="spacing" textLength="50.6475" x="164.8365" y="63.292">Edici&#243;n</text><ellipse cx="142.18" cy="92.5938" fill="#222222" rx="10" ry="10" style="stroke:#222222;stroke-width:1;"/><g id="Celda.Edici&#243;n.Modificando"><rect fill="#F1F1F1" height="50" rx="12.5" ry="12.5" style="stroke:#181818;stroke-width:0.5;" width="104.8408" x="89.68" y="139.5938"/><line style="stroke:#181818;stroke-width:0.5;" x1="89.68" x2="194.5208" y1="165.8906" y2="165.8906"/><text fill="#000000" font-family="sans-serif" font-size="14" lengthAdjust="spacing" textLength="84.8408" x="99.68" y="157.5889">Modificando</text></g><g id="Celda.Edici&#243;n.Modificada"><rect fill="#F1F1F1" height="50" rx="12.5" ry="12.5" style="stroke:#181818;stroke-width:0.5;" width="95.9814" x="94.18" y="242.5938"/><line style="stroke:#181818;stroke-width:0.5;" x1="94.18" x2="190.1614" y1="268.8906" y2="268.8906"/><text fill="#000000" font-family="sans-serif" font-size="14" lengthAdjust="spacing" textLength="75.9814" x="104.18" y="260.5889">Modificada</text></g><!--link *start*Edici?n to Modificando--><g id="link_*start*Edici&#243;n_Modificando"><path d="M142.18,102.7438 C142.18,112.0137 142.18,120.7337 142.18,133.3738 " fill="transparent" id="*start*Edici&#243;n-to-Modificando" style="stroke:#181818;stroke-width:1;"/><polygon fill="#181818" points="142.18,139.3738,146.18,130.3738,142.18,134.3738,138.18,130.3738,142.18,139.3738" style="stroke:#181818;stroke-width:1;"/></g><!--link Modificando to Modificada--><g id="link_Modificando_Modificada"><path d="M89.58,186.6038 C81.42,192.1938 74.08,199.1137 69.18,207.5938 C59.39,224.5238 69.5152,235.7404 88.6652,245.8604 " fill="transparent" id="Modificando-to-Modificada" style="stroke:#181818;stroke-width:1;"/><polygon fill="#181818" points="93.97,248.6638,87.8817,240.9221,89.5493,246.3276,84.1439,247.9952,93.97,248.6638" style="stroke:#181818;stroke-width:1;"/><text fill="#000000" font-family="sans-serif" font-size="13" lengthAdjust="spacing" textLength="123.2778" x="70.18" y="220.6606">Confirmar cambios</text></g><!--link Modificada to Modificando--><g id="link_Modificada_Modificando"><path d="M181.88,242.4438 C192.87,232.5438 200.3,220.4038 194.18,207.5938 C190.98,200.8938 190.4863,199.0396 185.0063,193.8496 " fill="transparent" id="Modificada-to-Modificando" style="stroke:#181818;stroke-width:1;"/><polygon fill="#181818" points="180.65,189.7238,184.434,198.8167,184.2803,193.1619,189.9351,193.0082,180.65,189.7238" style="stroke:#181818;stroke-width:1;"/><text fill="#000000" font-family="sans-serif" font-size="13" lengthAdjust="spacing" textLength="124.7505" x="197.18" y="220.6606">Editar nuevamente</text></g><ellipse cx="484.39" cy="380.2969" fill="#222222" rx="10" ry="10" style="stroke:#222222;stroke-width:1;"/><g id="Celda.Vac&#237;a"><rect fill="#F1F1F1" height="50" rx="12.5" ry="12.5" style="stroke:#181818;stroke-width:0.5;" width="58.3223" x="306.39" y="458.2969"/><line style="stroke:#181818;stroke-width:0.5;" x1="306.39" x2="364.7123" y1="484.5938" y2="484.5938"/><text fill="#000000" font-family="sans-serif" font-size="14" lengthAdjust="spacing" textLength="38.3223" x="316.39" y="476.292">Vac&#237;a</text></g><g id="Celda.Llena"><rect fill="#F1F1F1" height="50" rx="12.5" ry="12.5" style="stroke:#181818;stroke-width:0.5;" width="57.7549" x="161.39" y="355.2969"/><line style="stroke:#181818;stroke-width:0.5;" x1="161.39" x2="219.1449" y1="381.5938" y2="381.5938"/><text fill="#000000" font-family="sans-serif" font-size="14" lengthAdjust="spacing" textLength="37.7549" x="171.39" y="373.292">Llena</text></g><!--link *start*Celda to Vac?a--><g id="link_*start*Celda_Vac&#237;a"><path d="M478.05,388.4669 C473.43,393.4869 466.86,400.1869 460.39,405.2969 C429.59,429.6369 395.8667,449.6644 369.6967,464.0644 " fill="transparent" id="*start*Celda-to-Vac&#237;a" style="stroke:#181818;stroke-width:1;"/><polygon fill="#181818" points="364.44,466.9569,374.2535,466.1226,368.8206,464.5464,370.3968,459.1136,364.44,466.9569" style="stroke:#181818;stroke-width:1;"/></g><!--link Vac?a to Edici?n--><g id="link_Vac&#237;a_Edici&#243;n"><path d="M337.93,458.0769 C340.37,425.3469 341.17,365.8669 321.39,320.2969 C318.75,314.2169 318.6759,313.4551 315.3859,307.5651 " fill="transparent" id="Vac&#237;a-to-Edici&#243;n" style="stroke:#181818;stroke-width:1;"/><polygon fill="#181818" points="312.46,302.3269,313.3568,312.1348,314.8983,306.6921,320.341,308.2336,312.46,302.3269" style="stroke:#181818;stroke-width:1;"/><text fill="#000000" font-family="sans-serif" font-size="13" lengthAdjust="spacing" textLength="119.6089" x="339.39" y="384.8638">Colocar Contenido</text></g><!--link Edici?n to Llena--><g id="link_Edici&#243;n_Llena"><path d="M48.1,262.5169 C27,285.9669 18,311.8769 37.39,337.2969 C52.33,356.8969 115.2436,368.7555 155.3036,374.6355 " fill="transparent" id="Edici&#243;n-to-Llena" style="stroke:#181818;stroke-width:1;"/><polygon fill="#181818" points="161.24,375.5069,152.9163,370.2423,156.293,374.7808,151.7545,378.1575,161.24,375.5069" style="stroke:#181818;stroke-width:1;"/><text fill="#000000" font-family="sans-serif" font-size="13" lengthAdjust="spacing" textLength="129.5684" x="38.39" y="333.3638">Contenido asignado</text></g><!--link Llena to Edici?n--><g id="link_Llena_Edici&#243;n"><path d="M190.39,355.1069 C190.39,341.2169 190.39,328.5869 190.39,308.5669 " fill="transparent" id="Llena-to-Edici&#243;n" style="stroke:#181818;stroke-width:1;"/><polygon fill="#181818" points="190.39,302.5669,186.39,311.5669,190.39,307.5669,194.39,311.5669,190.39,302.5669" style="stroke:#181818;stroke-width:1;"/><text fill="#000000" font-family="sans-serif" font-size="13" lengthAdjust="spacing" textLength="128.3052" x="191.39" y="333.3638">Modificar contenido</text></g><!--link Llena to Vac?a--><g id="link_Llena_Vac&#237;a"><path d="M187.96,405.5569 C188.1,417.2869 190.36,430.8469 198.39,440.2969 C225.04,471.6769 268.5018,479.6601 300.1318,481.6501 " fill="transparent" id="Llena-to-Vac&#237;a" style="stroke:#181818;stroke-width:1;"/><polygon fill="#181818" points="306.12,482.0269,297.3889,477.4697,301.1299,481.7129,296.8866,485.4539,306.12,482.0269" style="stroke:#181818;stroke-width:1;"/><text fill="#000000" font-family="sans-serif" font-size="13" lengthAdjust="spacing" textLength="121.8877" x="199.39" y="436.3638">Eliminar contenido</text></g><!--SRC=[PP0z3i8m34PtJc5rHEe565WgDbXP48D9KcGfSQGciA0UYOaZz6AuQUWV6QB8UP_zaX0n6YWgOpKMW07I2LuRa7NPNg4izt16rRqnbT8MKkYWIL7tuGpF0oUlgIQ5hFruDwij69csWyfpJOt31XIw6_dm5nDirLbYeX0bmm_pH6SucXHh9zF1F2L7tNwQzKfoCZKQfYmv0Zrzj8Qps838tz2TCRF3zQhjpqqUiMWymLb7n2qvuWNPVW40]--></g></svg>