<svg xmlns="http://www.w3.org/2000/svg" xmlns:xlink="http://www.w3.org/1999/xlink" contentStyleType="text/css" data-diagram-type="CLASS" height="687px" preserveAspectRatio="none" style="width:839px;height:687px;background:#FFFFFF;" version="1.1" viewBox="0 0 839 687" width="839px" zoomAndPan="magnify"><defs/><g><!--cluster HojaDeCalculo--><g id="cluster_HojaDeCalculo"><rect fill="transparent" height="674" rx="2.5" ry="2.5" style="stroke:#000000;stroke-width:1.5;" width="826" x="7" y="7"/><text fill="#000000" font-family="sans-serif" font-size="14" font-weight="bold" lengthAdjust="spacing" textLength="113.9004" x="363.0498" y="21.9951">HojaDeCalculo</text></g><!--cluster Controlador--><g id="cluster_Controlador"><rect fill="transparent" height="245" rx="2.5" ry="2.5" style="stroke:#000000;stroke-width:1.5;" width="178" x="31" y="50"/><text fill="#000000" font-family="sans-serif" font-size="14" font-weight="bold" lengthAdjust="spacing" textLength="93.8643" x="73.0679" y="64.9951">Controlador</text></g><!--cluster Modelo--><g id="cluster_Modelo"><rect fill="transparent" height="226" rx="2.5" ry="2.5" style="stroke:#000000;stroke-width:1.5;" width="230" x="183" y="344"/><text fill="#000000" font-family="sans-serif" font-size="14" font-weight="bold" lengthAdjust="spacing" textLength="57.4834" x="269.2583" y="358.9951">Modelo</text></g><!--cluster Util--><g id="cluster_Util"><rect fill="transparent" height="99" rx="2.5" ry="2.5" style="stroke:#000000;stroke-width:1.5;" width="280" x="529" y="344"/><text fill="#000000" font-family="sans-serif" font-size="14" font-weight="bold" lengthAdjust="spacing" textLength="27.6582" x="655.1709" y="358.9951">Util</text></g><!--cluster Vista--><g id="cluster_Vista"><rect fill="transparent" height="99" rx="2.5" ry="2.5" style="stroke:#000000;stroke-width:1.5;" width="505" x="233" y="196"/><text fill="#000000" font-family="sans-serif" font-size="14" font-weight="bold" lengthAdjust="spacing" textLength="40.1064" x="465.4468" y="210.9951">Vista</text></g><!--class ComponenteHoja--><g id="elem_ComponenteHoja"><rect codeLine="45" fill="#F1F1F1" height="48" id="ComponenteHoja" rx="2.5" ry="2.5" style="stroke:#181818;stroke-width:0.5;" width="153.4541" x="295.5" y="617"/><ellipse cx="310.5" cy="633" fill="#A9DCDF" rx="11" ry="11" style="stroke:#181818;stroke-width:1;"/><path d="M310.6094,628.3438 L309.4531,633.4219 L311.7813,633.4219 L310.6094,628.3438 Z M309.125,626.1094 L312.1094,626.1094 L315.4688,638.5 L313.0156,638.5 L312.25,635.4375 L308.9688,635.4375 L308.2188,638.5 L305.7813,638.5 L309.125,626.1094 Z " fill="#000000"/><text fill="#000000" font-family="sans-serif" font-size="14" font-style="italic" lengthAdjust="spacing" textLength="121.4541" x="324.5" y="637.8467">ComponenteHoja</text><line style="stroke:#181818;stroke-width:0.5;" x1="296.5" x2="447.9541" y1="649" y2="649"/><line style="stroke:#181818;stroke-width:0.5;" x1="296.5" x2="447.9541" y1="657" y2="657"/></g><!--class ControladorHoja--><g id="elem_ControladorHoja"><rect codeLine="7" fill="#F1F1F1" height="48" id="ControladorHoja" rx="2.5" ry="2.5" style="stroke:#181818;stroke-width:0.5;" width="146.2627" x="47" y="85"/><ellipse cx="62" cy="101" fill="#ADD1B2" rx="11" ry="11" style="stroke:#181818;stroke-width:1;"/><path d="M64.9688,106.6406 Q64.3906,106.9375 63.75,107.0781 Q63.1094,107.2344 62.4063,107.2344 Q59.9063,107.2344 58.5781,105.5938 Q57.2656,103.9375 57.2656,100.8125 Q57.2656,97.6875 58.5781,96.0313 Q59.9063,94.375 62.4063,94.375 Q63.1094,94.375 63.75,94.5313 Q64.4063,94.6875 64.9688,94.9844 L64.9688,97.7031 Q64.3438,97.125 63.75,96.8594 Q63.1563,96.5781 62.5313,96.5781 Q61.1875,96.5781 60.5,97.6563 Q59.8125,98.7188 59.8125,100.8125 Q59.8125,102.9063 60.5,103.9844 Q61.1875,105.0469 62.5313,105.0469 Q63.1563,105.0469 63.75,104.7813 Q64.3438,104.5 64.9688,103.9219 L64.9688,106.6406 Z " fill="#000000"/><text fill="#000000" font-family="sans-serif" font-size="14" lengthAdjust="spacing" textLength="114.2627" x="76" y="105.8467">ControladorHoja</text><line style="stroke:#181818;stroke-width:0.5;" x1="48" x2="192.2627" y1="117" y2="117"/><line style="stroke:#181818;stroke-width:0.5;" x1="48" x2="192.2627" y1="125" y2="125"/></g><!--class Teclado--><g id="elem_Teclado"><rect codeLine="8" fill="#F1F1F1" height="48" id="Teclado" rx="2.5" ry="2.5" style="stroke:#181818;stroke-width:0.5;" width="86.7832" x="47.5" y="231"/><ellipse cx="62.5" cy="247" fill="#ADD1B2" rx="11" ry="11" style="stroke:#181818;stroke-width:1;"/><path d="M65.4688,252.6406 Q64.8906,252.9375 64.25,253.0781 Q63.6094,253.2344 62.9063,253.2344 Q60.4063,253.2344 59.0781,251.5938 Q57.7656,249.9375 57.7656,246.8125 Q57.7656,243.6875 59.0781,242.0313 Q60.4063,240.375 62.9063,240.375 Q63.6094,240.375 64.25,240.5313 Q64.9063,240.6875 65.4688,240.9844 L65.4688,243.7031 Q64.8438,243.125 64.25,242.8594 Q63.6563,242.5781 63.0313,242.5781 Q61.6875,242.5781 61,243.6563 Q60.3125,244.7188 60.3125,246.8125 Q60.3125,248.9063 61,249.9844 Q61.6875,251.0469 63.0313,251.0469 Q63.6563,251.0469 64.25,250.7813 Q64.8438,250.5 65.4688,249.9219 L65.4688,252.6406 Z " fill="#000000"/><text fill="#000000" font-family="sans-serif" font-size="14" lengthAdjust="spacing" textLength="54.7832" x="76.5" y="251.8467">Teclado</text><line style="stroke:#181818;stroke-width:0.5;" x1="48.5" x2="133.2832" y1="263" y2="263"/><line style="stroke:#181818;stroke-width:0.5;" x1="48.5" x2="133.2832" y1="271" y2="271"/></g><!--class Celda--><g id="elem_Celda"><rect codeLine="12" fill="#F1F1F1" height="48" id="Celda" rx="2.5" ry="2.5" style="stroke:#181818;stroke-width:0.5;" width="71.7441" x="199" y="506"/><ellipse cx="214" cy="522" fill="#ADD1B2" rx="11" ry="11" style="stroke:#181818;stroke-width:1;"/><path d="M216.9688,527.6406 Q216.3906,527.9375 215.75,528.0781 Q215.1094,528.2344 214.4063,528.2344 Q211.9063,528.2344 210.5781,526.5938 Q209.2656,524.9375 209.2656,521.8125 Q209.2656,518.6875 210.5781,517.0313 Q211.9063,515.375 214.4063,515.375 Q215.1094,515.375 215.75,515.5313 Q216.4063,515.6875 216.9688,515.9844 L216.9688,518.7031 Q216.3438,518.125 215.75,517.8594 Q215.1563,517.5781 214.5313,517.5781 Q213.1875,517.5781 212.5,518.6563 Q211.8125,519.7188 211.8125,521.8125 Q211.8125,523.9063 212.5,524.9844 Q213.1875,526.0469 214.5313,526.0469 Q215.1563,526.0469 215.75,525.7813 Q216.3438,525.5 216.9688,524.9219 L216.9688,527.6406 Z " fill="#000000"/><text fill="#000000" font-family="sans-serif" font-size="14" lengthAdjust="spacing" textLength="39.7441" x="228" y="526.8467">Celda</text><line style="stroke:#181818;stroke-width:0.5;" x1="200" x2="269.7441" y1="538" y2="538"/><line style="stroke:#181818;stroke-width:0.5;" x1="200" x2="269.7441" y1="546" y2="546"/></g><!--class Matriz--><g id="elem_Matriz"><rect codeLine="13" fill="#F1F1F1" height="48" id="Matriz" rx="2.5" ry="2.5" style="stroke:#181818;stroke-width:0.5;" width="75.1416" x="198.5" y="379"/><ellipse cx="213.5" cy="395" fill="#ADD1B2" rx="11" ry="11" style="stroke:#181818;stroke-width:1;"/><path d="M216.4688,400.6406 Q215.8906,400.9375 215.25,401.0781 Q214.6094,401.2344 213.9063,401.2344 Q211.4063,401.2344 210.0781,399.5938 Q208.7656,397.9375 208.7656,394.8125 Q208.7656,391.6875 210.0781,390.0313 Q211.4063,388.375 213.9063,388.375 Q214.6094,388.375 215.25,388.5313 Q215.9063,388.6875 216.4688,388.9844 L216.4688,391.7031 Q215.8438,391.125 215.25,390.8594 Q214.6563,390.5781 214.0313,390.5781 Q212.6875,390.5781 212,391.6563 Q211.3125,392.7188 211.3125,394.8125 Q211.3125,396.9063 212,397.9844 Q212.6875,399.0469 214.0313,399.0469 Q214.6563,399.0469 215.25,398.7813 Q215.8438,398.5 216.4688,397.9219 L216.4688,400.6406 Z " fill="#000000"/><text fill="#000000" font-family="sans-serif" font-size="14" lengthAdjust="spacing" textLength="43.1416" x="227.5" y="399.8467">Matriz</text><line style="stroke:#181818;stroke-width:0.5;" x1="199.5" x2="272.6416" y1="411" y2="411"/><line style="stroke:#181818;stroke-width:0.5;" x1="199.5" x2="272.6416" y1="419" y2="419"/></g><!--class Posicion--><g id="elem_Posicion"><rect codeLine="14" fill="#F1F1F1" height="48" id="Posicion" rx="2.5" ry="2.5" style="stroke:#181818;stroke-width:0.5;" width="89.2168" x="308.5" y="379"/><ellipse cx="323.5" cy="395" fill="#ADD1B2" rx="11" ry="11" style="stroke:#181818;stroke-width:1;"/><path d="M326.4688,400.6406 Q325.8906,400.9375 325.25,401.0781 Q324.6094,401.2344 323.9063,401.2344 Q321.4063,401.2344 320.0781,399.5938 Q318.7656,397.9375 318.7656,394.8125 Q318.7656,391.6875 320.0781,390.0313 Q321.4063,388.375 323.9063,388.375 Q324.6094,388.375 325.25,388.5313 Q325.9063,388.6875 326.4688,388.9844 L326.4688,391.7031 Q325.8438,391.125 325.25,390.8594 Q324.6563,390.5781 324.0313,390.5781 Q322.6875,390.5781 322,391.6563 Q321.3125,392.7188 321.3125,394.8125 Q321.3125,396.9063 322,397.9844 Q322.6875,399.0469 324.0313,399.0469 Q324.6563,399.0469 325.25,398.7813 Q325.8438,398.5 326.4688,397.9219 L326.4688,400.6406 Z " fill="#000000"/><text fill="#000000" font-family="sans-serif" font-size="14" lengthAdjust="spacing" textLength="57.2168" x="337.5" y="399.8467">Posicion</text><line style="stroke:#181818;stroke-width:0.5;" x1="309.5" x2="396.7168" y1="411" y2="411"/><line style="stroke:#181818;stroke-width:0.5;" x1="309.5" x2="396.7168" y1="419" y2="419"/></g><!--class Constantes--><g id="elem_Constantes"><rect codeLine="18" fill="#F1F1F1" height="48" id="Constantes" rx="2.5" ry="2.5" style="stroke:#181818;stroke-width:0.5;" width="110.8457" x="544.5" y="379"/><ellipse cx="559.5" cy="395" fill="#ADD1B2" rx="11" ry="11" style="stroke:#181818;stroke-width:1;"/><path d="M562.4688,400.6406 Q561.8906,400.9375 561.25,401.0781 Q560.6094,401.2344 559.9063,401.2344 Q557.4063,401.2344 556.0781,399.5938 Q554.7656,397.9375 554.7656,394.8125 Q554.7656,391.6875 556.0781,390.0313 Q557.4063,388.375 559.9063,388.375 Q560.6094,388.375 561.25,388.5313 Q561.9063,388.6875 562.4688,388.9844 L562.4688,391.7031 Q561.8438,391.125 561.25,390.8594 Q560.6563,390.5781 560.0313,390.5781 Q558.6875,390.5781 558,391.6563 Q557.3125,392.7188 557.3125,394.8125 Q557.3125,396.9063 558,397.9844 Q558.6875,399.0469 560.0313,399.0469 Q560.6563,399.0469 561.25,398.7813 Q561.8438,398.5 562.4688,397.9219 L562.4688,400.6406 Z " fill="#000000"/><text fill="#000000" font-family="sans-serif" font-size="14" lengthAdjust="spacing" textLength="78.8457" x="573.5" y="399.8467">Constantes</text><line style="stroke:#181818;stroke-width:0.5;" x1="545.5" x2="654.3457" y1="411" y2="411"/><line style="stroke:#181818;stroke-width:0.5;" x1="545.5" x2="654.3457" y1="419" y2="419"/></g><!--class Utilidades--><g id="elem_Utilidades"><rect codeLine="19" fill="#F1F1F1" height="48" id="Utilidades" rx="2.5" ry="2.5" style="stroke:#181818;stroke-width:0.5;" width="101.665" x="691" y="379"/><ellipse cx="706" cy="395" fill="#ADD1B2" rx="11" ry="11" style="stroke:#181818;stroke-width:1;"/><path d="M708.9688,400.6406 Q708.3906,400.9375 707.75,401.0781 Q707.1094,401.2344 706.4063,401.2344 Q703.9063,401.2344 702.5781,399.5938 Q701.2656,397.9375 701.2656,394.8125 Q701.2656,391.6875 702.5781,390.0313 Q703.9063,388.375 706.4063,388.375 Q707.1094,388.375 707.75,388.5313 Q708.4063,388.6875 708.9688,388.9844 L708.9688,391.7031 Q708.3438,391.125 707.75,390.8594 Q707.1563,390.5781 706.5313,390.5781 Q705.1875,390.5781 704.5,391.6563 Q703.8125,392.7188 703.8125,394.8125 Q703.8125,396.9063 704.5,397.9844 Q705.1875,399.0469 706.5313,399.0469 Q707.1563,399.0469 707.75,398.7813 Q708.3438,398.5 708.9688,397.9219 L708.9688,400.6406 Z " fill="#000000"/><text fill="#000000" font-family="sans-serif" font-size="14" lengthAdjust="spacing" textLength="69.665" x="720" y="399.8467">Utilidades</text><line style="stroke:#181818;stroke-width:0.5;" x1="692" x2="791.665" y1="411" y2="411"/><line style="stroke:#181818;stroke-width:0.5;" x1="692" x2="791.665" y1="419" y2="419"/></g><!--class InterfazUsuario--><g id="elem_InterfazUsuario"><rect codeLine="23" fill="#F1F1F1" height="48" id="InterfazUsuario" rx="2.5" ry="2.5" style="stroke:#181818;stroke-width:0.5;" width="138.9209" x="249.5" y="231"/><ellipse cx="264.5" cy="247" fill="#ADD1B2" rx="11" ry="11" style="stroke:#181818;stroke-width:1;"/><path d="M267.4688,252.6406 Q266.8906,252.9375 266.25,253.0781 Q265.6094,253.2344 264.9063,253.2344 Q262.4063,253.2344 261.0781,251.5938 Q259.7656,249.9375 259.7656,246.8125 Q259.7656,243.6875 261.0781,242.0313 Q262.4063,240.375 264.9063,240.375 Q265.6094,240.375 266.25,240.5313 Q266.9063,240.6875 267.4688,240.9844 L267.4688,243.7031 Q266.8438,243.125 266.25,242.8594 Q265.6563,242.5781 265.0313,242.5781 Q263.6875,242.5781 263,243.6563 Q262.3125,244.7188 262.3125,246.8125 Q262.3125,248.9063 263,249.9844 Q263.6875,251.0469 265.0313,251.0469 Q265.6563,251.0469 266.25,250.7813 Q266.8438,250.5 267.4688,249.9219 L267.4688,252.6406 Z " fill="#000000"/><text fill="#000000" font-family="sans-serif" font-size="14" lengthAdjust="spacing" textLength="106.9209" x="278.5" y="251.8467">InterfazUsuario</text><line style="stroke:#181818;stroke-width:0.5;" x1="250.5" x2="387.4209" y1="263" y2="263"/><line style="stroke:#181818;stroke-width:0.5;" x1="250.5" x2="387.4209" y1="271" y2="271"/></g><!--class VisualizadorHoja--><g id="elem_VisualizadorHoja"><rect codeLine="24" fill="#F1F1F1" height="48" id="VisualizadorHoja" rx="2.5" ry="2.5" style="stroke:#181818;stroke-width:0.5;" width="148.6895" x="573.5" y="231"/><ellipse cx="588.5" cy="247" fill="#ADD1B2" rx="11" ry="11" style="stroke:#181818;stroke-width:1;"/><path d="M591.4688,252.6406 Q590.8906,252.9375 590.25,253.0781 Q589.6094,253.2344 588.9063,253.2344 Q586.4063,253.2344 585.0781,251.5938 Q583.7656,249.9375 583.7656,246.8125 Q583.7656,243.6875 585.0781,242.0313 Q586.4063,240.375 588.9063,240.375 Q589.6094,240.375 590.25,240.5313 Q590.9063,240.6875 591.4688,240.9844 L591.4688,243.7031 Q590.8438,243.125 590.25,242.8594 Q589.6563,242.5781 589.0313,242.5781 Q587.6875,242.5781 587,243.6563 Q586.3125,244.7188 586.3125,246.8125 Q586.3125,248.9063 587,249.9844 Q587.6875,251.0469 589.0313,251.0469 Q589.6563,251.0469 590.25,250.7813 Q590.8438,250.5 591.4688,249.9219 L591.4688,252.6406 Z " fill="#000000"/><text fill="#000000" font-family="sans-serif" font-size="14" lengthAdjust="spacing" textLength="116.6895" x="602.5" y="251.8467">VisualizadorHoja</text><line style="stroke:#181818;stroke-width:0.5;" x1="574.5" x2="721.1895" y1="263" y2="263"/><line style="stroke:#181818;stroke-width:0.5;" x1="574.5" x2="721.1895" y1="271" y2="271"/></g><!--class HojaCalculo--><g id="elem_HojaCalculo"><rect codeLine="25" fill="#F1F1F1" height="48" id="HojaCalculo" rx="2.5" ry="2.5" style="stroke:#181818;stroke-width:0.5;" width="114.8311" x="423.5" y="231"/><ellipse cx="438.5" cy="247" fill="#ADD1B2" rx="11" ry="11" style="stroke:#181818;stroke-width:1;"/><path d="M441.4688,252.6406 Q440.8906,252.9375 440.25,253.0781 Q439.6094,253.2344 438.9063,253.2344 Q436.4063,253.2344 435.0781,251.5938 Q433.7656,249.9375 433.7656,246.8125 Q433.7656,243.6875 435.0781,242.0313 Q436.4063,240.375 438.9063,240.375 Q439.6094,240.375 440.25,240.5313 Q440.9063,240.6875 441.4688,240.9844 L441.4688,243.7031 Q440.8438,243.125 440.25,242.8594 Q439.6563,242.5781 439.0313,242.5781 Q437.6875,242.5781 437,243.6563 Q436.3125,244.7188 436.3125,246.8125 Q436.3125,248.9063 437,249.9844 Q437.6875,251.0469 439.0313,251.0469 Q439.6563,251.0469 440.25,250.7813 Q440.8438,250.5 441.4688,249.9219 L441.4688,252.6406 Z " fill="#000000"/><text fill="#000000" font-family="sans-serif" font-size="14" lengthAdjust="spacing" textLength="82.8311" x="452.5" y="251.8467">HojaCalculo</text><line style="stroke:#181818;stroke-width:0.5;" x1="424.5" x2="537.3311" y1="263" y2="263"/><line style="stroke:#181818;stroke-width:0.5;" x1="424.5" x2="537.3311" y1="271" y2="271"/></g><!--link HojaCalculo to ControladorHoja--><g id="link_HojaCalculo_ControladorHoja"><path codeLine="28" d="M460.08,230.83 C446.05,216.59 426.46,199.02 406,188 C338.6,151.7 258.8655,132.3105 198.9455,121.5505 " fill="transparent" id="HojaCalculo-to-ControladorHoja" style="stroke:#181818;stroke-width:1;"/><polygon fill="#181818" points="193.04,120.49,201.1913,126.0177,197.9613,121.3737,202.6053,118.1437,193.04,120.49" style="stroke:#181818;stroke-width:1;"/><text fill="#000000" font-family="sans-serif" font-size="13" lengthAdjust="spacing" textLength="56.2847" x="385" y="176.0669">contiene</text></g><!--link ControladorHoja to InterfazUsuario--><g id="link_ControladorHoja_InterfazUsuario"><path codeLine="29" d="M151.97,133.14 C189.11,160.01 245.1389,200.5529 282.2489,227.4029 " fill="transparent" id="ControladorHoja-to-InterfazUsuario" style="stroke:#181818;stroke-width:1;"/><polygon fill="#181818" points="287.11,230.92,282.1631,222.4036,283.0591,227.9891,277.4737,228.8851,287.11,230.92" style="stroke:#181818;stroke-width:1;"/><text fill="#000000" font-family="sans-serif" font-size="13" lengthAdjust="spacing" textLength="22.9785" x="215" y="176.0669">usa</text></g><!--link ControladorHoja to Teclado--><g id="link_ControladorHoja_Teclado"><path codeLine="30" d="M115.34,133.14 C109.93,160.01 102.233,198.1878 96.833,225.0378 " fill="transparent" id="ControladorHoja-to-Teclado" style="stroke:#181818;stroke-width:1;"/><polygon fill="#181818" points="95.65,230.92,101.346,222.8854,96.6358,226.0182,93.503,221.308,95.65,230.92" style="stroke:#181818;stroke-width:1;"/><text fill="#000000" font-family="sans-serif" font-size="13" lengthAdjust="spacing" textLength="22.9785" x="110" y="176.0669">usa</text></g><!--link ControladorHoja to VisualizadorHoja--><g id="link_ControladorHoja_VisualizadorHoja"><path codeLine="31" d="M193.09,112.1 C282.44,117.09 436.49,133.63 556,188 C579.98,198.91 599.4089,212.6895 616.9189,226.9595 " fill="transparent" id="ControladorHoja-to-VisualizadorHoja" style="stroke:#181818;stroke-width:1;"/><polygon fill="#181818" points="621.57,230.75,617.1204,221.9636,617.6941,227.5913,612.0664,228.165,621.57,230.75" style="stroke:#181818;stroke-width:1;"/><text fill="#000000" font-family="sans-serif" font-size="13" lengthAdjust="spacing" textLength="22.9785" x="535" y="176.0669">usa</text></g><!--link InterfazUsuario to Posicion--><g id="link_InterfazUsuario_Posicion"><path codeLine="33" d="M250.16,279.02 C222.96,291.71 201.81,308.79 219,328 C229.74,340 276.6,328.8 291,336 C310.26,345.63 323.0835,359.0499 334.1635,373.9099 " fill="transparent" id="InterfazUsuario-to-Posicion" style="stroke:#181818;stroke-width:1;"/><polygon fill="#181818" points="337.75,378.72,335.5769,369.1139,334.7612,374.7116,329.1635,373.8959,337.75,378.72" style="stroke:#181818;stroke-width:1;"/><text fill="#000000" font-family="sans-serif" font-size="13" lengthAdjust="spacing" textLength="49.1499" x="220" y="324.0669">obtiene</text></g><!--link InterfazUsuario to Matriz--><g id="link_InterfazUsuario_Matriz"><path codeLine="34" d="M272.91,279.05 C253.6,287.82 230.64,297.1 209,303 C195.6,306.65 156.17,300.57 147,311 C142.01,316.67 143.31,321.4 147,328 C150.31,333.92 154.53,331.98 160,336 C178.03,349.24 192.593,361.7011 207.083,374.8911 " fill="transparent" id="InterfazUsuario-to-Matriz" style="stroke:#181818;stroke-width:1;"/><polygon fill="#181818" points="211.52,378.93,207.5571,369.9136,207.8225,375.5642,202.1719,375.8296,211.52,378.93" style="stroke:#181818;stroke-width:1;"/><text fill="#000000" font-family="sans-serif" font-size="13" lengthAdjust="spacing" textLength="56.2974" x="148" y="324.0669">visualiza</text></g><!--link Teclado to Celda--><g id="link_Teclado_Celda"><path codeLine="36" d="M91.74,279.08 C93.62,316.48 100.3,392.07 124,451 C138.89,488.03 160.25,486.36 195,506 C196.26,506.71 192.3081,504.475 193.5981,505.205 " fill="transparent" id="Teclado-to-Celda" style="stroke:#181818;stroke-width:1;"/><polygon fill="#181818" points="198.82,508.16,192.9572,500.2462,194.4684,505.6975,189.0172,507.2087,198.82,508.16" style="stroke:#181818;stroke-width:1;"/><text fill="#000000" font-family="sans-serif" font-size="13" lengthAdjust="spacing" textLength="55.7832" x="125" y="407.5669">modifica</text></g><!--link Matriz to Celda--><g id="link_Matriz_Celda"><path codeLine="38" d="M198.42,427.2 C176.33,441.02 152.43,456.38 151,459 C147.39,465.64 147.35,469.38 151,476 C152.44,478.6 171.6056,490.679 193.7056,504.139 " fill="transparent" id="Matriz-to-Celda" style="stroke:#181818;stroke-width:1;"/><polygon fill="#181818" points="198.83,507.26,193.2241,499.1622,194.5597,504.6592,189.0628,505.9947,198.83,507.26" style="stroke:#181818;stroke-width:1;"/><text fill="#000000" font-family="sans-serif" font-size="13" lengthAdjust="spacing" textLength="92.4727" x="152" y="472.0669">compuesta de</text></g><!--link HojaCalculo to Matriz--><g id="link_HojaCalculo_Matriz"><path codeLine="39" d="M451.23,279.03 C438.07,288.02 421.97,297.47 406,303 C374.32,313.96 362.69,300.06 331,311 C311.18,317.84 306.8,322.22 291,336 C276.5,348.65 266.2762,360.5297 256.0962,373.9497 " fill="transparent" id="HojaCalculo-to-Matriz" style="stroke:#181818;stroke-width:1;"/><polygon fill="#181818" points="252.47,378.73,261.0961,373.977,255.4918,374.7464,254.7224,369.1422,252.47,378.73" style="stroke:#181818;stroke-width:1;"/><text fill="#000000" font-family="sans-serif" font-size="13" lengthAdjust="spacing" textLength="56.2847" x="332" y="324.0669">contiene</text></g><!--link HojaCalculo to Posicion--><g id="link_HojaCalculo_Posicion"><path codeLine="40" d="M446.97,279.08 C434.85,288.21 421.58,299.32 411,311 C392.13,331.83 378.3375,354.225 367.7675,373.565 " fill="transparent" id="HojaCalculo-to-Posicion" style="stroke:#181818;stroke-width:1;"/><polygon fill="#181818" points="364.89,378.83,372.7162,372.8509,367.2879,374.4425,365.6963,369.0142,364.89,378.83" style="stroke:#181818;stroke-width:1;"/><text fill="#000000" font-family="sans-serif" font-size="13" lengthAdjust="spacing" textLength="55.0278" x="412" y="324.0669">consulta</text></g><!--link HojaCalculo to Constantes--><g id="link_HojaCalculo_Constantes"><path codeLine="42" d="M506.03,279.24 C515.77,288.73 526.79,300.04 536,311 C554.4,332.88 569.6255,354.8588 581.9755,373.7388 " fill="transparent" id="HojaCalculo-to-Constantes" style="stroke:#181818;stroke-width:1;stroke-dasharray:7.0,7.0;"/><polygon fill="#181818" points="585.26,378.76,583.6807,369.0386,582.5229,374.5757,576.9858,373.4179,585.26,378.76" style="stroke:#181818;stroke-width:1;"/><text fill="#000000" font-family="sans-serif" font-size="13" lengthAdjust="spacing" textLength="22.9785" x="550" y="324.0669">usa</text></g><!--link ControladorHoja to Utilidades--><g id="link_ControladorHoja_Utilidades"><path codeLine="43" d="M193.27,113.89 C349.17,122.93 702.44,147.67 738,188 C785.31,241.66 765.5284,329.8959 751.9184,373.2159 " fill="transparent" id="ControladorHoja-to-Utilidades" style="stroke:#181818;stroke-width:1;stroke-dasharray:7.0,7.0;"/><polygon fill="#181818" points="750.12,378.94,756.6337,371.5527,751.6186,374.1699,749.0015,369.1549,750.12,378.94" style="stroke:#181818;stroke-width:1;"/><text fill="#000000" font-family="sans-serif" font-size="13" lengthAdjust="spacing" textLength="22.9785" x="768" y="259.5669">usa</text></g><!--link HojaCalculo to ComponenteHoja--><g id="link_HojaCalculo_ComponenteHoja"><path codeLine="46" d="M482.31,279.01 C484.45,334.08 484.03,476.45 431,578 C423.37,592.62 424.308,593.8204 413.038,604.5304 " fill="transparent" id="HojaCalculo-to-ComponenteHoja" style="stroke:#181818;stroke-width:1;"/><polygon fill="transparent" points="399.99,616.93,417.1712,608.8797,408.9048,600.1811,399.99,616.93" style="stroke:#181818;stroke-width:1;"/></g><!--link InterfazUsuario to ComponenteHoja--><g id="link_InterfazUsuario_ComponenteHoja"><path codeLine="47" d="M354.49,279.03 C369.77,287.91 388.18,297.28 406,303 C419.44,307.32 459.67,300.41 469,311 C473.99,316.67 471.66,320.93 469,328 C467.34,332.42 464.09,331.77 462,336 C413.35,434.37 454.93,476.59 413,578 C407.33,591.71 408.9992,591.0136 400.9692,602.1636 " fill="transparent" id="InterfazUsuario-to-ComponenteHoja" style="stroke:#181818;stroke-width:1;"/><polygon fill="transparent" points="390.45,616.77,405.838,605.67,396.1004,598.6572,390.45,616.77" style="stroke:#181818;stroke-width:1;"/></g><!--link VisualizadorHoja to ComponenteHoja--><g id="link_VisualizadorHoja_ComponenteHoja"><path codeLine="48" d="M607.11,279.04 C591.44,287.3 573.19,296.23 556,303 C543.96,307.74 537.13,301.83 528,311 C506.26,332.84 470.29,552.49 453,578 C442.57,593.39 441.8407,596.3029 427.1807,606.5129 " fill="transparent" id="VisualizadorHoja-to-ComponenteHoja" style="stroke:#181818;stroke-width:1;"/><polygon fill="transparent" points="412.41,616.8,430.6098,611.4365,423.7517,601.5893,412.41,616.8" style="stroke:#181818;stroke-width:1;"/></g><!--link Teclado to ComponenteHoja--><g id="link_Teclado_ComponenteHoja"><path codeLine="49" d="M85.93,279.29 C78.84,316.67 68.95,391.84 89,451 C111.54,517.51 126.06,536.9 183,578 C216.04,601.85 241.3359,612.4512 277.8059,621.7312 " fill="transparent" id="Teclado-to-ComponenteHoja" style="stroke:#181818;stroke-width:1;"/><polygon fill="transparent" points="295.25,626.17,279.2855,615.9165,276.3263,627.546,295.25,626.17" style="stroke:#181818;stroke-width:1;"/></g><!--link Matriz to ComponenteHoja--><g id="link_Matriz_ComponenteHoja"><path codeLine="50" d="M249.29,427.06 C275.29,472.18 323.6205,556.0655 349.6705,601.2555 " fill="transparent" id="Matriz-to-ComponenteHoja" style="stroke:#181818;stroke-width:1;"/><polygon fill="transparent" points="358.66,616.85,354.8686,598.259,344.4723,604.252,358.66,616.85" style="stroke:#181818;stroke-width:1;"/></g><!--link Celda to ComponenteHoja--><g id="link_Celda_ComponenteHoja"><path codeLine="51" d="M252.46,554.24 C259.05,562.25 266.92,570.96 275,578 C291.72,592.58 296.7581,596.8874 314.5681,607.6074 " fill="transparent" id="Celda-to-ComponenteHoja" style="stroke:#181818;stroke-width:1;"/><polygon fill="transparent" points="329.99,616.89,317.6623,602.4668,311.4739,612.7481,329.99,616.89" style="stroke:#181818;stroke-width:1;"/></g><!--link Posicion to ComponenteHoja--><g id="link_Posicion_ComponenteHoja"><path codeLine="52" d="M354.86,427.06 C358.49,472.18 365.0548,553.7181 368.6948,598.9081 " fill="transparent" id="Posicion-to-ComponenteHoja" style="stroke:#181818;stroke-width:1;"/><polygon fill="transparent" points="370.14,616.85,374.6754,598.4264,362.7142,599.3898,370.14,616.85" style="stroke:#181818;stroke-width:1;"/></g><!--SRC=[XP8nJyCm48Nt_0ghUojcXaYe37IeX5JAVhMlbQcJYsm7YK3_EtRgfAxZGCPxtprVtfqvoxe13HLhW9_XX3lxfP1fv1RgayB2Z01NOCoJjLeUMeiRJlLETiWUYYAqiiKBVS0pha7nLj62VHS5SzyWhwcscXG8qavYuUjjOysR9EeRSY_rrSkzwPO4AfhweHAfonRSx5rIV2KZkQGwvxstKkKcDIuRYoOHF2q5Y20aNk_ITKtCDiv77w7RcnQqf4HrFIqesSsauaiXw_Z5gCoMopADbZqojpehiSOUJsNVaepbMbe3itJOpZzK-ZC1x_dqFSyFYt4S7MxZvj3hOXtuERnnjHq6wrFm1-6GYeGyIXw8q1a3dAgcHRyiWTaynzVkOaofQ7p7cLPPcAvdjIgZU_eZG0_UxYkE3Wx6Qk1slCwgeHgTtNWmzvFzb3bcccgUconn3hn5dzV7uFFoTHbpwfXj3hZy0W00]--></g></svg>