<svg xmlns="http://www.w3.org/2000/svg" xmlns:xlink="http://www.w3.org/1999/xlink" contentStyleType="text/css" data-diagram-type="STATE" height="730px" preserveAspectRatio="none" style="width:494px;height:730px;background:#FFFFFF;" version="1.1" viewBox="0 0 494 730" width="494px" zoomAndPan="magnify"><defs/><g><path d="M19.5,7 L468.605,7 A12.5,12.5 0 0 1 481.105,19.5 L481.105,33.2969 L7,33.2969 L7,19.5 A12.5,12.5 0 0 1 19.5,7 " fill="#F1F1F1" style="stroke:#F1F1F1;stroke-width:1;"/><rect fill="transparent" height="717.2969" rx="12.5" ry="12.5" style="stroke:#181818;stroke-width:0.5;" width="474.105" x="7" y="7"/><line style="stroke:#181818;stroke-width:0.5;" x1="7" x2="481.105" y1="33.2969" y2="33.2969"/><text fill="#000000" font-family="sans-serif" font-size="14" lengthAdjust="spacing" textLength="106.9209" x="190.592" y="24.9951">InterfazUsuario</text><path d="M31.5,45.2969 L247.7728,45.2969 A12.5,12.5 0 0 1 260.2728,57.7969 L260.2728,71.5938 L19,71.5938 L19,57.7969 A12.5,12.5 0 0 1 31.5,45.2969 " fill="#F1F1F1" style="stroke:#F1F1F1;stroke-width:1;"/><rect fill="transparent" height="257.2969" rx="12.5" ry="12.5" style="stroke:#181818;stroke-width:0.5;" width="241.2728" x="19" y="45.2969"/><line style="stroke:#181818;stroke-width:0.5;" x1="19" x2="260.2728" y1="71.5938" y2="71.5938"/><text fill="#000000" font-family="sans-serif" font-size="14" lengthAdjust="spacing" textLength="105.6494" x="86.8117" y="63.292">MostrandoHoja</text><ellipse cx="88.2728" cy="92.5938" fill="#222222" rx="10" ry="10" style="stroke:#222222;stroke-width:1;"/><g id="InterfazUsuario.MostrandoHoja.Visualizando"><rect fill="#F1F1F1" height="50" rx="12.5" ry="12.5" style="stroke:#181818;stroke-width:0.5;" width="108.2451" x="34.2728" y="139.5938"/><line style="stroke:#181818;stroke-width:0.5;" x1="34.2728" x2="142.5179" y1="165.8906" y2="165.8906"/><text fill="#000000" font-family="sans-serif" font-size="14" lengthAdjust="spacing" textLength="88.2451" x="44.2728" y="157.5889">Visualizando</text></g><g id="InterfazUsuario.MostrandoHoja.Editando"><rect fill="#F1F1F1" height="50" rx="12.5" ry="12.5" style="stroke:#181818;stroke-width:0.5;" width="82.0156" x="47.2728" y="242.5938"/><line style="stroke:#181818;stroke-width:0.5;" x1="47.2728" x2="129.2884" y1="268.8906" y2="268.8906"/><text fill="#000000" font-family="sans-serif" font-size="14" lengthAdjust="spacing" textLength="62.0156" x="57.2728" y="260.5889">Editando</text></g><!--link *start*MostrandoHoja to Visualizando--><g id="link_*start*MostrandoHoja_Visualizando"><path d="M88.2728,102.7438 C88.2728,112.0137 88.2728,120.7337 88.2728,133.3738 " fill="transparent" id="*start*MostrandoHoja-to-Visualizando" style="stroke:#181818;stroke-width:1;"/><polygon fill="#181818" points="88.2728,139.3738,92.2728,130.3738,88.2728,134.3738,84.2728,130.3738,88.2728,139.3738" style="stroke:#181818;stroke-width:1;"/></g><!--link Visualizando to Editando--><g id="link_Visualizando_Editando"><path d="M50.5328,189.8238 C45.1628,195.0138 40.4028,200.9538 37.2728,207.5938 C31.2628,220.3238 34.1357,228.3931 44.9157,238.3031 " fill="transparent" id="Visualizando-to-Editando" style="stroke:#181818;stroke-width:1;"/><polygon fill="#181818" points="49.3328,242.3638,45.4142,233.328,45.6519,238.9799,40,239.2175,49.3328,242.3638" style="stroke:#181818;stroke-width:1;"/><text fill="#000000" font-family="sans-serif" font-size="13" lengthAdjust="spacing" textLength="79.5234" x="38.2728" y="220.6606">Editar Celda</text></g><!--link Editando to Visualizando--><g id="link_Editando_Visualizando"><path d="M110.3728,242.3738 C117.2228,231.9838 122.0928,219.5238 118.2728,207.5938 C116.3028,201.4538 116.3968,200.4389 112.7568,194.9689 " fill="transparent" id="Editando-to-Visualizando" style="stroke:#181818;stroke-width:1;"/><polygon fill="#181818" points="109.4328,189.9738,111.0887,199.6824,112.2028,194.1363,117.7489,195.2504,109.4328,189.9738" style="stroke:#181818;stroke-width:1;"/><text fill="#000000" font-family="sans-serif" font-size="13" lengthAdjust="spacing" textLength="130" x="120.2728" y="220.6606">Edici&#243;n Completada</text></g><ellipse cx="206.5" cy="483.2969" fill="#222222" rx="10" ry="10" style="stroke:#222222;stroke-width:1;"/><g id="InterfazUsuario.Inactivo"><rect fill="#F1F1F1" height="50" rx="12.5" ry="12.5" style="stroke:#181818;stroke-width:0.5;" width="75.5078" x="168.5" y="561.2969"/><line style="stroke:#181818;stroke-width:0.5;" x1="168.5" x2="244.0078" y1="587.5938" y2="587.5938"/><text fill="#000000" font-family="sans-serif" font-size="14" lengthAdjust="spacing" textLength="55.5078" x="178.5" y="579.292">Inactivo</text></g><g id="InterfazUsuario.Iniciando"><rect fill="#F1F1F1" height="50" rx="12.5" ry="12.5" style="stroke:#181818;stroke-width:0.5;" width="83.3828" x="68" y="664.2969"/><line style="stroke:#181818;stroke-width:0.5;" x1="68" x2="151.3828" y1="690.5938" y2="690.5938"/><text fill="#000000" font-family="sans-serif" font-size="14" lengthAdjust="spacing" textLength="63.3828" x="78" y="682.292">Iniciando</text></g><g id="InterfazUsuario.EsperandoComando"><rect fill="#F1F1F1" height="50" rx="12.5" ry="12.5" style="stroke:#181818;stroke-width:0.5;" width="161.1826" x="290" y="355.2969"/><line style="stroke:#181818;stroke-width:0.5;" x1="290" x2="451.1826" y1="381.5938" y2="381.5938"/><text fill="#000000" font-family="sans-serif" font-size="14" lengthAdjust="spacing" textLength="141.1826" x="300" y="373.292">EsperandoComando</text></g><g id="InterfazUsuario.ProcesandoComando"><rect fill="#F1F1F1" height="50" rx="12.5" ry="12.5" style="stroke:#181818;stroke-width:0.5;" width="168.1553" x="234.5" y="458.2969"/><line style="stroke:#181818;stroke-width:0.5;" x1="234.5" x2="402.6553" y1="484.5938" y2="484.5938"/><text fill="#000000" font-family="sans-serif" font-size="14" lengthAdjust="spacing" textLength="148.1553" x="244.5" y="476.292">ProcesandoComando</text></g><!--link *start*InterfazUsuario to Inactivo--><g id="link_*start*InterfazUsuario_Inactivo"><path d="M206.5,493.6169 C206.5,508.8569 206.5,533.5669 206.5,555.2369 " fill="transparent" id="*start*InterfazUsuario-to-Inactivo" style="stroke:#181818;stroke-width:1;"/><polygon fill="#181818" points="206.5,561.2369,210.5,552.2369,206.5,556.2369,202.5,552.2369,206.5,561.2369" style="stroke:#181818;stroke-width:1;"/></g><!--link Inactivo to Iniciando--><g id="link_Inactivo_Iniciando"><path d="M183.27,611.4869 C168.02,627.3669 152.3161,643.7194 137.0361,659.6294 " fill="transparent" id="Inactivo-to-Iniciando" style="stroke:#181818;stroke-width:1;"/><polygon fill="#181818" points="132.88,663.9569,141.9991,660.2364,136.3434,660.3507,136.2292,654.695,132.88,663.9569" style="stroke:#181818;stroke-width:1;"/><text fill="#000000" font-family="sans-serif" font-size="13" lengthAdjust="spacing" textLength="39.7554" x="164.5" y="642.3638">Iniciar</text></g><!--link Iniciando to MostrandoHoja--><g id="link_Iniciando_MostrandoHoja"><path d="M103.45,663.9769 C98.92,643.6269 93.5,613.7469 93.5,587.2969 C93.5,379.2969 93.5,379.2969 93.5,379.2969 C93.5,354.1869 95.6997,333.6475 100.5797,308.4375 " fill="transparent" id="Iniciando-to-MostrandoHoja" style="stroke:#181818;stroke-width:1;"/><polygon fill="#181818" points="101.72,302.5469,96.0825,310.6227,100.7698,307.4558,103.9367,312.143,101.72,302.5469" style="stroke:#181818;stroke-width:1;"/><text fill="#000000" font-family="sans-serif" font-size="13" lengthAdjust="spacing" textLength="83.1353" x="94.5" y="487.8638">Mostrar Hoja</text></g><!--link MostrandoHoja to EsperandoComando--><g id="link_MostrandoHoja_EsperandoComando"><path d="M260.07,281.5369 C291.36,309.2369 317.6564,332.521 338.7464,351.181 " fill="transparent" id="MostrandoHoja-to-EsperandoComando" style="stroke:#181818;stroke-width:1;"/><polygon fill="#181818" points="343.24,355.1569,339.1502,346.1973,339.4953,351.8437,333.849,352.1888,343.24,355.1569" style="stroke:#181818;stroke-width:1;"/><text fill="#000000" font-family="sans-serif" font-size="13" lengthAdjust="spacing" textLength="94.8213" x="321.5" y="333.3638">Leer Comando</text></g><!--link EsperandoComando to ProcesandoComando--><g id="link_EsperandoComando_ProcesandoComando"><path d="M358.04,405.4869 C349.87,421.3669 341.9661,436.7122 333.7761,452.6222 " fill="transparent" id="EsperandoComando-to-ProcesandoComando" style="stroke:#181818;stroke-width:1;"/><polygon fill="#181818" points="331.03,457.9569,338.7056,451.7856,333.3184,453.5113,331.5928,448.1241,331.03,457.9569" style="stroke:#181818;stroke-width:1;"/><text fill="#000000" font-family="sans-serif" font-size="13" lengthAdjust="spacing" textLength="122.605" x="348.5" y="436.3638">Procesar Comando</text></g><!--link ProcesandoComando to MostrandoHoja--><g id="link_ProcesandoComando_MostrandoHoja"><path d="M246.79,458.1869 C206.3,443.0069 161.44,423.0069 149.5,405.2969 C129.4,375.4869 122.3141,344.2549 121.3941,308.4549 " fill="transparent" id="ProcesandoComando-to-MostrandoHoja" style="stroke:#181818;stroke-width:1;"/><polygon fill="#181818" points="121.24,302.4569,117.4725,311.5567,121.3684,307.4552,125.4699,311.3511,121.24,302.4569" style="stroke:#181818;stroke-width:1;"/><text fill="#000000" font-family="sans-serif" font-size="13" lengthAdjust="spacing" textLength="130.7173" x="150.5" y="384.8638">Comando Ejecutado</text></g><!--link ProcesandoComando to Inactivo--><g id="link_ProcesandoComando_Inactivo"><path d="M291.67,508.4869 C274.07,524.3669 255.5844,541.0271 237.9544,556.9371 " fill="transparent" id="ProcesandoComando-to-Inactivo" style="stroke:#181818;stroke-width:1;"/><polygon fill="#181818" points="233.5,560.9569,242.8614,557.8968,237.212,557.6071,237.5017,551.9576,233.5,560.9569" style="stroke:#181818;stroke-width:1;"/><text fill="#000000" font-family="sans-serif" font-size="13" lengthAdjust="spacing" textLength="41.0757" x="269.5" y="539.3638">Cerrar</text></g><!--SRC=[VP4zZi8m48Nxd6AM4eaBR441GcAbHQ48D8XYv0pIe6oCneO2nAau0XV3VtW985n4dlVUvppPNpLjk2MeolcehAfoLXJ6eYNe_RIMP8F7XTcZiEu16dZIu5I0Mwl-6WQ3eNDHMJve26gUeiMAiQqrVAUzfD1TzwcPDbRyDDLRTCau2_WnnCCdzkjcOv77Cajs7Hi- -aWs7yMGcjHiKwsm5HXJKsC6ilzyP0GKNoyjZFNVhY6BYJl_L-sM33yqEmgAWz8vlqG2QGpKIyQ3Sz6AJ9TCMfT-3RwxshitsPBQk-gVsFoI3YDn3rASRm00]--></g></svg>