<svg xmlns="http://www.w3.org/2000/svg" xmlns:xlink="http://www.w3.org/1999/xlink" contentStyleType="text/css" data-diagram-type="STATE" height="894px" preserveAspectRatio="none" style="width:481px;height:894px;background:#FFFFFF;" version="1.1" viewBox="0 0 481 894" width="481px" zoomAndPan="magnify"><defs/><g><path d="M19.5,214 L354.9121,214 A12.5,12.5 0 0 1 367.4121,226.5 L367.4121,240.2969 L7,240.2969 L7,226.5 A12.5,12.5 0 0 1 19.5,214 " fill="#F1F1F1" style="stroke:#F1F1F1;stroke-width:1;"/><rect fill="transparent" height="257.2969" rx="12.5" ry="12.5" style="stroke:#181818;stroke-width:0.5;" width="360.4121" x="7" y="214"/><line style="stroke:#181818;stroke-width:0.5;" x1="7" x2="367.4121" y1="240.2969" y2="240.2969"/><text fill="#000000" font-family="sans-serif" font-size="14" lengthAdjust="spacing" textLength="79.7412" x="147.3354" y="231.9951">Navegando</text><ellipse cx="187" cy="261.2969" fill="#222222" rx="10" ry="10" style="stroke:#222222;stroke-width:1;"/><g id="Navegando.PosicionInicial"><rect fill="#F1F1F1" height="50" rx="12.5" ry="12.5" style="stroke:#181818;stroke-width:0.5;" width="118.1641" x="128" y="308.2969"/><line style="stroke:#181818;stroke-width:0.5;" x1="128" x2="246.1641" y1="334.5938" y2="334.5938"/><text fill="#000000" font-family="sans-serif" font-size="14" lengthAdjust="spacing" textLength="98.1641" x="138" y="326.292">PosicionInicial</text></g><g id="Navegando.Arriba"><rect fill="#F1F1F1" height="50" rx="12.5" ry="12.5" style="stroke:#181818;stroke-width:0.5;" width="62.4443" x="19" y="411.2969"/><line style="stroke:#181818;stroke-width:0.5;" x1="19" x2="81.4443" y1="437.5938" y2="437.5938"/><text fill="#000000" font-family="sans-serif" font-size="14" lengthAdjust="spacing" textLength="42.4443" x="29" y="429.292">Arriba</text></g><g id="Navegando.Izquierda"><rect fill="#F1F1F1" height="50" rx="12.5" ry="12.5" style="stroke:#181818;stroke-width:0.5;" width="84.9619" x="99.5" y="411.2969"/><line style="stroke:#181818;stroke-width:0.5;" x1="99.5" x2="184.4619" y1="437.5938" y2="437.5938"/><text fill="#000000" font-family="sans-serif" font-size="14" lengthAdjust="spacing" textLength="64.9619" x="109.5" y="429.292">Izquierda</text></g><g id="Navegando.Abajo"><rect fill="#F1F1F1" height="50" rx="12.5" ry="12.5" style="stroke:#181818;stroke-width:0.5;" width="59.498" x="202.5" y="411.2969"/><line style="stroke:#181818;stroke-width:0.5;" x1="202.5" x2="261.998" y1="437.5938" y2="437.5938"/><text fill="#000000" font-family="sans-serif" font-size="14" lengthAdjust="spacing" textLength="39.498" x="212.5" y="429.292">Abajo</text></g><g id="Navegando.Derecha"><rect fill="#F1F1F1" height="50" rx="12.5" ry="12.5" style="stroke:#181818;stroke-width:0.5;" width="78.9121" x="279.5" y="411.2969"/><line style="stroke:#181818;stroke-width:0.5;" x1="279.5" x2="358.4121" y1="437.5938" y2="437.5938"/><text fill="#000000" font-family="sans-serif" font-size="14" lengthAdjust="spacing" textLength="58.9121" x="289.5" y="429.292">Derecha</text></g><!--link *start*Navegando to PosicionInicial--><g id="link_*start*Navegando_PosicionInicial"><path d="M187,271.4469 C187,280.7169 187,289.4369 187,302.0769 " fill="transparent" id="*start*Navegando-to-PosicionInicial" style="stroke:#181818;stroke-width:1;"/><polygon fill="#181818" points="187,308.0769,191,299.0769,187,303.0769,183,299.0769,187,308.0769" style="stroke:#181818;stroke-width:1;"/></g><!--link PosicionInicial to Arriba--><g id="link_PosicionInicial_Arriba"><path d="M127.93,342.8269 C105.81,348.8069 82.16,358.9769 66,376.2969 C57.24,385.6869 54.1114,393.448 52.2714,405.288 " fill="transparent" id="PosicionInicial-to-Arriba" style="stroke:#181818;stroke-width:1;"/><polygon fill="#181818" points="51.35,411.2169,56.6846,402.9379,52.1178,406.2762,48.7795,401.7094,51.35,411.2169" style="stroke:#181818;stroke-width:1;"/><text fill="#000000" font-family="sans-serif" font-size="13" lengthAdjust="spacing" textLength="10.6323" x="67" y="389.3638">w</text></g><!--link PosicionInicial to Izquierda--><g id="link_PosicionInicial_Izquierda"><path d="M152.64,358.4669 C147.5,363.7169 142.95,369.7069 140,376.2969 C135.19,387.0569 134.3618,394.1025 135.7318,405.1525 " fill="transparent" id="PosicionInicial-to-Izquierda" style="stroke:#181818;stroke-width:1;"/><polygon fill="#181818" points="136.47,411.1069,139.3322,401.6831,135.8548,406.1449,131.393,402.6674,136.47,411.1069" style="stroke:#181818;stroke-width:1;"/><text fill="#000000" font-family="sans-serif" font-size="13" lengthAdjust="spacing" textLength="7.9663" x="141" y="389.3638">a</text></g><!--link PosicionInicial to Abajo--><g id="link_PosicionInicial_Abajo"><path d="M192.73,358.3969 C195.74,369.3069 199.87,382.2169 205,393.2969 C207.77,399.2769 208.0755,400.328 211.6355,405.988 " fill="transparent" id="PosicionInicial-to-Abajo" style="stroke:#181818;stroke-width:1;"/><polygon fill="#181818" points="214.83,411.0669,213.4242,401.3189,212.1679,406.8345,206.6523,405.5782,214.83,411.0669" style="stroke:#181818;stroke-width:1;"/><text fill="#000000" font-family="sans-serif" font-size="13" lengthAdjust="spacing" textLength="6.7729" x="206" y="389.3638">s</text></g><!--link PosicionInicial to Derecha--><g id="link_PosicionInicial_Derecha"><path d="M218.62,358.4869 C239.36,374.3669 261.636,391.3994 282.416,407.3094 " fill="transparent" id="PosicionInicial-to-Derecha" style="stroke:#181818;stroke-width:1;"/><polygon fill="#181818" points="287.18,410.9569,282.4657,402.3096,283.21,407.9173,277.6023,408.6616,287.18,410.9569" style="stroke:#181818;stroke-width:1;"/><text fill="#000000" font-family="sans-serif" font-size="13" lengthAdjust="spacing" textLength="8.252" x="262" y="389.3638">d</text></g><!--link Arriba to PosicionInicial--><g id="link_Arriba_PosicionInicial"><path d="M76.87,411.1169 C89.61,400.0669 105.23,387.0669 120,376.2969 C128.32,370.2269 132.445,367.3333 141.295,361.7133 " fill="transparent" id="Arriba-to-PosicionInicial" style="stroke:#181818;stroke-width:1;"/><polygon fill="#181818" points="146.36,358.4969,136.6182,359.9448,142.1391,361.1772,140.9067,366.6982,146.36,358.4969" style="stroke:#181818;stroke-width:1;"/><text fill="#000000" font-family="sans-serif" font-size="13" lengthAdjust="spacing" textLength="10.6323" x="121" y="389.3638">w</text></g><!--link Izquierda to PosicionInicial--><g id="link_Izquierda_PosicionInicial"><path d="M152.85,410.9569 C159.93,395.0469 166.7096,379.8482 173.7796,363.9682 " fill="transparent" id="Izquierda-to-PosicionInicial" style="stroke:#181818;stroke-width:1;"/><polygon fill="#181818" points="176.22,358.4869,168.9053,365.0819,174.1864,363.0546,176.2137,368.3357,176.22,358.4869" style="stroke:#181818;stroke-width:1;"/><text fill="#000000" font-family="sans-serif" font-size="13" lengthAdjust="spacing" textLength="7.9663" x="169" y="389.3638">a</text></g><!--link Abajo to PosicionInicial--><g id="link_Abajo_PosicionInicial"><path d="M225.04,411.0269 C221.61,400.1969 217.12,387.3969 212,376.2969 C209.3,370.4369 209.0329,369.5339 205.7229,363.8839 " fill="transparent" id="Abajo-to-PosicionInicial" style="stroke:#181818;stroke-width:1;"/><polygon fill="#181818" points="202.69,358.7069,203.788,368.4943,205.2174,363.0211,210.6907,364.4505,202.69,358.7069" style="stroke:#181818;stroke-width:1;"/><text fill="#000000" font-family="sans-serif" font-size="13" lengthAdjust="spacing" textLength="6.7729" x="220" y="389.3638">s</text></g><!--link Derecha to PosicionInicial--><g id="link_Derecha_PosicionInicial"><path d="M304.97,411.2769 C297.26,399.5969 286.85,386.0269 275,376.2969 C266.37,369.2069 261.651,365.7685 251.511,360.4385 " fill="transparent" id="Derecha-to-PosicionInicial" style="stroke:#181818;stroke-width:1;"/><polygon fill="#181818" points="246.2,357.6469,252.3054,365.375,250.6258,359.9733,256.0276,358.2937,246.2,357.6469" style="stroke:#181818;stroke-width:1;"/><text fill="#000000" font-family="sans-serif" font-size="13" lengthAdjust="spacing" textLength="8.252" x="291" y="389.3638">d</text></g><path d="M33,548 L320.9912,548 A12.5,12.5 0 0 1 333.4912,560.5 L333.4912,574.2969 L20.5,574.2969 L20.5,560.5 A12.5,12.5 0 0 1 33,548 " fill="#F1F1F1" style="stroke:#F1F1F1;stroke-width:1;"/><rect fill="transparent" height="257.2969" rx="12.5" ry="12.5" style="stroke:#181818;stroke-width:0.5;" width="312.9912" x="20.5" y="548"/><line style="stroke:#181818;stroke-width:0.5;" x1="20.5" x2="333.4912" y1="574.2969" y2="574.2969"/><text fill="#000000" font-family="sans-serif" font-size="14" lengthAdjust="spacing" textLength="62.0156" x="145.9878" y="565.9951">Editando</text><ellipse cx="117.5" cy="595.2969" fill="#222222" rx="10" ry="10" style="stroke:#222222;stroke-width:1;"/><g id="Editando.IngresandoContenido"><rect fill="#F1F1F1" height="50" rx="12.5" ry="12.5" style="stroke:#181818;stroke-width:0.5;" width="169.9873" x="32.5" y="642.2969"/><line style="stroke:#181818;stroke-width:0.5;" x1="32.5" x2="202.4873" y1="668.5938" y2="668.5938"/><text fill="#000000" font-family="sans-serif" font-size="14" lengthAdjust="spacing" textLength="149.9873" x="42.5" y="660.292">IngresandoContenido</text></g><g id="Editando.ContenidoLargo"><rect fill="#F1F1F1" height="50" rx="12.5" ry="12.5" style="stroke:#181818;stroke-width:0.5;" width="131.1182" x="52" y="745.2969"/><line style="stroke:#181818;stroke-width:0.5;" x1="52" x2="183.1182" y1="771.5938" y2="771.5938"/><text fill="#000000" font-family="sans-serif" font-size="14" lengthAdjust="spacing" textLength="111.1182" x="62" y="763.292">ContenidoLargo</text></g><!--link *start*Editando to IngresandoContenido--><g id="link_*start*Editando_IngresandoContenido"><path d="M117.5,605.4469 C117.5,614.7169 117.5,623.4369 117.5,636.0769 " fill="transparent" id="*start*Editando-to-IngresandoContenido" style="stroke:#181818;stroke-width:1;"/><polygon fill="#181818" points="117.5,642.0769,121.5,633.0769,117.5,637.0769,113.5,633.0769,117.5,642.0769" style="stroke:#181818;stroke-width:1;"/></g><!--link IngresandoContenido to ContenidoLargo--><g id="link_IngresandoContenido_ContenidoLargo"><path d="M62.48,692.3869 C56.11,697.3969 50.47,703.3269 46.5,710.2969 C38.72,723.9369 42.3723,732.3637 55.9323,741.7837 " fill="transparent" id="IngresandoContenido-to-ContenidoLargo" style="stroke:#181818;stroke-width:1;"/><polygon fill="#181818" points="60.86,745.2069,55.7506,736.787,56.7536,742.3542,51.1864,743.3572,60.86,745.2069" style="stroke:#181818;stroke-width:1;"/><text fill="#000000" font-family="sans-serif" font-size="13" lengthAdjust="spacing" textLength="119.9517" x="47.5" y="723.3638">ingresarContenido</text></g><!--link ContenidoLargo to IngresandoContenido--><g id="link_ContenidoLargo_IngresandoContenido"><path d="M155.38,745.2669 C166.11,735.2969 173.45,723.0769 167.5,710.2969 C164.44,703.7169 164.0591,702.0127 158.7991,696.8427 " fill="transparent" id="ContenidoLargo-to-IngresandoContenido" style="stroke:#181818;stroke-width:1;"/><polygon fill="#181818" points="154.52,692.6369,158.1347,701.7984,158.0859,696.1418,163.7426,696.093,154.52,692.6369" style="stroke:#181818;stroke-width:1;"/><text fill="#000000" font-family="sans-serif" font-size="13" lengthAdjust="spacing" textLength="152.9912" x="170.5" y="723.3638">mostrarContenidoCorto</text></g><ellipse cx="312" cy="16" fill="#222222" rx="10" ry="10" style="stroke:#222222;stroke-width:1;"/><g id="SinEdicion"><rect fill="#F1F1F1" height="50" rx="12.5" ry="12.5" style="stroke:#181818;stroke-width:0.5;" width="92.2969" x="266" y="87"/><line style="stroke:#181818;stroke-width:0.5;" x1="266" x2="358.2969" y1="113.2969" y2="113.2969"/><text fill="#000000" font-family="sans-serif" font-size="14" lengthAdjust="spacing" textLength="72.2969" x="276" y="104.9951">SinEdicion</text></g><g id="Finalizada"><rect fill="#F1F1F1" height="50" rx="12.5" ry="12.5" style="stroke:#181818;stroke-width:0.5;" width="90.5674" x="383.5" y="651.5"/><line style="stroke:#181818;stroke-width:0.5;" x1="383.5" x2="474.0674" y1="677.7969" y2="677.7969"/><text fill="#000000" font-family="sans-serif" font-size="14" lengthAdjust="spacing" textLength="70.5674" x="393.5" y="669.4951">Finalizada</text></g><ellipse cx="429" cy="877" fill="transparent" rx="11" ry="11" style="stroke:#222222;stroke-width:1;"/><ellipse cx="429" cy="877" fill="#222222" rx="6" ry="6" style="stroke:#222222;stroke-width:1;"/><!--link *start* to SinEdicion--><g id="link_*start*_SinEdicion"><path d="M312,26.01 C312,39.89 312,60.97 312,80.84 " fill="transparent" id="*start*-to-SinEdicion" style="stroke:#181818;stroke-width:1;"/><polygon fill="#181818" points="312,86.84,316,77.84,312,81.84,308,77.84,312,86.84" style="stroke:#181818;stroke-width:1;"/></g><!--link SinEdicion to Navegando--><g id="link_SinEdicion_Navegando"><path d="M298.86,137.02 C288.42,156.1 275.8185,179.1256 259.6885,208.6256 " fill="transparent" id="SinEdicion-to-Navegando" style="stroke:#181818;stroke-width:1;"/><polygon fill="#181818" points="256.81,213.89,264.6374,207.9123,259.2087,209.503,257.6181,204.0744,256.81,213.89" style="stroke:#181818;stroke-width:1;"/><text fill="#000000" font-family="sans-serif" font-size="13" lengthAdjust="spacing" textLength="46.7632" x="283" y="180.0669">w/a/s/d</text></g><!--link Navegando to Editando--><g id="link_Navegando_Editando"><path d="M172.06,471.06 C171.23,481.18 170.52,491.25 170,501 C169.19,516.14 168.9029,526.0203 169.0529,541.7803 " fill="transparent" id="Navegando-to-Editando" style="stroke:#181818;stroke-width:1;"/><polygon fill="#181818" points="169.11,547.78,173.0242,538.7423,169.0624,542.7802,165.0245,538.8185,169.11,547.78" style="stroke:#181818;stroke-width:1;"/><text fill="#000000" font-family="sans-serif" font-size="13" lengthAdjust="spacing" textLength="7.998" x="171" y="514.0669">e</text></g><!--link Editando to Navegando--><g id="link_Editando_Navegando"><path d="M180.84,547.95 C181.6,522.85 182.2086,502.4973 182.9686,477.3773 " fill="transparent" id="Editando-to-Navegando" style="stroke:#181818;stroke-width:1;"/><polygon fill="#181818" points="183.15,471.38,178.8797,480.2549,182.9988,476.3777,186.876,480.4968,183.15,471.38" style="stroke:#181818;stroke-width:1;"/><text fill="#000000" font-family="sans-serif" font-size="13" lengthAdjust="spacing" textLength="46.7632" x="183" y="514.0669">w/a/s/d</text></g><!--link Navegando to Finalizada--><g id="link_Navegando_Finalizada"><path d="M293.43,471.14 C313.15,496.19 333.14,522.59 351,548 C375.47,582.82 397.6236,620.1403 412.5236,646.2203 " fill="transparent" id="Navegando-to-Finalizada" style="stroke:#181818;stroke-width:1;"/><polygon fill="#181818" points="415.5,651.43,414.5085,641.6312,413.0197,647.0886,407.5623,645.5997,415.5,651.43" style="stroke:#181818;stroke-width:1;"/><text fill="#000000" font-family="sans-serif" font-size="13" lengthAdjust="spacing" textLength="8.252" x="327" y="514.0669">q</text></g><!--link SinEdicion to Finalizada--><g id="link_SinEdicion_Finalizada"><path d="M334.7,137.01 C351.41,156.24 373.05,184.76 384,214 C443.28,372.32 435.9792,575.4633 431.3092,645.5033 " fill="transparent" id="SinEdicion-to-Finalizada" style="stroke:#181818;stroke-width:1;"/><polygon fill="#181818" points="430.91,651.49,435.4999,642.7761,431.2426,646.5011,427.5176,642.2438,430.91,651.49" style="stroke:#181818;stroke-width:1;"/><text fill="#000000" font-family="sans-serif" font-size="13" lengthAdjust="spacing" textLength="8.252" x="433" y="347.0669">q</text></g><!--link Finalizada to *end*--><g id="link_Finalizada_*end*"><path d="M429,701.84 C429,745.53 429,829.51 429,859.8 " fill="transparent" id="Finalizada-to-*end*" style="stroke:#181818;stroke-width:1;"/><polygon fill="#181818" points="429,865.8,433,856.8,429,860.8,425,856.8,429,865.8" style="stroke:#181818;stroke-width:1;"/></g><!--SRC=[TP9D2y8m38Rl_egU1TdTWo1-m414y2WUeYqpeYrBguBYVxTfvpRdUYfDdkHzatOtt8lHQ2Asg1SIZsZqO21Qjv1SmrqLeAKHO_788BEPPCewSAgLVFcO4BkguyROq27N_e1Bo7LYWPiIuG6uSnB9d-KD5Kcc8Dte06TsQ9F4N94wdhYB34mbtUEsjjD8zrFHJfJk9wAThtG_mtRUlD9ccGpwDt3LsbMpy3hwk-zS5wGi9sP6EwLHcZZ1VppmzMq5LB04Hf1-opjOGicNNurrrAgU6NAXnNUssdVgItN7NwA62puXl7lv_oqxUG-q8WpurNm0]--></g></svg>