<svg xmlns="http://www.w3.org/2000/svg" xmlns:xlink="http://www.w3.org/1999/xlink" contentStyleType="text/css" data-diagram-type="CLASS" height="251px" preserveAspectRatio="none" style="width:513px;height:251px;background:#FFFFFF;" version="1.1" viewBox="0 0 513 251" width="513px" zoomAndPan="magnify"><defs/><g><!--class ComponenteHoja--><g id="elem_ComponenteHoja"><rect codeLine="1" fill="#F1F1F1" height="96.8906" id="ComponenteHoja" rx="2.5" ry="2.5" style="stroke:#181818;stroke-width:0.5;" width="153.4541" x="200.5" y="7"/><ellipse cx="215.5" cy="23" fill="#A9DCDF" rx="11" ry="11" style="stroke:#181818;stroke-width:1;"/><path d="M215.6094,18.3438 L214.4531,23.4219 L216.7813,23.4219 L215.6094,18.3438 Z M214.125,16.1094 L217.1094,16.1094 L220.4688,28.5 L218.0156,28.5 L217.25,25.4375 L213.9688,25.4375 L213.2188,28.5 L210.7813,28.5 L214.125,16.1094 Z " fill="#000000"/><text fill="#000000" font-family="sans-serif" font-size="14" font-style="italic" lengthAdjust="spacing" textLength="121.4541" x="229.5" y="27.8467">ComponenteHoja</text><line style="stroke:#181818;stroke-width:0.5;" x1="201.5" x2="352.9541" y1="39" y2="39"/><text fill="#000000" font-family="sans-serif" font-size="14" lengthAdjust="spacing" text-decoration="underline" textLength="76.8906" x="206.5" y="55.9951">FILAS = 15</text><text fill="#000000" font-family="sans-serif" font-size="14" lengthAdjust="spacing" text-decoration="underline" textLength="118.3027" x="206.5" y="72.292">COLUMNAS = 10</text><line style="stroke:#181818;stroke-width:0.5;" x1="201.5" x2="352.9541" y1="79.5938" y2="79.5938"/><text fill="#000000" font-family="sans-serif" font-size="14" font-style="italic" lengthAdjust="spacing" textLength="79.6045" x="206.5" y="96.5889">actualizar()</text></g><!--class Celda--><g id="elem_Celda"><rect codeLine="7" fill="#F1F1F1" height="80.5938" id="Celda" rx="2.5" ry="2.5" style="stroke:#181818;stroke-width:0.5;" width="163.5322" x="7" y="164"/><ellipse cx="64.644" cy="180" fill="#ADD1B2" rx="11" ry="11" style="stroke:#181818;stroke-width:1;"/><path d="M67.6128,185.6406 Q67.0347,185.9375 66.394,186.0781 Q65.7534,186.2344 65.0503,186.2344 Q62.5503,186.2344 61.2222,184.5938 Q59.9097,182.9375 59.9097,179.8125 Q59.9097,176.6875 61.2222,175.0313 Q62.5503,173.375 65.0503,173.375 Q65.7534,173.375 66.394,173.5313 Q67.0503,173.6875 67.6128,173.9844 L67.6128,176.7031 Q66.9878,176.125 66.394,175.8594 Q65.8003,175.5781 65.1753,175.5781 Q63.8315,175.5781 63.144,176.6563 Q62.4565,177.7188 62.4565,179.8125 Q62.4565,181.9063 63.144,182.9844 Q63.8315,184.0469 65.1753,184.0469 Q65.8003,184.0469 66.394,183.7813 Q66.9878,183.5 67.6128,182.9219 L67.6128,185.6406 Z " fill="#000000"/><text fill="#000000" font-family="sans-serif" font-size="14" lengthAdjust="spacing" textLength="39.7441" x="85.144" y="184.8467">Celda</text><line style="stroke:#181818;stroke-width:0.5;" x1="8" x2="169.5322" y1="196" y2="196"/><rect fill="transparent" height="6" style="stroke:#C82930;stroke-width:1;" width="6" x="15" y="206.6484"/><text fill="#000000" font-family="sans-serif" font-size="14" lengthAdjust="spacing" textLength="120.4014" x="27" y="212.9951">contenido: String</text><line style="stroke:#181818;stroke-width:0.5;" x1="8" x2="169.5322" y1="220.2969" y2="220.2969"/><ellipse cx="18" cy="233.9453" fill="#84BE84" rx="3" ry="3" style="stroke:#038048;stroke-width:1;"/><text fill="#000000" font-family="sans-serif" font-size="14" lengthAdjust="spacing" textLength="137.5322" x="27" y="237.292">mostrarContenido()</text></g><!--class Matriz--><g id="elem_Matriz"><rect codeLine="12" fill="#F1F1F1" height="80.5938" id="Matriz" rx="2.5" ry="2.5" style="stroke:#181818;stroke-width:0.5;" width="141.7188" x="206" y="164"/><ellipse cx="251.0386" cy="180" fill="#ADD1B2" rx="11" ry="11" style="stroke:#181818;stroke-width:1;"/><path d="M254.0073,185.6406 Q253.4292,185.9375 252.7886,186.0781 Q252.1479,186.2344 251.4448,186.2344 Q248.9448,186.2344 247.6167,184.5938 Q246.3042,182.9375 246.3042,179.8125 Q246.3042,176.6875 247.6167,175.0313 Q248.9448,173.375 251.4448,173.375 Q252.1479,173.375 252.7886,173.5313 Q253.4448,173.6875 254.0073,173.9844 L254.0073,176.7031 Q253.3823,176.125 252.7886,175.8594 Q252.1948,175.5781 251.5698,175.5781 Q250.2261,175.5781 249.5386,176.6563 Q248.8511,177.7188 248.8511,179.8125 Q248.8511,181.9063 249.5386,182.9844 Q250.2261,184.0469 251.5698,184.0469 Q252.1948,184.0469 252.7886,183.7813 Q253.3823,183.5 254.0073,182.9219 L254.0073,185.6406 Z " fill="#000000"/><text fill="#000000" font-family="sans-serif" font-size="14" lengthAdjust="spacing" textLength="43.1416" x="271.5386" y="184.8467">Matriz</text><line style="stroke:#181818;stroke-width:0.5;" x1="207" x2="346.7188" y1="196" y2="196"/><rect fill="transparent" height="6" style="stroke:#C82930;stroke-width:1;" width="6" x="214" y="206.6484"/><text fill="#000000" font-family="sans-serif" font-size="14" lengthAdjust="spacing" textLength="115.7188" x="226" y="212.9951">celdas: Celda[][]</text><line style="stroke:#181818;stroke-width:0.5;" x1="207" x2="346.7188" y1="220.2969" y2="220.2969"/><ellipse cx="217" cy="233.9453" fill="#84BE84" rx="3" ry="3" style="stroke:#038048;stroke-width:1;"/><text fill="#000000" font-family="sans-serif" font-size="14" lengthAdjust="spacing" textLength="105.4648" x="226" y="237.292">obtenerCelda()</text></g><!--class HojaCalculo--><g id="elem_HojaCalculo"><rect codeLine="17" fill="#F1F1F1" height="80.5938" id="HojaCalculo" rx="2.5" ry="2.5" style="stroke:#181818;stroke-width:0.5;" width="123.0088" x="383.5" y="164"/><ellipse cx="402.18" cy="180" fill="#ADD1B2" rx="11" ry="11" style="stroke:#181818;stroke-width:1;"/><path d="M405.1487,185.6406 Q404.5706,185.9375 403.93,186.0781 Q403.2894,186.2344 402.5862,186.2344 Q400.0862,186.2344 398.7581,184.5938 Q397.4456,182.9375 397.4456,179.8125 Q397.4456,176.6875 398.7581,175.0313 Q400.0862,173.375 402.5862,173.375 Q403.2894,173.375 403.93,173.5313 Q404.5862,173.6875 405.1487,173.9844 L405.1487,176.7031 Q404.5237,176.125 403.93,175.8594 Q403.3362,175.5781 402.7112,175.5781 Q401.3675,175.5781 400.68,176.6563 Q399.9925,177.7188 399.9925,179.8125 Q399.9925,181.9063 400.68,182.9844 Q401.3675,184.0469 402.7112,184.0469 Q403.3362,184.0469 403.93,183.7813 Q404.5237,183.5 405.1487,182.9219 L405.1487,185.6406 Z " fill="#000000"/><text fill="#000000" font-family="sans-serif" font-size="14" lengthAdjust="spacing" textLength="82.8311" x="416.9978" y="184.8467">HojaCalculo</text><line style="stroke:#181818;stroke-width:0.5;" x1="384.5" x2="505.5088" y1="196" y2="196"/><rect fill="transparent" height="6" style="stroke:#C82930;stroke-width:1;" width="6" x="391.5" y="206.6484"/><text fill="#000000" font-family="sans-serif" font-size="14" lengthAdjust="spacing" textLength="97.0088" x="403.5" y="212.9951">matriz: Matriz</text><line style="stroke:#181818;stroke-width:0.5;" x1="384.5" x2="505.5088" y1="220.2969" y2="220.2969"/><ellipse cx="394.5" cy="233.9453" fill="#84BE84" rx="3" ry="3" style="stroke:#038048;stroke-width:1;"/><text fill="#000000" font-family="sans-serif" font-size="14" lengthAdjust="spacing" textLength="68.4346" x="403.5" y="237.292">ejecutar()</text></g><!--reverse link ComponenteHoja to Celda--><g id="link_ComponenteHoja_Celda"><path codeLine="22" d="M202.043,115.1111 C177.373,134.4111 163.37,145.35 139.81,163.77 " fill="transparent" id="ComponenteHoja-backto-Celda" style="stroke:#181818;stroke-width:1;"/><polygon fill="transparent" points="216.22,104.02,198.3459,110.3854,205.74,119.8367,216.22,104.02" style="stroke:#181818;stroke-width:1;"/></g><!--reverse link ComponenteHoja to Matriz--><g id="link_ComponenteHoja_Matriz"><path codeLine="23" d="M277,122.23 C277,141.51 277,145.5 277,163.88 " fill="transparent" id="ComponenteHoja-backto-Matriz" style="stroke:#181818;stroke-width:1;"/><polygon fill="transparent" points="277,104.23,271,122.23,283,122.23,277,104.23" style="stroke:#181818;stroke-width:1;"/></g><!--reverse link ComponenteHoja to HojaCalculo--><g id="link_ComponenteHoja_HojaCalculo"><path codeLine="24" d="M345.0879,116.0813 C367.1279,135.3613 378.71,145.5 399.71,163.88 " fill="transparent" id="ComponenteHoja-backto-HojaCalculo" style="stroke:#181818;stroke-width:1;"/><polygon fill="transparent" points="331.54,104.23,341.1375,120.5973,349.0384,111.5654,331.54,104.23" style="stroke:#181818;stroke-width:1;"/></g><!--SRC=[RP0n3u8m48LtViMD6aEYWmlHmJGnce0En8am7AKna49DMnQG_swXnQ2XmmtltVjUMyoKbaWrK8vA0H7LIzIirkmYIeJE0tCwfL4Nj8VpDJp5S8JT_bSdz_0HtQorjHOwRWzcDCYB5kLgxVMUvueOpoU-JuKfh8jS111hMTJFKTvKOc18ChdpV8HciVq21feAB3L9azG2H6Q2J8xgF3oyZI2d3HSJeHfvWUFQE2iPRVHqxx-lERnzt_OjEewpPCtQFm00]--></g></svg>