<svg xmlns="http://www.w3.org/2000/svg" xmlns:xlink="http://www.w3.org/1999/xlink" contentStyleType="text/css" data-diagram-type="STATE" height="926px" preserveAspectRatio="none" style="width:1003px;height:926px;background:#FFFFFF;" version="1.1" viewBox="0 0 1003 926" width="1003px" zoomAndPan="magnify"><defs/><g><path d="M19.5,7 L977.8755,7 A12.5,12.5 0 0 1 990.3755,19.5 L990.3755,33.2969 L7,33.2969 L7,19.5 A12.5,12.5 0 0 1 19.5,7 " fill="#F1F1F1" style="stroke:#F1F1F1;stroke-width:1;"/><rect fill="transparent" height="913.2969" rx="12.5" ry="12.5" style="stroke:#181818;stroke-width:0.5;" width="983.3755" x="7" y="7"/><line style="stroke:#181818;stroke-width:0.5;" x1="7" x2="990.3755" y1="33.2969" y2="33.2969"/><text fill="#000000" font-family="sans-serif" font-size="14" lengthAdjust="spacing" textLength="43.1416" x="477.1169" y="24.9951">Matriz</text><!--cluster Libre--><g id="cluster_Libre"><path d="M31.5,210.2969 L194.5,210.2969 A12.5,12.5 0 0 1 207,222.7969 L207,231.5938 L19,231.5938 L19,222.7969 A12.5,12.5 0 0 1 31.5,210.2969 " fill="#F1F1F1" style="stroke:#F1F1F1;stroke-width:1;"/><rect fill="transparent" height="174" rx="12.5" ry="12.5" style="stroke:#181818;stroke-width:0.5;" width="188" x="19" y="210.2969"/><line style="stroke:#181818;stroke-width:0.5;" x1="19" x2="207" y1="231.5938" y2="231.5938"/><text fill="#000000" font-family="sans-serif" font-size="14" lengthAdjust="spacing" textLength="34.9453" x="95.5273" y="227.292">Libre</text></g><!--cluster EnProceso--><g id="cluster_EnProceso"><path d="M168.5,449.2969 L748.5,449.2969 A12.5,12.5 0 0 1 761,461.7969 L761,470.5938 L156,470.5938 L156,461.7969 A12.5,12.5 0 0 1 168.5,449.2969 " fill="#F1F1F1" style="stroke:#F1F1F1;stroke-width:1;"/><rect fill="transparent" height="380" rx="12.5" ry="12.5" style="stroke:#181818;stroke-width:0.5;" width="605" x="156" y="449.2969"/><line style="stroke:#181818;stroke-width:0.5;" x1="156" x2="761" y1="470.5938" y2="470.5938"/><text fill="#000000" font-family="sans-serif" font-size="14" lengthAdjust="spacing" textLength="72.6523" x="422.1738" y="466.292">EnProceso</text></g><ellipse cx="109" cy="263.2969" fill="#222222" rx="10" ry="10" style="stroke:#222222;stroke-width:1;"/><g id="Matriz.Libre.CargaVerificada"><rect fill="#F1F1F1" height="50" rx="12.5" ry="12.5" style="stroke:#181818;stroke-width:0.5;" width="131.9727" x="43" y="310.2969"/><line style="stroke:#181818;stroke-width:0.5;" x1="43" x2="174.9727" y1="336.5938" y2="336.5938"/><text fill="#000000" font-family="sans-serif" font-size="14" lengthAdjust="spacing" textLength="111.9727" x="53" y="328.292">CargaVerificada</text></g><ellipse cx="466" cy="502.2969" fill="#222222" rx="10" ry="10" style="stroke:#222222;stroke-width:1;"/><g id="Matriz.EnProceso.Modificando"><rect fill="#F1F1F1" height="50" rx="12.5" ry="12.5" style="stroke:#181818;stroke-width:0.5;" width="104.8408" x="413.5" y="549.2969"/><line style="stroke:#181818;stroke-width:0.5;" x1="413.5" x2="518.3408" y1="575.5938" y2="575.5938"/><text fill="#000000" font-family="sans-serif" font-size="14" lengthAdjust="spacing" textLength="84.8408" x="423.5" y="567.292">Modificando</text></g><g id="Matriz.EnProceso.Modificado"><rect fill="#F1F1F1" height="50" rx="12.5" ry="12.5" style="stroke:#181818;stroke-width:0.5;" width="95.9678" x="418" y="652.2969"/><line style="stroke:#181818;stroke-width:0.5;" x1="418" x2="513.9678" y1="678.5938" y2="678.5938"/><text fill="#000000" font-family="sans-serif" font-size="14" lengthAdjust="spacing" textLength="75.9678" x="428" y="670.292">Modificado</text></g><g id="Matriz.EnProceso.Buscando"><rect fill="#F1F1F1" height="50" rx="12.5" ry="12.5" style="stroke:#181818;stroke-width:0.5;" width="88.373" x="228" y="755.2969"/><line style="stroke:#181818;stroke-width:0.5;" x1="228" x2="316.373" y1="781.5938" y2="781.5938"/><text fill="#000000" font-family="sans-serif" font-size="14" lengthAdjust="spacing" textLength="68.373" x="238" y="773.292">Buscando</text></g><g id="Matriz.EnProceso.Eliminando"><rect fill="#F1F1F1" height="50" rx="12.5" ry="12.5" style="stroke:#181818;stroke-width:0.5;" width="97.9297" x="474" y="755.2969"/><line style="stroke:#181818;stroke-width:0.5;" x1="474" x2="571.9297" y1="781.5938" y2="781.5938"/><text fill="#000000" font-family="sans-serif" font-size="14" lengthAdjust="spacing" textLength="77.9297" x="484" y="773.292">Eliminando</text></g><ellipse cx="199" cy="54.2969" fill="#222222" rx="10" ry="10" style="stroke:#222222;stroke-width:1;"/><g id="Matriz.Inactivo"><rect fill="#F1F1F1" height="50" rx="12.5" ry="12.5" style="stroke:#181818;stroke-width:0.5;" width="75.5078" x="161" y="101.2969"/><line style="stroke:#181818;stroke-width:0.5;" x1="161" x2="236.5078" y1="127.5938" y2="127.5938"/><text fill="#000000" font-family="sans-serif" font-size="14" lengthAdjust="spacing" textLength="55.5078" x="171" y="119.292">Inactivo</text></g><g id="Matriz.Lleno"><rect fill="#F1F1F1" height="50" rx="12.5" ry="12.5" style="stroke:#181818;stroke-width:0.5;" width="57.7412" x="785" y="755.2969"/><line style="stroke:#181818;stroke-width:0.5;" x1="785" x2="842.7412" y1="781.5938" y2="781.5938"/><text fill="#000000" font-family="sans-serif" font-size="14" lengthAdjust="spacing" textLength="37.7412" x="795" y="773.292">Lleno</text></g><ellipse cx="814" cy="899.2969" fill="transparent" rx="11" ry="11" style="stroke:#222222;stroke-width:1;"/><ellipse cx="814" cy="899.2969" fill="#222222" rx="6" ry="6" style="stroke:#222222;stroke-width:1;"/><!--link *start*Matriz to Inactivo--><g id="link_*start*Matriz_Inactivo"><path d="M199,64.4469 C199,73.7169 199,82.4369 199,95.0769 " fill="transparent" id="*start*Matriz-to-Inactivo" style="stroke:#181818;stroke-width:1;"/><polygon fill="#181818" points="199,101.0769,203,92.0769,199,96.0769,195,92.0769,199,101.0769" style="stroke:#181818;stroke-width:1;"/></g><!--link *start*Libre to CargaVerificada--><g id="link_*start*Libre_CargaVerificada"><path d="M109,273.4469 C109,282.7169 109,291.4369 109,304.0769 " fill="transparent" id="*start*Libre-to-CargaVerificada" style="stroke:#181818;stroke-width:1;"/><polygon fill="#181818" points="109,310.0769,113,301.0769,109,305.0769,105,301.0769,109,310.0769" style="stroke:#181818;stroke-width:1;"/></g><!--link *start*EnProceso to Modificando--><g id="link_*start*EnProceso_Modificando"><path d="M466,512.4469 C466,521.7169 466,530.4369 466,543.0769 " fill="transparent" id="*start*EnProceso-to-Modificando" style="stroke:#181818;stroke-width:1;"/><polygon fill="#181818" points="466,549.0769,470,540.0769,466,544.0769,462,540.0769,466,549.0769" style="stroke:#181818;stroke-width:1;"/></g><!--link Modificando to Modificado--><g id="link_Modificando_Modificado"><path d="M466,599.4869 C466,615.3669 466,630.0469 466,645.9569 " fill="transparent" id="Modificando-to-Modificado" style="stroke:#181818;stroke-width:1;"/><polygon fill="#181818" points="466,651.9569,470,642.9569,466,646.9569,462,642.9569,466,651.9569" style="stroke:#181818;stroke-width:1;"/><text fill="#000000" font-family="sans-serif" font-size="13" lengthAdjust="spacing" textLength="162.3286" x="467" y="630.3638">Modificaci&#243;n completada</text></g><!--link Modificado to Buscando--><g id="link_Modificado_Buscando"><path d="M417.82,678.9569 C350.5,681.0169 233.53,689.1169 207,720.2969 C194.85,734.5769 204.2168,745.6905 222.5968,756.5705 " fill="transparent" id="Modificado-to-Buscando" style="stroke:#181818;stroke-width:1;"/><polygon fill="#181818" points="227.76,759.6269,222.0528,751.6002,223.4573,757.0799,217.9776,758.4845,227.76,759.6269" style="stroke:#181818;stroke-width:1;"/><text fill="#000000" font-family="sans-serif" font-size="13" lengthAdjust="spacing" textLength="80.6279" x="208" y="733.3638">buscarCelda</text></g><!--link Buscando to Modificado--><g id="link_Buscando_Modificado"><path d="M289.1,755.1269 C298.72,743.1269 311.65,729.3069 326,720.2969 C353.94,702.7569 383.7465,693.4793 412.0865,687.3293 " fill="transparent" id="Buscando-to-Modificado" style="stroke:#181818;stroke-width:1;"/><polygon fill="#181818" points="417.95,686.0569,408.3064,684.0565,413.0637,687.1172,410.003,691.8745,417.95,686.0569" style="stroke:#181818;stroke-width:1;"/><text fill="#000000" font-family="sans-serif" font-size="13" lengthAdjust="spacing" textLength="130.73" x="327" y="733.3638">b&#250;squeda finalizada</text></g><!--link Modificado to Eliminando--><g id="link_Modificado_Eliminando"><path d="M461.72,702.4369 C460.88,713.6069 461.6,726.7169 467,737.2969 C470.43,744.0069 471.0237,745.9092 476.7137,751.0392 " fill="transparent" id="Modificado-to-Eliminando" style="stroke:#181818;stroke-width:1;"/><polygon fill="#181818" points="481.17,755.0569,477.1641,746.0595,477.4565,751.7088,471.8072,752.0012,481.17,755.0569" style="stroke:#181818;stroke-width:1;"/><text fill="#000000" font-family="sans-serif" font-size="13" lengthAdjust="spacing" textLength="89.9526" x="468" y="733.3638">eliminarCelda</text></g><!--link Eliminando to Modificado--><g id="link_Eliminando_Modificado"><path d="M550.37,755.2369 C559.31,744.4369 565.28,731.6169 558,720.2969 C548.13,704.9369 536.7125,697.2215 519.9625,690.9815 " fill="transparent" id="Eliminando-to-Modificado" style="stroke:#181818;stroke-width:1;"/><polygon fill="#181818" points="514.34,688.8869,521.3774,695.7771,519.0254,690.6324,524.1702,688.2804,514.34,688.8869" style="stroke:#181818;stroke-width:1;"/><text fill="#000000" font-family="sans-serif" font-size="13" lengthAdjust="spacing" textLength="155.6953" x="562" y="733.3638">eliminaci&#243;n completada</text></g><!--link Inactivo to Libre--><g id="link_Inactivo_Libre"><path d="M199,151.4369 C199,160.9919 199,172.5581 199,184.567 C199,190.5715 199,196.6866 199,202.7163 C199,204.2237 199,205.7258 199,207.2195 C199,207.9664 199,208.7111 199,209.4534 C199,209.6389 199,203.8243 199,204.0096 " fill="transparent" id="Inactivo-to-Libre" style="stroke:#181818;stroke-width:1;"/><polygon fill="#181818" points="199,210.0096,203,201.0096,199,205.0096,195,201.0096,199,210.0096" style="stroke:#181818;stroke-width:1;"/><text fill="#000000" font-family="sans-serif" font-size="13" lengthAdjust="spacing" textLength="61.5469" x="200" y="182.3638">inicializar</text></g><!--link CargaVerificada to EnProceso--><g id="link_CargaVerificada_EnProceso"><path d="M107.8,360.3369 C107.63,378.6069 108.96,404.1169 116,425.2969 C122.105,443.6619 133.5575,462.0669 143.745,476.1644 C146.2919,479.6888 148.7597,482.9439 151.0451,485.8619 C152.1878,487.3209 153.285,488.6956 154.3236,489.9776 C154.8429,490.6185 151.5349,486.6034 152.0233,487.1969 " fill="transparent" id="CargaVerificada-to-EnProceso" style="stroke:#181818;stroke-width:1;"/><polygon fill="#181818" points="155.836,491.8298,153.2056,482.3387,152.6588,487.9691,147.0284,487.4222,155.836,491.8298" style="stroke:#181818;stroke-width:1;"/><text fill="#000000" font-family="sans-serif" font-size="13" lengthAdjust="spacing" textLength="85.2046" x="117" y="421.3638">No est&#225; llena</text></g><!--link EnProceso to Libre--><g id="link_EnProceso_Libre"><path d="M166.886,449.2095 C166.9252,449.0994 166.9647,448.9894 167.0045,448.8795 C167.1637,448.4401 167.3279,448.0028 167.4971,447.5677 C168.174,445.8275 168.9319,444.1239 169.7791,442.4717 C171.4734,439.1675 173.525,436.0694 176,433.2969 C184.33,423.9569 195.51,435.3269 203,425.2969 C224.08,397.0669 223.44,357.6244 217.3538,324.8456 C215.8322,316.6509 213.9702,308.8727 212.0222,301.7903 C211.0481,298.2491 210.0526,294.8819 209.0673,291.7235 C208.5746,290.1443 208.0845,288.6173 207.601,287.1469 C207.4801,286.7793 207.3596,286.4153 207.2396,286.0548 C207.1796,285.8746 209.0254,291.3846 208.9656,291.2062 " fill="transparent" id="EnProceso-to-Libre" style="stroke:#181818;stroke-width:1;"/><polygon fill="#181818" points="207.0599,285.5168,206.1255,295.3213,208.648,290.2579,213.7113,292.7804,207.0599,285.5168" style="stroke:#181818;stroke-width:1;"/><text fill="#000000" font-family="sans-serif" font-size="13" lengthAdjust="spacing" textLength="158.9897" x="223" y="339.8638">Cancelar modificaciones</text></g><!--link Modificado to Lleno--><g id="link_Modificado_Lleno"><path d="M514.22,680.3869 C566.85,683.9769 652.83,693.7569 722,720.2969 C744.5,728.9269 762.4599,739.9984 779.7399,752.5084 " fill="transparent" id="Modificado-to-Lleno" style="stroke:#181818;stroke-width:1;"/><polygon fill="#181818" points="784.6,756.0269,779.6556,747.5091,780.5499,753.0948,774.9642,753.9892,784.6,756.0269" style="stroke:#181818;stroke-width:1;"/><text fill="#000000" font-family="sans-serif" font-size="13" lengthAdjust="spacing" textLength="135.5098" x="755" y="733.3638">Asignaci&#243;n completa</text></g><!--link Lleno to *end*Matriz--><g id="link_Lleno_*end*Matriz"><path d="M814,805.5369 C814,830.9769 814,863.7469 814,882.0469 " fill="transparent" id="Lleno-to-*end*Matriz" style="stroke:#181818;stroke-width:1;"/><polygon fill="#181818" points="814,888.0469,818,879.0469,814,883.0469,810,879.0469,814,888.0469" style="stroke:#181818;stroke-width:1;"/><text fill="#000000" font-family="sans-serif" font-size="13" lengthAdjust="spacing" textLength="165.3755" x="815" y="866.3638">Carga m&#225;xima alcanzada</text></g><!--SRC=[VL6zJiCm4Dxx5AUEI7q13qWGTK1g4HDBnN1nhjL9Zbrijq95VPW-0njhNWp7Jer98p94Fj_tS-VFUVG4ypLwowSve8DqXCyPX6zpzmQBnJqyQPIUZoPUnf-Bn1NNbWPiYQ_Gxl2LB6zPOeEnVnwJb_h56adEJ0YiJHEvkZ6vLzpzmOHIv49ozwL1cdQlo5-jI_P0VZouf2IWxe-s8bMWS_l6gEw-tVk16eGjQrHy-iTagRWDe6H3gHWP5P0Rgu4nkLBncjTmea1AH01hbXp7in4qIYIDbmCGy6o0dEyke1JfPF7RBeKhr98KMcZpYnjDRZQn_Yf8zTeFZdVZDI8-0Nfedxj8GqBRNJwuHK0L8eZFU_u1]--></g></svg>