<svg xmlns="http://www.w3.org/2000/svg" xmlns:xlink="http://www.w3.org/1999/xlink" contentStyleType="text/css" data-diagram-type="CLASS" height="400px" preserveAspectRatio="none" style="width:496px;height:400px;background:#FFFFFF;" version="1.1" viewBox="0 0 496 400" width="496px" zoomAndPan="magnify"><defs/><g><!--cluster Hoja de C?lculo--><g class="cluster" data-entity="Hoja de C&#225;lculo" data-source-line="4" data-uid="ent0002" id="cluster_Hoja de C&#225;lculo"><path d="M8.5,6 L131.5488,6 A3.75,3.75 0 0 1 134.0488,8.5 L141.0488,28.2969 L486.5,28.2969 A2.5,2.5 0 0 1 489,30.7969 L489,390.69 A2.5,2.5 0 0 1 486.5,393.19 L8.5,393.19 A2.5,2.5 0 0 1 6,390.69 L6,8.5 A2.5,2.5 0 0 1 8.5,6 " fill="none" style="stroke:#000000;stroke-width:1.5;"/><line style="stroke:#000000;stroke-width:1.5;" x1="6" x2="141.0488" y1="28.2969" y2="28.2969"/><text fill="#000000" font-family="sans-serif" font-size="14" font-weight="bold" lengthAdjust="spacing" textLength="122.0488" x="10" y="20.9951">Hoja de C&#225;lculo</text></g><!--class ComponenteHoja--><g class="entity" data-entity="ComponenteHoja" data-source-line="5" data-uid="ent0003" id="entity_ComponenteHoja"><rect fill="#F1F1F1" height="26.2969" rx="2.5" ry="2.5" style="stroke:#181818;stroke-width:0.5;" width="127.4541" x="301.27" y="41"/><text fill="#000000" font-family="sans-serif" font-size="14" font-style="italic" lengthAdjust="spacing" textLength="121.4541" x="304.27" y="58.9951">ComponenteHoja</text></g><!--class Matriz--><g class="entity" data-entity="Matriz" data-source-line="6" data-uid="ent0004" id="entity_Matriz"><rect fill="#F1F1F1" height="26.2969" rx="2.5" ry="2.5" style="stroke:#181818;stroke-width:0.5;" width="49.1416" x="340.43" y="144.3"/><text fill="#000000" font-family="sans-serif" font-size="14" lengthAdjust="spacing" textLength="43.1416" x="343.43" y="162.2951">Matriz</text></g><!--class Celda--><g class="entity" data-entity="Celda" data-source-line="7" data-uid="ent0005" id="entity_Celda"><rect fill="#F1F1F1" height="26.2969" rx="2.5" ry="2.5" style="stroke:#181818;stroke-width:0.5;" width="45.7441" x="256.13" y="350.89"/><text fill="#000000" font-family="sans-serif" font-size="14" lengthAdjust="spacing" textLength="39.7441" x="259.13" y="368.8851">Celda</text></g><!--class Posicion--><g class="entity" data-entity="Posicion" data-source-line="8" data-uid="ent0006" id="entity_Posicion"><rect fill="#F1F1F1" height="26.2969" rx="2.5" ry="2.5" style="stroke:#181818;stroke-width:0.5;" width="63.2168" x="22.39" y="247.6"/><text fill="#000000" font-family="sans-serif" font-size="14" lengthAdjust="spacing" textLength="57.2168" x="25.39" y="265.5951">Posicion</text></g><!--class InterfazUsuario--><g class="entity" data-entity="InterfazUsuario" data-source-line="9" data-uid="ent0007" id="entity_InterfazUsuario"><rect fill="#F1F1F1" height="26.2969" rx="2.5" ry="2.5" style="stroke:#181818;stroke-width:0.5;" width="112.9209" x="125.54" y="144.3"/><text fill="#000000" font-family="sans-serif" font-size="14" lengthAdjust="spacing" textLength="106.9209" x="128.54" y="162.2951">InterfazUsuario</text></g><!--class Teclado--><g class="entity" data-entity="Teclado" data-source-line="10" data-uid="ent0008" id="entity_Teclado"><rect fill="#F1F1F1" height="26.2969" rx="2.5" ry="2.5" style="stroke:#181818;stroke-width:0.5;" width="60.7832" x="248.61" y="247.6"/><text fill="#000000" font-family="sans-serif" font-size="14" lengthAdjust="spacing" textLength="54.7832" x="251.61" y="265.5951">Teclado</text></g><!--class HojaCalculo--><g class="entity" data-entity="HojaCalculo" data-source-line="11" data-uid="ent0009" id="entity_HojaCalculo"><rect fill="#F1F1F1" height="26.2969" rx="2.5" ry="2.5" style="stroke:#181818;stroke-width:0.5;" width="88.8311" x="137.58" y="41"/><text fill="#000000" font-family="sans-serif" font-size="14" lengthAdjust="spacing" textLength="82.8311" x="140.58" y="58.9951">HojaCalculo</text></g><!--reverse link ComponenteHoja to Matriz--><g class="link" data-entity-1="ComponenteHoja" data-entity-2="Matriz" data-source-line="13" data-uid="lnk10" id="link_ComponenteHoja_Matriz"><path codeLine="13" d="M365,85.57 C365,105.01 365,124.42 365,143.93 " fill="none" id="ComponenteHoja-backto-Matriz" style="stroke:#181818;stroke-width:1;"/><polygon fill="none" points="365,67.57,359,85.57,371,85.57,365,67.57" style="stroke:#181818;stroke-width:1;"/></g><!--reverse link HojaCalculo to Matriz--><g class="link" data-entity-1="HojaCalculo" data-entity-2="Matriz" data-source-line="14" data-uid="lnk11" id="link_HojaCalculo_Matriz"><path codeLine="14" d="M215.3092,73.591 C250.4692,93.051 307.03,124.36 342.19,143.82 " fill="none" id="HojaCalculo-backto-Matriz" style="stroke:#181818;stroke-width:1;"/><polygon fill="#181818" points="204.81,67.78,208.1226,74.1852,215.3092,73.591,211.9966,67.1858,204.81,67.78" style="stroke:#181818;stroke-width:1;"/><text fill="#000000" font-family="sans-serif" font-size="13" lengthAdjust="spacing" textLength="56.2847" x="285" y="110.3669">contiene</text><text fill="#000000" font-family="sans-serif" font-size="13" lengthAdjust="spacing" textLength="8.271" x="203.5609" y="87.3987">1</text><text fill="#000000" font-family="sans-serif" font-size="13" lengthAdjust="spacing" textLength="8.271" x="324.3535" y="133.1203">1</text></g><!--reverse link HojaCalculo to Posicion--><g class="link" data-entity-1="HojaCalculo" data-entity-2="Posicion" data-source-line="15" data-uid="lnk12" id="link_HojaCalculo_Posicion"><path codeLine="15" d="M148.0533,73.8683 C122.8433,88.6783 94.15,109.61 74,144.3 C54.59,177.72 52.98,225.12 53.43,247.35 " fill="none" id="HojaCalculo-backto-Posicion" style="stroke:#181818;stroke-width:1;"/><polygon fill="#181818" points="158.4,67.79,151.2005,67.3803,148.0533,73.8683,155.2528,74.2781,158.4,67.79" style="stroke:#181818;stroke-width:1;"/><text fill="#000000" font-family="sans-serif" font-size="13" lengthAdjust="spacing" textLength="32.9443" x="75" y="162.0169">tiene</text><text fill="#000000" font-family="sans-serif" font-size="13" lengthAdjust="spacing" textLength="8.271" x="140.6174" y="87.4122">1</text><text fill="#000000" font-family="sans-serif" font-size="13" lengthAdjust="spacing" textLength="8.271" x="43.74" y="236.4747">1</text></g><!--reverse link HojaCalculo to InterfazUsuario--><g class="link" data-entity-1="HojaCalculo" data-entity-2="InterfazUsuario" data-source-line="16" data-uid="lnk13" id="link_HojaCalculo_InterfazUsuario"><path codeLine="16" d="M182,79.57 C182,99.01 182,124.42 182,143.93 " fill="none" id="HojaCalculo-backto-InterfazUsuario" style="stroke:#181818;stroke-width:1;"/><polygon fill="#181818" points="182,67.57,178,73.57,182,79.57,186,73.57,182,67.57" style="stroke:#181818;stroke-width:1;"/><text fill="#000000" font-family="sans-serif" font-size="13" lengthAdjust="spacing" textLength="38.9619" x="183" y="110.3669">utiliza</text><text fill="#000000" font-family="sans-serif" font-size="13" lengthAdjust="spacing" textLength="8.271" x="172.5766" y="87.3762">1</text><text fill="#000000" font-family="sans-serif" font-size="13" lengthAdjust="spacing" textLength="8.271" x="172.5748" y="133.2708">1</text></g><!--reverse link Matriz to Celda--><g class="link" data-entity-1="Matriz" data-entity-2="Celda" data-source-line="17" data-uid="lnk14" id="link_Matriz_Celda"><path codeLine="17" d="M368.0891,182.9428 C371.3891,211.8928 374.46,272.53 344,320.89 C334.32,336.26 316.78,347.14 302.35,353.99 " fill="none" id="Matriz-backto-Celda" style="stroke:#181818;stroke-width:1;"/><polygon fill="#181818" points="366.73,171.02,363.4353,177.4344,368.0891,182.9428,371.3838,176.5284,366.73,171.02" style="stroke:#181818;stroke-width:1;"/><text fill="#000000" font-family="sans-serif" font-size="13" lengthAdjust="spacing" textLength="92.4727" x="367" y="265.3069">compuesta de</text><text fill="#000000" font-family="sans-serif" font-size="13" lengthAdjust="spacing" textLength="8.271" x="357.9693" y="190.6173">1</text><text fill="#000000" font-family="sans-serif" font-size="13" lengthAdjust="spacing" textLength="23.0356" x="309.9769" y="347.2327">0..*</text></g><!--reverse link InterfazUsuario to Teclado--><g class="link" data-entity-1="InterfazUsuario" data-entity-2="Teclado" data-source-line="18" data-uid="lnk15" id="link_InterfazUsuario_Teclado"><path codeLine="18" d="M202.1905,179.5361 C220.8105,198.9761 248.33,227.72 267.01,247.22 " fill="none" id="InterfazUsuario-backto-Teclado" style="stroke:#181818;stroke-width:1;"/><polygon fill="#181818" points="193.89,170.87,195.1516,177.9699,202.1905,179.5361,200.929,172.4362,193.89,170.87" style="stroke:#181818;stroke-width:1;"/><text fill="#000000" font-family="sans-serif" font-size="13" lengthAdjust="spacing" textLength="22.9785" x="237" y="213.6669">usa</text><text fill="#000000" font-family="sans-serif" font-size="13" lengthAdjust="spacing" textLength="8.271" x="188.8492" y="190.6762">1</text><text fill="#000000" font-family="sans-serif" font-size="13" lengthAdjust="spacing" textLength="8.271" x="253.1631" y="236.5571">1</text></g><!--link InterfazUsuario to Celda--><g class="link" data-entity-1="InterfazUsuario" data-entity-2="Celda" data-source-line="19" data-uid="lnk16" id="link_InterfazUsuario_Celda"><path codeLine="19" d="M177.18,170.95 C169.51,192.94 156.96,239.45 173,273.89 C190.05,310.51 225.1178,334.5592 250.8278,348.7592 " fill="none" id="InterfazUsuario-to-Celda" style="stroke:#181818;stroke-width:1;stroke-dasharray:7.0,7.0;"/><polygon fill="#181818" points="256.08,351.66,250.1357,343.8073,251.7032,349.2426,246.2679,350.8102,256.08,351.66" style="stroke:#181818;stroke-width:1;"/><text fill="#000000" font-family="sans-serif" font-size="13" lengthAdjust="spacing" textLength="56.2974" x="174" y="265.3069">visualiza</text><text fill="#000000" font-family="sans-serif" font-size="13" lengthAdjust="spacing" textLength="8.271" x="165.9774" y="190.7857">1</text><text fill="#000000" font-family="sans-serif" font-size="13" lengthAdjust="spacing" textLength="23.0356" x="225.124" y="344.1454">0..*</text></g><!--link InterfazUsuario to Posicion--><g class="link" data-entity-1="InterfazUsuario" data-entity-2="Posicion" data-source-line="20" data-uid="lnk17" id="link_InterfazUsuario_Posicion"><path codeLine="20" d="M144.25,170.99 C127.31,177.89 107.84,187.71 93,200.6 C77.77,213.82 68.7102,229.002 62.2502,242.062 " fill="none" id="InterfazUsuario-to-Posicion" style="stroke:#181818;stroke-width:1;stroke-dasharray:7.0,7.0;"/><polygon fill="#181818" points="59.59,247.44,67.1657,241.1464,61.8068,242.9583,59.9949,237.5995,59.59,247.44" style="stroke:#181818;stroke-width:1;"/><text fill="#000000" font-family="sans-serif" font-size="13" lengthAdjust="spacing" textLength="54.082" x="94" y="213.6669">muestra</text><text fill="#000000" font-family="sans-serif" font-size="13" lengthAdjust="spacing" textLength="8.271" x="121.4247" y="190.5766">1</text><text fill="#000000" font-family="sans-serif" font-size="13" lengthAdjust="spacing" textLength="8.271" x="63.2985" y="236.599">1</text></g><!--link Teclado to Celda--><g class="link" data-entity-1="Teclado" data-entity-2="Celda" data-source-line="21" data-uid="lnk18" id="link_Teclado_Celda"><path codeLine="21" d="M279,274.17 C279,293.61 279,325.02 279,344.52 " fill="none" id="Teclado-to-Celda" style="stroke:#181818;stroke-width:1;stroke-dasharray:7.0,7.0;"/><polygon fill="#181818" points="279,350.52,283,341.52,279,345.52,275,341.52,279,350.52" style="stroke:#181818;stroke-width:1;"/><text fill="#000000" font-family="sans-serif" font-size="13" lengthAdjust="spacing" textLength="55.7832" x="280" y="316.9569">modifica</text><text fill="#000000" font-family="sans-serif" font-size="13" lengthAdjust="spacing" textLength="8.271" x="269.5744" y="293.9762">1</text><text fill="#000000" font-family="sans-serif" font-size="13" lengthAdjust="spacing" textLength="8.271" x="269.5742" y="339.8608">1</text></g><!--SRC=[XP5DJiCm48NtFiKeoqgDO5iXDjd00ea5763gJEc0VoBRgKI0mt0MBeP_cigDLCZ6ohnlvZsFzzmJI7PIaHVxz4Dw2E-WIM_9UI46b6_uGj3SsLU4g7S_tqgEoZRm8I1-kFN1eGmW5NeFdTM3DMG2fOPC5E41W-EfAdIa-Xfuj9ubMrELxkCOjyFfsO_es5RA4yMphol9hiCSJUJoUHAu-Lolwn0L3yrr0wiefxCWi05fJM0oz2SzXuxy__3YEh5d3AnuAbiu6fyQhjfsrPGjvJHw6Cc7z0OPNmwhZOxRIGOUBz9jUxjqEN3KJuakDfrVNATShhJCpZKw3zUsvnrB55-_]--></g></svg>