<svg xmlns="http://www.w3.org/2000/svg" xmlns:xlink="http://www.w3.org/1999/xlink" contentStyleType="text/css" data-diagram-type="CLASS" height="511px" preserveAspectRatio="none" style="width:533px;height:511px;background:#FFFFFF;" version="1.1" viewBox="0 0 533 511" width="533px" zoomAndPan="magnify"><defs/><g><!--cluster Hoja de C?lculo v001--><g class="cluster" data-entity="Hoja de C&#225;lculo v001" data-source-line="4" data-uid="ent0002" id="cluster_Hoja de C&#225;lculo v001"><path d="M8.5,6 L174.7725,6 A3.75,3.75 0 0 1 177.2725,8.5 L184.2725,28.2969 L523.5,28.2969 A2.5,2.5 0 0 1 526,30.7969 L526,502.28 A2.5,2.5 0 0 1 523.5,504.78 L8.5,504.78 A2.5,2.5 0 0 1 6,502.28 L6,8.5 A2.5,2.5 0 0 1 8.5,6" fill="none" style="stroke:#000000;stroke-width:1.5;"/><line style="stroke:#000000;stroke-width:1.5;" x1="6" x2="184.2725" y1="28.2969" y2="28.2969"/><text fill="#000000" font-family="sans-serif" font-size="14" font-weight="bold" lengthAdjust="spacing" textLength="165.2725" x="10" y="20.9951">Hoja de C&#225;lculo v001</text></g><!--class ComponenteHoja--><g class="entity" data-entity="ComponenteHoja" data-source-line="5" data-uid="ent0003" id="entity_ComponenteHoja"><rect fill="#F1F1F1" height="50.5938" rx="2.5" ry="2.5" style="stroke:#181818;stroke-width:0.5;" width="305.1182" x="186.44" y="41"/><text fill="#000000" font-family="sans-serif" font-size="14" font-style="italic" lengthAdjust="spacing" textLength="121.4541" x="278.272" y="58.9951">ComponenteHoja</text><line style="stroke:#181818;stroke-width:0.5;" x1="187.44" x2="490.5582" y1="67.2969" y2="67.2969"/><text fill="#000000" font-family="sans-serif" font-size="14" lengthAdjust="spacing" textLength="293.1182" x="192.44" y="84.292">// Clase base para todos los componentes</text></g><!--class HojaCalculo--><g class="entity" data-entity="HojaCalculo" data-source-line="9" data-uid="ent0004" id="entity_HojaCalculo"><rect fill="#F1F1F1" height="26.2969" rx="2.5" ry="2.5" style="stroke:#181818;stroke-width:0.5;" width="88.8311" x="282.58" y="152.59"/><text fill="#000000" font-family="sans-serif" font-size="14" lengthAdjust="spacing" textLength="82.8311" x="285.58" y="170.5851">HojaCalculo</text></g><!--class Matriz--><g class="entity" data-entity="Matriz" data-source-line="12" data-uid="ent0006" id="entity_Matriz"><rect fill="#F1F1F1" height="26.2969" rx="2.5" ry="2.5" style="stroke:#181818;stroke-width:0.5;" width="49.1416" x="135.43" y="255.89"/><text fill="#000000" font-family="sans-serif" font-size="14" lengthAdjust="spacing" textLength="43.1416" x="138.43" y="273.8851">Matriz</text></g><!--class Celda--><g class="entity" data-entity="Celda" data-source-line="15" data-uid="ent0008" id="entity_Celda"><rect fill="#F1F1F1" height="26.2969" rx="2.5" ry="2.5" style="stroke:#181818;stroke-width:0.5;" width="45.7441" x="211.13" y="462.48"/><text fill="#000000" font-family="sans-serif" font-size="14" lengthAdjust="spacing" textLength="39.7441" x="214.13" y="480.4751">Celda</text></g><!--class Posicion--><g class="entity" data-entity="Posicion" data-source-line="18" data-uid="ent0010" id="entity_Posicion"><rect fill="#F1F1F1" height="26.2969" rx="2.5" ry="2.5" style="stroke:#181818;stroke-width:0.5;" width="63.2168" x="409.39" y="359.19"/><text fill="#000000" font-family="sans-serif" font-size="14" lengthAdjust="spacing" textLength="57.2168" x="412.39" y="377.1851">Posicion</text></g><!--class InterfazUsuario--><g class="entity" data-entity="InterfazUsuario" data-source-line="21" data-uid="ent0012" id="entity_InterfazUsuario"><rect fill="#F1F1F1" height="26.2969" rx="2.5" ry="2.5" style="stroke:#181818;stroke-width:0.5;" width="112.9209" x="219.54" y="255.89"/><text fill="#000000" font-family="sans-serif" font-size="14" lengthAdjust="spacing" textLength="106.9209" x="222.54" y="273.8851">InterfazUsuario</text></g><!--class Teclado--><g class="entity" data-entity="Teclado" data-source-line="24" data-uid="ent0014" id="entity_Teclado"><rect fill="#F1F1F1" height="26.2969" rx="2.5" ry="2.5" style="stroke:#181818;stroke-width:0.5;" width="60.7832" x="21.61" y="359.19"/><text fill="#000000" font-family="sans-serif" font-size="14" lengthAdjust="spacing" textLength="54.7832" x="24.61" y="377.1851">Teclado</text></g><!--reverse link ComponenteHoja to HojaCalculo--><g class="link" data-entity-1="ComponenteHoja" data-entity-2="HojaCalculo" data-uid="lnk5" id="link_ComponenteHoja_HojaCalculo"><path d="M333.7739,109.7555 C331.4039,129.0355 330.39,137.2 328.53,152.36" fill="none" id="ComponenteHoja-backto-HojaCalculo" style="stroke:#181818;stroke-width:1;"/><polygon fill="none" points="335.97,91.89,327.8187,109.0235,339.7291,110.4876,335.97,91.89" style="stroke:#181818;stroke-width:1;"/></g><!--reverse link ComponenteHoja to Matriz--><g class="link" data-entity-1="ComponenteHoja" data-entity-2="Matriz" data-uid="lnk7" id="link_ComponenteHoja_Matriz"><path d="M298.7553,104.367 C269.6053,131.637 235.76,165.15 200,208.89 C187.45,224.24 174.96,243.51 167.36,255.8" fill="none" id="ComponenteHoja-backto-Matriz" style="stroke:#181818;stroke-width:1;"/><polygon fill="none" points="311.9,92.07,294.6563,99.9854,302.8543,108.7486,311.9,92.07" style="stroke:#181818;stroke-width:1;"/></g><!--reverse link ComponenteHoja to Celda--><g class="link" data-entity-1="ComponenteHoja" data-entity-2="Celda" data-uid="lnk9" id="link_ComponenteHoja_Celda"><path d="M463.6706,99.0764 C497.1906,113.5764 509,129.19 509,164.74 C509,164.74 509,164.74 509,373.33 C509,426.88 323.07,460.86 256.97,471.24" fill="none" id="ComponenteHoja-backto-Celda" style="stroke:#181818;stroke-width:1;"/><polygon fill="none" points="447.15,91.93,461.2884,104.5833,466.0527,93.5696,447.15,91.93" style="stroke:#181818;stroke-width:1;"/></g><!--reverse link ComponenteHoja to Posicion--><g class="link" data-entity-1="ComponenteHoja" data-entity-2="Posicion" data-uid="lnk11" id="link_ComponenteHoja_Posicion"><path d="M379.0365,104.7671 C387.5165,113.4771 383.7,110.89 390,121.59 C437.59,202.44 441.33,320.66 441.22,358.9" fill="none" id="ComponenteHoja-backto-Posicion" style="stroke:#181818;stroke-width:1;"/><polygon fill="none" points="366.48,91.87,374.7375,108.9526,383.3355,100.5816,366.48,91.87" style="stroke:#181818;stroke-width:1;"/></g><!--reverse link ComponenteHoja to InterfazUsuario--><g class="link" data-entity-1="ComponenteHoja" data-entity-2="InterfazUsuario" data-uid="lnk13" id="link_ComponenteHoja_InterfazUsuario"><path d="M373.1537,106.1223 C390.9237,128.4023 399.63,148.2 389,178.89 C376,216.43 335.55,241.73 306.77,255.51" fill="none" id="ComponenteHoja-backto-InterfazUsuario" style="stroke:#181818;stroke-width:1;"/><polygon fill="none" points="361.93,92.05,368.4629,109.8635,377.8445,102.381,361.93,92.05" style="stroke:#181818;stroke-width:1;"/></g><!--reverse link ComponenteHoja to Teclado--><g class="link" data-entity-1="ComponenteHoja" data-entity-2="Teclado" data-uid="lnk15" id="link_ComponenteHoja_Teclado"><path d="M285.7212,101.9817 C261.5012,118.1917 244.94,130.42 219,152.59 C170.19,194.31 156.69,204.65 118,255.89 C91.71,290.71 68.26,337.04 57.79,358.91" fill="none" id="ComponenteHoja-backto-Teclado" style="stroke:#181818;stroke-width:1;"/><polygon fill="none" points="300.68,91.97,282.384,96.9954,289.0584,106.9679,300.68,91.97" style="stroke:#181818;stroke-width:1;"/></g><!--reverse link HojaCalculo to Matriz--><g class="link" data-entity-1="HojaCalculo" data-entity-2="Matriz" data-source-line="28" data-uid="lnk16" id="link_HojaCalculo_Matriz"><path codeLine="28" d="M281.7716,183.7249 C263.1616,191.1849 251.2,197.05 232,208.89 C209.69,222.65 186.79,242.68 172.97,255.53" fill="none" id="HojaCalculo-backto-Matriz" style="stroke:#181818;stroke-width:1;"/><polygon fill="#181818" points="292.91,179.26,285.8525,177.7797,281.7716,183.7249,288.8291,185.2053,292.91,179.26" style="stroke:#181818;stroke-width:1;"/><text fill="#000000" font-family="sans-serif" font-size="13" lengthAdjust="spacing" textLength="56.2847" x="233" y="221.9569">contiene</text></g><!--reverse link HojaCalculo to Posicion--><g class="link" data-entity-1="HojaCalculo" data-entity-2="Posicion" data-source-line="29" data-uid="lnk17" id="link_HojaCalculo_Posicion"><path codeLine="29" d="M340.733,189.5045 C345.753,197.8545 346.27,198.84 352,208.89 C383.7,264.48 419.9,331.8 434.44,359.03" fill="none" id="HojaCalculo-backto-Posicion" style="stroke:#181818;stroke-width:1;"/><polygon fill="#181818" points="334.55,179.22,334.2133,186.4232,340.733,189.5045,341.0697,182.3012,334.55,179.22" style="stroke:#181818;stroke-width:1;"/><text fill="#000000" font-family="sans-serif" font-size="13" lengthAdjust="spacing" textLength="32.9443" x="392" y="273.6069">tiene</text></g><!--reverse link HojaCalculo to InterfazUsuario--><g class="link" data-entity-1="HojaCalculo" data-entity-2="InterfazUsuario" data-source-line="30" data-uid="lnk18" id="link_HojaCalculo_InterfazUsuario"><path codeLine="30" d="M315.3526,189.8776 C305.5626,209.3176 292.12,236.01 282.3,255.52" fill="none" id="HojaCalculo-backto-InterfazUsuario" style="stroke:#181818;stroke-width:1;"/><polygon fill="#181818" points="320.75,179.16,314.4787,182.7197,315.3526,189.8776,321.6238,186.318,320.75,179.16" style="stroke:#181818;stroke-width:1;"/><text fill="#000000" font-family="sans-serif" font-size="13" lengthAdjust="spacing" textLength="38.9619" x="305" y="221.9569">utiliza</text></g><!--reverse link Matriz to Celda--><g class="link" data-entity-1="Matriz" data-entity-2="Celda" data-source-line="31" data-uid="lnk19" id="link_Matriz_Celda"><path codeLine="31" d="M152.2828,293.8199 C145.6128,315.5099 138.2,350.11 152,385.48 C164.91,418.59 196.51,446.84 216.5,462.21" fill="none" id="Matriz-backto-Celda" style="stroke:#181818;stroke-width:1;"/><polygon fill="#181818" points="155.81,282.35,150.2231,286.9092,152.2828,293.8199,157.8697,289.2607,155.81,282.35" style="stroke:#181818;stroke-width:1;"/><text fill="#000000" font-family="sans-serif" font-size="13" lengthAdjust="spacing" textLength="92.4727" x="153" y="376.8969">compuesta de</text></g><!--reverse link InterfazUsuario to Teclado--><g class="link" data-entity-1="InterfazUsuario" data-entity-2="Teclado" data-source-line="32" data-uid="lnk20" id="link_InterfazUsuario_Teclado"><path codeLine="32" d="M237.1467,287.6059 C194.1067,307.0759 122.96,339.25 79.92,358.71" fill="none" id="InterfazUsuario-backto-Teclado" style="stroke:#181818;stroke-width:1;"/><polygon fill="#181818" points="248.08,282.66,240.9647,281.4885,237.1467,287.6059,244.262,288.7774,248.08,282.66" style="stroke:#181818;stroke-width:1;"/><text fill="#000000" font-family="sans-serif" font-size="13" lengthAdjust="spacing" textLength="22.9785" x="178" y="325.2569">usa</text></g><!--link InterfazUsuario to Celda--><g class="link" data-entity-1="InterfazUsuario" data-entity-2="Celda" data-source-line="33" data-uid="lnk21" id="link_InterfazUsuario_Celda"><path codeLine="33" d="M273.76,282.54 C269.92,303.74 261.75,348.12 254,385.48 C248.3,412.97 242.2831,439.2269 238.2731,456.4169" fill="none" id="InterfazUsuario-to-Celda" style="stroke:#181818;stroke-width:1;stroke-dasharray:7.0,7.0;"/><polygon fill="#181818" points="236.91,462.26,242.85,454.404,238.0459,457.3907,235.0592,452.5866,236.91,462.26" style="stroke:#181818;stroke-width:1;"/><text fill="#000000" font-family="sans-serif" font-size="13" lengthAdjust="spacing" textLength="56.2974" x="259" y="376.8969">visualiza</text></g><!--link InterfazUsuario to Posicion--><g class="link" data-entity-1="InterfazUsuario" data-entity-2="Posicion" data-source-line="34" data-uid="lnk22" id="link_InterfazUsuario_Posicion"><path codeLine="34" d="M288.32,282.6 C301.48,295.51 323.36,315.58 345,329.19 C365.19,341.88 384.2543,350.4548 403.5343,357.9148" fill="none" id="InterfazUsuario-to-Posicion" style="stroke:#181818;stroke-width:1;stroke-dasharray:7.0,7.0;"/><polygon fill="#181818" points="409.13,360.08,402.1798,353.1018,404.4669,358.2757,399.293,360.5628,409.13,360.08" style="stroke:#181818;stroke-width:1;"/><text fill="#000000" font-family="sans-serif" font-size="13" lengthAdjust="spacing" textLength="54.082" x="346" y="325.2569">muestra</text></g><!--link Teclado to Celda--><g class="link" data-entity-1="Teclado" data-entity-2="Celda" data-source-line="35" data-uid="lnk23" id="link_Teclado_Celda"><path codeLine="35" d="M55.91,385.64 C60.81,399.1 70.51,420.38 86,432.48 C123.16,461.52 173.4539,470.0147 204.8239,472.8247" fill="none" id="Teclado-to-Celda" style="stroke:#181818;stroke-width:1;stroke-dasharray:7.0,7.0;"/><polygon fill="#181818" points="210.8,473.36,202.1928,468.573,205.8199,472.9139,201.479,476.5411,210.8,473.36" style="stroke:#181818;stroke-width:1;"/><text fill="#000000" font-family="sans-serif" font-size="13" lengthAdjust="spacing" textLength="55.7832" x="87" y="428.5469">modifica</text></g><!--SRC=[ZP9DIiH048NtEKKn6q6O7xTPkCb65uA87g3IgN5A-oTqTmQDp64yYnUpEfc4E4G8f1Fe-jvxgUe-S4L0fewVOCYKv4DsI5kAlT8Kign6zOwl1AixzuOWbUBdMwj6EpZkTZSh-Ce0i0pHeugWD8O0XJErisGZTPf406otK4YLe4ol6Zr2T9KBe6MfKH44FicIfpTB5WNsYVGHoLQp0Nyq3nWzjulnWdI5Y-b75rYniui5zrBnUsnVGeEUbtVnJFAjbl1Ny4GQqqzryvkEx7gz7iQHovXjPB8qmunTvV0VSjb73arapIqAUuv8M3_Dl3lJXa9CbqQ8ItL2Xmx5AU0CizdSZdP7birpsXmtQS2aM9_08M1gP5p5UrQOdNu1]--></g></svg>