<svg xmlns="http://www.w3.org/2000/svg" xmlns:xlink="http://www.w3.org/1999/xlink" contentStyleType="text/css" data-diagram-type="STATE" height="781px" preserveAspectRatio="none" style="width:949px;height:781px;background:#FFFFFF;" version="1.1" viewBox="0 0 949 781" width="949px" zoomAndPan="magnify"><defs/><g><path d="M19.5,86 L923.0674,86 A12.5,12.5 0 0 1 935.5674,98.5 L935.5674,112.2969 L7,112.2969 L7,98.5 A12.5,12.5 0 0 1 19.5,86 " fill="#F1F1F1" style="stroke:#F1F1F1;stroke-width:1;"/><rect fill="transparent" height="689.5938" rx="12.5" ry="12.5" style="stroke:#181818;stroke-width:0.5;" width="928.5674" x="7" y="86"/><line style="stroke:#181818;stroke-width:0.5;" x1="7" x2="935.5674" y1="112.2969" y2="112.2969"/><text fill="#000000" font-family="sans-serif" font-size="14" lengthAdjust="spacing" textLength="156.748" x="392.9097" y="103.9951">HojaDeCalculoIniciada</text><!--cluster Editando--><g id="cluster_Editando"><path d="M31.5,289.2969 L400.5,289.2969 A12.5,12.5 0 0 1 413,301.7969 L413,310.5938 L19,310.5938 L19,301.7969 A12.5,12.5 0 0 1 31.5,289.2969 " fill="#F1F1F1" style="stroke:#F1F1F1;stroke-width:1;"/><rect fill="transparent" height="396.5" rx="12.5" ry="12.5" style="stroke:#181818;stroke-width:0.5;" width="394" x="19" y="289.2969"/><line style="stroke:#181818;stroke-width:0.5;" x1="19" x2="413" y1="310.5938" y2="310.5938"/><text fill="#000000" font-family="sans-serif" font-size="14" lengthAdjust="spacing" textLength="62.0156" x="184.9922" y="306.292">Editando</text></g><ellipse cx="264" cy="342.2969" fill="#222222" rx="10" ry="10" style="stroke:#222222;stroke-width:1;"/><g id="HojaDeCalculoIniciada.Editando.IngresandoContenido"><rect fill="#F1F1F1" height="50" rx="12.5" ry="12.5" style="stroke:#181818;stroke-width:0.5;" width="169.9873" x="179" y="405.2969"/><line style="stroke:#181818;stroke-width:0.5;" x1="179" x2="348.9873" y1="431.5938" y2="431.5938"/><text fill="#000000" font-family="sans-serif" font-size="14" lengthAdjust="spacing" textLength="149.9873" x="189" y="423.292">IngresandoContenido</text></g><g id="HojaDeCalculoIniciada.Editando.ContenidoLargo"><rect fill="#F1F1F1" height="50" rx="12.5" ry="12.5" style="stroke:#181818;stroke-width:0.5;" width="131.1182" x="104.5" y="611.7969"/><line style="stroke:#181818;stroke-width:0.5;" x1="104.5" x2="235.6182" y1="638.0938" y2="638.0938"/><text fill="#000000" font-family="sans-serif" font-size="14" lengthAdjust="spacing" textLength="111.1182" x="114.5" y="629.792">ContenidoLargo</text></g><path d="M449.5,508.2969 L784.9121,508.2969 A12.5,12.5 0 0 1 797.4121,520.7969 L797.4121,534.5938 L437,534.5938 L437,520.7969 A12.5,12.5 0 0 1 449.5,508.2969 " fill="#F1F1F1" style="stroke:#F1F1F1;stroke-width:1;"/><rect fill="transparent" height="257.2969" rx="12.5" ry="12.5" style="stroke:#181818;stroke-width:0.5;" width="360.4121" x="437" y="508.2969"/><line style="stroke:#181818;stroke-width:0.5;" x1="437" x2="797.4121" y1="534.5938" y2="534.5938"/><text fill="#000000" font-family="sans-serif" font-size="14" lengthAdjust="spacing" textLength="79.7412" x="577.3354" y="526.292">Navegando</text><ellipse cx="617" cy="555.5938" fill="#222222" rx="10" ry="10" style="stroke:#222222;stroke-width:1;"/><g id="HojaDeCalculoIniciada.Navegando.PosicionInicial"><rect fill="#F1F1F1" height="50" rx="12.5" ry="12.5" style="stroke:#181818;stroke-width:0.5;" width="118.1641" x="558" y="602.5938"/><line style="stroke:#181818;stroke-width:0.5;" x1="558" x2="676.1641" y1="628.8906" y2="628.8906"/><text fill="#000000" font-family="sans-serif" font-size="14" lengthAdjust="spacing" textLength="98.1641" x="568" y="620.5889">PosicionInicial</text></g><g id="HojaDeCalculoIniciada.Navegando.Arriba"><rect fill="#F1F1F1" height="50" rx="12.5" ry="12.5" style="stroke:#181818;stroke-width:0.5;" width="62.4443" x="449" y="705.5938"/><line style="stroke:#181818;stroke-width:0.5;" x1="449" x2="511.4443" y1="731.8906" y2="731.8906"/><text fill="#000000" font-family="sans-serif" font-size="14" lengthAdjust="spacing" textLength="42.4443" x="459" y="723.5889">Arriba</text></g><g id="HojaDeCalculoIniciada.Navegando.Izquierda"><rect fill="#F1F1F1" height="50" rx="12.5" ry="12.5" style="stroke:#181818;stroke-width:0.5;" width="84.9619" x="529.5" y="705.5938"/><line style="stroke:#181818;stroke-width:0.5;" x1="529.5" x2="614.4619" y1="731.8906" y2="731.8906"/><text fill="#000000" font-family="sans-serif" font-size="14" lengthAdjust="spacing" textLength="64.9619" x="539.5" y="723.5889">Izquierda</text></g><g id="HojaDeCalculoIniciada.Navegando.Abajo"><rect fill="#F1F1F1" height="50" rx="12.5" ry="12.5" style="stroke:#181818;stroke-width:0.5;" width="59.498" x="632.5" y="705.5938"/><line style="stroke:#181818;stroke-width:0.5;" x1="632.5" x2="691.998" y1="731.8906" y2="731.8906"/><text fill="#000000" font-family="sans-serif" font-size="14" lengthAdjust="spacing" textLength="39.498" x="642.5" y="723.5889">Abajo</text></g><g id="HojaDeCalculoIniciada.Navegando.Derecha"><rect fill="#F1F1F1" height="50" rx="12.5" ry="12.5" style="stroke:#181818;stroke-width:0.5;" width="78.9121" x="709.5" y="705.5938"/><line style="stroke:#181818;stroke-width:0.5;" x1="709.5" x2="788.4121" y1="731.8906" y2="731.8906"/><text fill="#000000" font-family="sans-serif" font-size="14" lengthAdjust="spacing" textLength="58.9121" x="719.5" y="723.5889">Derecha</text></g><!--link *start*Navegando to PosicionInicial--><g id="link_*start*Navegando_PosicionInicial"><path d="M617,565.7438 C617,575.0138 617,583.7338 617,596.3738 " fill="transparent" id="*start*Navegando-to-PosicionInicial" style="stroke:#181818;stroke-width:1;"/><polygon fill="#181818" points="617,602.3738,621,593.3738,617,597.3738,613,593.3738,617,602.3738" style="stroke:#181818;stroke-width:1;"/></g><!--link PosicionInicial to Arriba--><g id="link_PosicionInicial_Arriba"><path d="M557.93,637.1238 C535.81,643.1038 512.16,653.2738 496,670.5938 C487.24,679.9838 484.1114,687.7449 482.2714,699.5849 " fill="transparent" id="PosicionInicial-to-Arriba" style="stroke:#181818;stroke-width:1;"/><polygon fill="#181818" points="481.35,705.5138,486.6846,697.2347,482.1178,700.5731,478.7795,696.0063,481.35,705.5138" style="stroke:#181818;stroke-width:1;"/><text fill="#000000" font-family="sans-serif" font-size="13" lengthAdjust="spacing" textLength="10.6323" x="497" y="683.6606">w</text></g><!--link PosicionInicial to Izquierda--><g id="link_PosicionInicial_Izquierda"><path d="M582.64,652.7638 C577.5,658.0138 572.95,664.0038 570,670.5938 C565.19,681.3538 564.3618,688.3993 565.7318,699.4493 " fill="transparent" id="PosicionInicial-to-Izquierda" style="stroke:#181818;stroke-width:1;"/><polygon fill="#181818" points="566.47,705.4038,569.3322,695.98,565.8548,700.4417,561.393,696.9643,566.47,705.4038" style="stroke:#181818;stroke-width:1;"/><text fill="#000000" font-family="sans-serif" font-size="13" lengthAdjust="spacing" textLength="7.9663" x="571" y="683.6606">a</text></g><!--link PosicionInicial to Abajo--><g id="link_PosicionInicial_Abajo"><path d="M622.73,652.6938 C625.74,663.6038 629.87,676.5138 635,687.5938 C637.77,693.5738 638.0755,694.6249 641.6355,700.2849 " fill="transparent" id="PosicionInicial-to-Abajo" style="stroke:#181818;stroke-width:1;"/><polygon fill="#181818" points="644.83,705.3638,643.4242,695.6157,642.1679,701.1313,636.6523,699.8751,644.83,705.3638" style="stroke:#181818;stroke-width:1;"/><text fill="#000000" font-family="sans-serif" font-size="13" lengthAdjust="spacing" textLength="6.7729" x="636" y="683.6606">s</text></g><!--link PosicionInicial to Derecha--><g id="link_PosicionInicial_Derecha"><path d="M648.62,652.7838 C669.36,668.6637 691.636,685.6962 712.416,701.6062 " fill="transparent" id="PosicionInicial-to-Derecha" style="stroke:#181818;stroke-width:1;"/><polygon fill="#181818" points="717.18,705.2538,712.4657,696.6065,713.21,702.2142,707.6023,702.9585,717.18,705.2538" style="stroke:#181818;stroke-width:1;"/><text fill="#000000" font-family="sans-serif" font-size="13" lengthAdjust="spacing" textLength="8.252" x="692" y="683.6606">d</text></g><!--link Arriba to PosicionInicial--><g id="link_Arriba_PosicionInicial"><path d="M506.87,705.4137 C519.61,694.3638 535.23,681.3638 550,670.5938 C558.32,664.5238 562.445,661.6302 571.295,656.0102 " fill="transparent" id="Arriba-to-PosicionInicial" style="stroke:#181818;stroke-width:1;"/><polygon fill="#181818" points="576.36,652.7938,566.6182,654.2417,572.1391,655.4741,570.9067,660.9951,576.36,652.7938" style="stroke:#181818;stroke-width:1;"/><text fill="#000000" font-family="sans-serif" font-size="13" lengthAdjust="spacing" textLength="10.6323" x="551" y="683.6606">w</text></g><!--link Izquierda to PosicionInicial--><g id="link_Izquierda_PosicionInicial"><path d="M582.85,705.2538 C589.93,689.3438 596.7096,674.1451 603.7796,658.2651 " fill="transparent" id="Izquierda-to-PosicionInicial" style="stroke:#181818;stroke-width:1;"/><polygon fill="#181818" points="606.22,652.7838,598.9053,659.3788,604.1864,657.3515,606.2137,662.6326,606.22,652.7838" style="stroke:#181818;stroke-width:1;"/><text fill="#000000" font-family="sans-serif" font-size="13" lengthAdjust="spacing" textLength="7.9663" x="599" y="683.6606">a</text></g><!--link Abajo to PosicionInicial--><g id="link_Abajo_PosicionInicial"><path d="M655.04,705.3238 C651.61,694.4938 647.12,681.6938 642,670.5938 C639.3,664.7338 639.0329,663.8308 635.7229,658.1808 " fill="transparent" id="Abajo-to-PosicionInicial" style="stroke:#181818;stroke-width:1;"/><polygon fill="#181818" points="632.69,653.0038,633.788,662.7912,635.2174,657.3179,640.6907,658.7473,632.69,653.0038" style="stroke:#181818;stroke-width:1;"/><text fill="#000000" font-family="sans-serif" font-size="13" lengthAdjust="spacing" textLength="6.7729" x="650" y="683.6606">s</text></g><!--link Derecha to PosicionInicial--><g id="link_Derecha_PosicionInicial"><path d="M734.97,705.5738 C727.26,693.8938 716.85,680.3238 705,670.5938 C696.37,663.5038 691.651,660.0654 681.511,654.7354 " fill="transparent" id="Derecha-to-PosicionInicial" style="stroke:#181818;stroke-width:1;"/><polygon fill="#181818" points="676.2,651.9438,682.3054,659.6719,680.6258,654.2701,686.0276,652.5906,676.2,651.9438" style="stroke:#181818;stroke-width:1;"/><text fill="#000000" font-family="sans-serif" font-size="13" lengthAdjust="spacing" textLength="8.252" x="721" y="683.6606">d</text></g><path d="M827.5,560.2969 L914.0674,560.2969 A12.5,12.5 0 0 1 926.5674,572.7969 L926.5674,586.5938 L815,586.5938 L815,572.7969 A12.5,12.5 0 0 1 827.5,560.2969 " fill="#F1F1F1" style="stroke:#F1F1F1;stroke-width:1;"/><rect fill="transparent" height="153.2969" rx="12.5" ry="12.5" style="stroke:#181818;stroke-width:0.5;" width="111.5674" x="815" y="560.2969"/><line style="stroke:#181818;stroke-width:0.5;" x1="815" x2="926.5674" y1="586.5938" y2="586.5938"/><text fill="#000000" font-family="sans-serif" font-size="14" lengthAdjust="spacing" textLength="75.3662" x="833.1006" y="578.292">Terminada</text><ellipse cx="872.5" cy="607.5938" fill="#222222" rx="10" ry="10" style="stroke:#222222;stroke-width:1;"/><g id="HojaDeCalculoIniciada.Terminada.Finalizada"><rect fill="#F1F1F1" height="50" rx="12.5" ry="12.5" style="stroke:#181818;stroke-width:0.5;" width="90.5674" x="827" y="653.5938"/><line style="stroke:#181818;stroke-width:0.5;" x1="827" x2="917.5674" y1="679.8906" y2="679.8906"/><text fill="#000000" font-family="sans-serif" font-size="14" lengthAdjust="spacing" textLength="70.5674" x="837" y="671.5889">Finalizada</text></g><!--link *start*Terminada to Finalizada--><g id="link_*start*Terminada_Finalizada"><path d="M872.5,617.6138 C872.5,626.6738 872.5,635.0338 872.5,647.4238 " fill="transparent" id="*start*Terminada-to-Finalizada" style="stroke:#181818;stroke-width:1;"/><polygon fill="#181818" points="872.5,653.4238,876.5,644.4238,872.5,648.4238,868.5,644.4238,872.5,653.4238" style="stroke:#181818;stroke-width:1;"/></g><ellipse cx="688" cy="133.2969" fill="#222222" rx="10" ry="10" style="stroke:#222222;stroke-width:1;"/><g id="HojaDeCalculoIniciada.SinEdicion"><rect fill="#F1F1F1" height="50" rx="12.5" ry="12.5" style="stroke:#181818;stroke-width:0.5;" width="92.2969" x="642" y="180.2969"/><line style="stroke:#181818;stroke-width:0.5;" x1="642" x2="734.2969" y1="206.5938" y2="206.5938"/><text fill="#000000" font-family="sans-serif" font-size="14" lengthAdjust="spacing" textLength="72.2969" x="652" y="198.292">SinEdicion</text></g><!--link *start*HojaDeCalculoIniciada to SinEdicion--><g id="link_*start*HojaDeCalculoIniciada_SinEdicion"><path d="M688,143.4469 C688,152.7169 688,161.4369 688,174.0769 " fill="transparent" id="*start*HojaDeCalculoIniciada-to-SinEdicion" style="stroke:#181818;stroke-width:1;"/><polygon fill="#181818" points="688,180.0769,692,171.0769,688,175.0769,684,171.0769,688,180.0769" style="stroke:#181818;stroke-width:1;"/></g><!--link SinEdicion to Editando--><g id="link_SinEdicion_Editando"><path d="M641.97,207.8969 C501.15,213.1969 83.05,232.2969 39,273.2969 C36.28,275.8281 34.0428,278.7434 32.2114,281.9127 C31.2957,283.4973 30.4814,285.1454 29.7589,286.8407 C29.5783,287.2645 29.4034,287.6913 29.2342,288.1208 C29.1495,288.3355 29.0663,288.5509 28.9844,288.767 C28.9435,288.875 30.9923,283.3588 30.952,283.4671 " fill="transparent" id="SinEdicion-to-Editando" style="stroke:#181818;stroke-width:1;"/><polygon fill="#181818" points="28.8626,289.0916,35.7463,282.0478,30.6038,284.4045,28.2471,279.262,28.8626,289.0916" style="stroke:#181818;stroke-width:1;"/><text fill="#000000" font-family="sans-serif" font-size="13" lengthAdjust="spacing" textLength="7.998" x="114" y="261.3638">e</text></g><!--link SinEdicion to Terminada--><g id="link_SinEdicion_Terminada"><path d="M698.23,230.3069 C724.73,292.4969 794.0982,455.307 836.3382,554.447 " fill="transparent" id="SinEdicion-to-Terminada" style="stroke:#181818;stroke-width:1;"/><polygon fill="#181818" points="838.69,559.9669,838.8422,550.1192,836.7302,555.367,831.4824,553.255,838.69,559.9669" style="stroke:#181818;stroke-width:1;"/><text fill="#000000" font-family="sans-serif" font-size="13" lengthAdjust="spacing" textLength="8.252" x="765" y="383.3638">q</text></g><!--link SinEdicion to Navegando--><g id="link_SinEdicion_Navegando"><path d="M684.03,230.3069 C675.39,282.5969 655.3083,404.0372 639.0883,502.1872 " fill="transparent" id="SinEdicion-to-Navegando" style="stroke:#181818;stroke-width:1;"/><polygon fill="#181818" points="638.11,508.1069,643.5239,499.8795,638.9252,503.1738,635.6309,498.5751,638.11,508.1069" style="stroke:#181818;stroke-width:1;"/><text fill="#000000" font-family="sans-serif" font-size="13" lengthAdjust="spacing" textLength="46.7632" x="661" y="383.3638">w/a/s/d</text></g><!--link *start*Editando to IngresandoContenido--><g id="link_*start*Editando_IngresandoContenido"><path d="M264,352.4969 C264,364.9769 264,381.7169 264,399.2269 " fill="transparent" id="*start*Editando-to-IngresandoContenido" style="stroke:#181818;stroke-width:1;"/><polygon fill="#181818" points="264,405.2269,268,396.2269,264,400.2269,260,396.2269,264,405.2269" style="stroke:#181818;stroke-width:1;"/></g><!--link IngresandoContenido to ContenidoLargo--><g id="link_IngresandoContenido_ContenidoLargo"><path d="M178.97,439.2069 C133.49,445.3869 84.01,455.9269 70,473.2969 C33.29,518.8069 90.018,575.0924 131.728,607.9724 " fill="transparent" id="IngresandoContenido-to-ContenidoLargo" style="stroke:#181818;stroke-width:1;"/><polygon fill="#181818" points="136.44,611.6869,131.8483,602.9739,132.5133,608.5915,126.8957,609.2565,136.44,611.6869" style="stroke:#181818;stroke-width:1;"/><text fill="#000000" font-family="sans-serif" font-size="13" lengthAdjust="spacing" textLength="130.0952" x="71" y="486.3638">ingresarContenido()</text></g><!--link ContenidoLargo to IngresandoContenido--><g id="link_ContenidoLargo_IngresandoContenido"><path d="M181.14,611.5669 C199.22,572.2269 232.2543,500.3686 250.3443,461.0086 " fill="transparent" id="ContenidoLargo-to-IngresandoContenido" style="stroke:#181818;stroke-width:1;"/><polygon fill="#181818" points="252.85,455.5569,245.457,462.0641,250.762,460.1,252.726,465.405,252.85,455.5569" style="stroke:#181818;stroke-width:1;"/><text fill="#000000" font-family="sans-serif" font-size="13" lengthAdjust="spacing" textLength="163.1348" x="244" y="486.3638">mostrarContenidoCorto()</text></g><!--link IngresandoContenido to Navegando--><g id="link_IngresandoContenido_Navegando"><path d="M349.16,449.2869 C370.32,455.4169 392.51,463.3169 412,473.2969 C431.5,483.2869 446.0008,491.8804 464.6908,504.7704 " fill="transparent" id="IngresandoContenido-to-Navegando" style="stroke:#181818;stroke-width:1;"/><polygon fill="#181818" points="469.63,508.1769,464.4921,499.7744,465.514,505.3382,459.9502,506.36,469.63,508.1769" style="stroke:#181818;stroke-width:1;"/><text fill="#000000" font-family="sans-serif" font-size="13" lengthAdjust="spacing" textLength="46.7632" x="437" y="486.3638">w/a/s/d</text></g><!--link IngresandoContenido to Terminada--><g id="link_IngresandoContenido_Terminada"><path d="M349,442.3569 C499.22,462.0369 796.76,501.6969 806,508.2969 C823.99,521.1469 834.6729,535.0973 844.4229,554.8373 " fill="transparent" id="IngresandoContenido-to-Terminada" style="stroke:#181818;stroke-width:1;"/><polygon fill="#181818" points="847.08,560.2169,846.6808,550.3761,844.8658,555.7339,839.508,553.9189,847.08,560.2169" style="stroke:#181818;stroke-width:1;"/><text fill="#000000" font-family="sans-serif" font-size="13" lengthAdjust="spacing" textLength="8.252" x="697" y="486.3638">q</text></g><!--link SinEdicion to Terminada--><g id="link_SinEdicion_Terminada"><path d="M712.57,230.4269 C723.87,242.5169 736.78,257.8369 746,273.2969 C800.65,364.9169 834.4302,478.0497 853.1202,554.2197 " fill="transparent" id="SinEdicion-to-Terminada-1" style="stroke:#181818;stroke-width:1;"/><polygon fill="#181818" points="854.55,560.0469,856.29,550.3529,853.3585,555.1909,848.5205,552.2594,854.55,560.0469" style="stroke:#181818;stroke-width:1;"/><text fill="#000000" font-family="sans-serif" font-size="13" lengthAdjust="spacing" textLength="8.252" x="801" y="383.3638">q</text></g><ellipse cx="471.5" cy="16" fill="#222222" rx="10" ry="10" style="stroke:#222222;stroke-width:1;"/><!--link *start* to HojaDeCalculoIniciada--><g id="link_*start*_HojaDeCalculoIniciada"><path d="M471.5,26.01 C471.5,37.33 471.5,52.62 471.5,79.72 " fill="transparent" id="*start*-to-HojaDeCalculoIniciada" style="stroke:#181818;stroke-width:1;"/><polygon fill="#181818" points="471.5,85.72,475.5,76.72,471.5,80.72,467.5,76.72,471.5,85.72" style="stroke:#181818;stroke-width:1;"/></g><!--SRC=[VPFDQiCm48JlVWeTcqBmFOT2SLfgAAMGta8F6sjn5Ho9h9G6KlBkrOzZ9RQKcxKpclrOhTUFtsm-Vs9lQWjBhA1h3fsgfMW4S2WARS1WMcH_1MFh_lfAo1TkwqhQOZnupNuRa5on1SEf-eMq4zBbBTX-Ad_0BxRzxMC9fIvvOLs1AugE9T9yAkqJ0chdjL7D-vw9nCOrFcOjzMb_44WU3_916zWwGfrrB96m-N4ft7lwrWdQ0IUsJhi2JcYTTWISI-kqn-6SuqY7nxgTQ2rRGks4Iac3Kd0L6ATrxnzExq2jcum8HXg4XvaF61aplMp0Jcb3L_ShHUOIagD8BSyz_tWNh-OIfTl1lDfY9qxkP-dzT_Vx_0y0]--></g></svg>