<svg xmlns="http://www.w3.org/2000/svg" xmlns:xlink="http://www.w3.org/1999/xlink" contentStyleType="text/css" data-diagram-type="CLASS" height="331px" preserveAspectRatio="none" style="width:419px;height:331px;background:#FFFFFF;" version="1.1" viewBox="0 0 419 331" width="419px" zoomAndPan="magnify"><defs/><g><!--class HojaCalculo--><g id="elem_HojaCalculo"><rect codeLine="1" fill="#F1F1F1" height="129.4844" id="HojaCalculo" rx="2.5" ry="2.5" style="stroke:#181818;stroke-width:0.5;" width="330.0898" x="32" y="7"/><ellipse cx="151.3794" cy="23" fill="#ADD1B2" rx="11" ry="11" style="stroke:#181818;stroke-width:1;"/><path d="M154.3481,28.6406 Q153.77,28.9375 153.1294,29.0781 Q152.4888,29.2344 151.7856,29.2344 Q149.2856,29.2344 147.9575,27.5938 Q146.645,25.9375 146.645,22.8125 Q146.645,19.6875 147.9575,18.0313 Q149.2856,16.375 151.7856,16.375 Q152.4888,16.375 153.1294,16.5313 Q153.7856,16.6875 154.3481,16.9844 L154.3481,19.7031 Q153.7231,19.125 153.1294,18.8594 Q152.5356,18.5781 151.9106,18.5781 Q150.5669,18.5781 149.8794,19.6563 Q149.1919,20.7188 149.1919,22.8125 Q149.1919,24.9063 149.8794,25.9844 Q150.5669,27.0469 151.9106,27.0469 Q152.5356,27.0469 153.1294,26.7813 Q153.7231,26.5 154.3481,25.9219 L154.3481,28.6406 Z " fill="#000000"/><text fill="#000000" font-family="sans-serif" font-size="14" lengthAdjust="spacing" textLength="82.8311" x="171.8794" y="27.8467">HojaCalculo</text><line style="stroke:#181818;stroke-width:0.5;" x1="33" x2="361.0898" y1="39" y2="39"/><rect fill="transparent" height="6" style="stroke:#C82930;stroke-width:1;" width="6" x="40" y="49.6484"/><text fill="#000000" font-family="sans-serif" font-size="14" lengthAdjust="spacing" textLength="97.0088" x="52" y="55.9951">matriz: Matriz</text><rect fill="transparent" height="6" style="stroke:#C82930;stroke-width:1;" width="6" x="40" y="65.9453"/><text fill="#000000" font-family="sans-serif" font-size="14" lengthAdjust="spacing" textLength="169.5654" x="52" y="72.292">interfaz: InterfazUsuario</text><line style="stroke:#181818;stroke-width:0.5;" x1="33" x2="361.0898" y1="79.5938" y2="79.5938"/><ellipse cx="43" cy="93.2422" fill="#84BE84" rx="3" ry="3" style="stroke:#038048;stroke-width:1;"/><text fill="#000000" font-family="sans-serif" font-size="14" lengthAdjust="spacing" textLength="107.2285" x="52" y="96.5889">ejecutar(): void</text><ellipse cx="43" cy="109.5391" fill="#84BE84" rx="3" ry="3" style="stroke:#038048;stroke-width:1;"/><text fill="#000000" font-family="sans-serif" font-size="14" lengthAdjust="spacing" textLength="210.6631" x="52" y="112.8857">asignarMatriz(m: Matriz): void</text><ellipse cx="43" cy="125.8359" fill="#84BE84" rx="3" ry="3" style="stroke:#038048;stroke-width:1;"/><text fill="#000000" font-family="sans-serif" font-size="14" lengthAdjust="spacing" textLength="304.0898" x="52" y="129.1826">configurarInterfaz(ui: InterfazUsuario): void</text></g><!--class Matriz--><g id="elem_Matriz"><rect codeLine="9" fill="#F1F1F1" height="64.2969" id="Matriz" rx="2.5" ry="2.5" style="stroke:#181818;stroke-width:0.5;" width="163.8398" x="7" y="244.5"/><ellipse cx="63.0991" cy="260.5" fill="#ADD1B2" rx="11" ry="11" style="stroke:#181818;stroke-width:1;"/><path d="M66.0679,266.1406 Q65.4897,266.4375 64.8491,266.5781 Q64.2085,266.7344 63.5054,266.7344 Q61.0054,266.7344 59.6772,265.0938 Q58.3647,263.4375 58.3647,260.3125 Q58.3647,257.1875 59.6772,255.5313 Q61.0054,253.875 63.5054,253.875 Q64.2085,253.875 64.8491,254.0313 Q65.5054,254.1875 66.0679,254.4844 L66.0679,257.2031 Q65.4429,256.625 64.8491,256.3594 Q64.2554,256.0781 63.6304,256.0781 Q62.2866,256.0781 61.5991,257.1563 Q60.9116,258.2188 60.9116,260.3125 Q60.9116,262.4063 61.5991,263.4844 Q62.2866,264.5469 63.6304,264.5469 Q64.2554,264.5469 64.8491,264.2813 Q65.4429,264 66.0679,263.4219 L66.0679,266.1406 Z " fill="#000000"/><text fill="#000000" font-family="sans-serif" font-size="14" lengthAdjust="spacing" textLength="43.1416" x="83.5991" y="265.3467">Matriz</text><line style="stroke:#181818;stroke-width:0.5;" x1="8" x2="169.8398" y1="276.5" y2="276.5"/><text fill="#000000" font-family="sans-serif" font-size="14" lengthAdjust="spacing" textLength="151.8398" x="13" y="293.4951">// m&#233;todos existentes</text><line style="stroke:#181818;stroke-width:0.5;" x1="8" x2="169.8398" y1="300.7969" y2="300.7969"/></g><!--class InterfazUsuario--><g id="elem_InterfazUsuario"><rect codeLine="13" fill="#F1F1F1" height="96.8906" id="InterfazUsuario" rx="2.5" ry="2.5" style="stroke:#181818;stroke-width:0.5;" width="179.2275" x="215.5" y="228"/><ellipse cx="248.638" cy="244" fill="#ADD1B2" rx="11" ry="11" style="stroke:#181818;stroke-width:1;"/><path d="M251.6067,249.6406 Q251.0286,249.9375 250.388,250.0781 Q249.7474,250.2344 249.0442,250.2344 Q246.5442,250.2344 245.2161,248.5938 Q243.9036,246.9375 243.9036,243.8125 Q243.9036,240.6875 245.2161,239.0313 Q246.5442,237.375 249.0442,237.375 Q249.7474,237.375 250.388,237.5313 Q251.0442,237.6875 251.6067,237.9844 L251.6067,240.7031 Q250.9817,240.125 250.388,239.8594 Q249.7942,239.5781 249.1692,239.5781 Q247.8255,239.5781 247.138,240.6563 Q246.4505,241.7188 246.4505,243.8125 Q246.4505,245.9063 247.138,246.9844 Q247.8255,248.0469 249.1692,248.0469 Q249.7942,248.0469 250.388,247.7813 Q250.9817,247.5 251.6067,246.9219 L251.6067,249.6406 Z " fill="#000000"/><text fill="#000000" font-family="sans-serif" font-size="14" lengthAdjust="spacing" textLength="106.9209" x="266.6687" y="248.8467">InterfazUsuario</text><line style="stroke:#181818;stroke-width:0.5;" x1="216.5" x2="393.7275" y1="260" y2="260"/><rect fill="transparent" height="6" style="stroke:#C82930;stroke-width:1;" width="6" x="223.5" y="270.6484"/><text fill="#000000" font-family="sans-serif" font-size="14" lengthAdjust="spacing" textLength="115.6709" x="235.5" y="276.9951">teclado: Teclado</text><line style="stroke:#181818;stroke-width:0.5;" x1="216.5" x2="393.7275" y1="284.2969" y2="284.2969"/><ellipse cx="226.5" cy="297.9453" fill="#84BE84" rx="3" ry="3" style="stroke:#038048;stroke-width:1;"/><text fill="#000000" font-family="sans-serif" font-size="14" lengthAdjust="spacing" textLength="104.7949" x="235.5" y="301.292">mostrar(): void</text><ellipse cx="226.5" cy="314.2422" fill="#84BE84" rx="3" ry="3" style="stroke:#038048;stroke-width:1;"/><text fill="#000000" font-family="sans-serif" font-size="14" lengthAdjust="spacing" textLength="153.2275" x="235.5" y="317.5889">actualizarVista(): void</text></g><!--link HojaCalculo to Matriz--><g id="link_HojaCalculo_Matriz"><path codeLine="19" d="M105.84,136.23 C97.9,145.32 90.99,155.26 86,166 C74.61,190.49 76.78,221.5 80.97,244.26 " fill="transparent" id="HojaCalculo-Matriz" style="stroke:#181818;stroke-width:1;"/><text fill="#000000" font-family="sans-serif" font-size="13" lengthAdjust="spacing" textLength="38.9619" x="152.5522" y="179.0669">utiliza</text><text fill="#000000" font-family="sans-serif" font-size="13" lengthAdjust="spacing" textLength="174.1987" x="87" y="194.1997">(existencia independiente)</text></g><!--link HojaCalculo to InterfazUsuario--><g id="link_HojaCalculo_InterfazUsuario"><path codeLine="20" d="M247.65,136.01 C254.29,145.76 260.65,155.94 266,166 C276.33,185.42 284.94,208.15 291.41,227.86 " fill="transparent" id="HojaCalculo-InterfazUsuario" style="stroke:#181818;stroke-width:1;"/><text fill="#000000" font-family="sans-serif" font-size="13" lengthAdjust="spacing" textLength="56.2847" x="316.2104" y="179.0669">contiene</text><text fill="#000000" font-family="sans-serif" font-size="13" lengthAdjust="spacing" textLength="130.8379" x="281" y="194.1997">(referencia externa)</text></g><!--SRC=[PP0nRiCm34LtduAZZCB8hhLBEtHhEsKX93fWO4i5HHL1YXmev-Z5AjjocpfQH92Vduzq0wO4J_68ZpYuF4JuQg2y3aPKuRE5b_clIGvAqcD9FzVeBMKKZdFz0UX8BYkAQIryHlOrZOaF0MMnCkDg-b_aOkZva0LbzJQPxmQjFPUcSJFxObMnTpiOlwyQVKn09qvAfJlzYJTclyigbRgF5bwNe2ADCQdSR-Cquy1dbFSo0SqDqkqXkmvME0jPUUg0VJ2Lop6MSthweE1vmcottLjOEvr8YvOc6w6UPB6XKn46R7y0]--></g></svg>