<?xml version="1.0" encoding="us-ascii" standalone="no"?><svg xmlns="http://www.w3.org/2000/svg" xmlns:xlink="http://www.w3.org/1999/xlink" contentStyleType="text/css" height="410px" preserveAspectRatio="none" style="width:490px;height:410px;background:#FFFFFF;" version="1.1" viewBox="0 0 490 410" width="490px" zoomAndPan="magnify"><defs/><g><!--cluster Hoja de calculo--><g id="cluster_Hoja de calculo"><path d="M8.5,6 L119.5,6 A3.75,3.75 0 0 1 122,8.5 L129,28.4883 L480.5,28.4883 A2.5,2.5 0 0 1 483,30.9883 L483,400.94 A2.5,2.5 0 0 1 480.5,403.44 L8.5,403.44 A2.5,2.5 0 0 1 6,400.94 L6,8.5 A2.5,2.5 0 0 1 8.5,6 " fill="none" style="stroke:#000000;stroke-width:1.5;"/><line style="stroke:#000000;stroke-width:1.5;" x1="6" x2="129" y1="28.4883" y2="28.4883"/><text fill="#000000" font-family="sans-serif" font-size="14" font-weight="bold" lengthAdjust="spacing" textLength="110" x="10" y="21.5352">Hoja de calculo</text></g><!--class HojaCalculo--><g id="elem_HojaCalculo"><rect codeLine="7" fill="#F1F1F1" height="26.4883" id="HojaCalculo" rx="2.5" ry="2.5" style="stroke:#181818;stroke-width:0.5;" width="88" x="264" y="41"/><text fill="#000000" font-family="sans-serif" font-size="14" lengthAdjust="spacing" textLength="82" x="267" y="59.5352">HojaCalculo</text></g><!--class Matriz--><g id="elem_Matriz"><rect codeLine="11" fill="#F1F1F1" height="26.4883" id="Matriz" rx="2.5" ry="2.5" style="stroke:#181818;stroke-width:0.5;" width="49" x="97.5" y="200.98"/><text fill="#000000" font-family="sans-serif" font-size="14" lengthAdjust="spacing" textLength="43" x="100.5" y="219.5152">Matriz</text></g><!--class Celda--><g id="elem_Celda"><rect codeLine="14" fill="#F1F1F1" height="26.4883" id="Celda" rx="2.5" ry="2.5" style="stroke:#181818;stroke-width:0.5;" width="45" x="194.5" y="360.95"/><text fill="#000000" font-family="sans-serif" font-size="14" lengthAdjust="spacing" textLength="39" x="197.5" y="379.4852">Celda</text></g><!--class Posicion--><g id="elem_Posicion"><rect codeLine="18" fill="#F1F1F1" height="26.4883" id="Posicion" rx="2.5" ry="2.5" style="stroke:#181818;stroke-width:0.5;" width="63" x="403.5" y="257.46"/><text fill="#000000" font-family="sans-serif" font-size="14" lengthAdjust="spacing" textLength="57" x="406.5" y="275.9952">Posicion</text></g><!--class InterfazUsuario--><g id="elem_InterfazUsuario"><rect codeLine="22" fill="#F1F1F1" height="26.4883" id="InterfazUsuario" rx="2.5" ry="2.5" style="stroke:#181818;stroke-width:0.5;" width="112" x="252" y="144.49"/><text fill="#000000" font-family="sans-serif" font-size="14" lengthAdjust="spacing" textLength="106" x="255" y="163.0252">InterfazUsuario</text></g><!--class Teclado--><g id="elem_Teclado"><rect codeLine="26" fill="#F1F1F1" height="26.4883" id="Teclado" rx="2.5" ry="2.5" style="stroke:#181818;stroke-width:0.5;" width="60" x="309" y="257.46"/><text fill="#000000" font-family="sans-serif" font-size="14" lengthAdjust="spacing" textLength="54" x="312" y="275.9952">Teclado</text></g><!--link HojaCalculo to Matriz--><g id="link_HojaCalculo_Matriz"><path codeLine="30" d="M286.89,67.86 C274.1,75.83 257.66,86.64 244,97.49 C200.79,131.8 159.0293,174.1864 137.9593,196.2964 " fill="none" id="HojaCalculo-to-Matriz" style="stroke:#181818;stroke-width:1.0;"/><polygon fill="#181818" points="133.82,200.64,142.9246,196.8842,137.2694,197.0204,137.1332,191.3651,133.82,200.64" style="stroke:#181818;stroke-width:1.0;"/><text fill="#000000" font-family="sans-serif" font-size="13" lengthAdjust="spacing" textLength="54" x="245" y="111.0584">contiene</text><text fill="#000000" font-family="sans-serif" font-size="13" lengthAdjust="spacing" textLength="8" x="269.9446" y="88.0062">1</text><text fill="#000000" font-family="sans-serif" font-size="13" lengthAdjust="spacing" textLength="8" x="128.8014" y="190.2292">1</text></g><!--link HojaCalculo to Posicion--><g id="link_HojaCalculo_Posicion"><path codeLine="31" d="M324.37,67.62 C334.36,75.59 347.07,86.47 357,97.49 C394.51,139.11 409.92,148.29 429,200.98 C435.77,219.67 436.4797,237.0233 436.0097,251.1333 " fill="none" id="HojaCalculo-to-Posicion" style="stroke:#181818;stroke-width:1.0;"/><polygon fill="#181818" points="435.81,257.13,440.1074,248.2682,435.9765,252.1328,432.1118,248.0018,435.81,257.13" style="stroke:#181818;stroke-width:1.0;"/><text fill="#000000" font-family="sans-serif" font-size="13" lengthAdjust="spacing" textLength="31" x="416.92" y="162.7984">tiene</text><text fill="#000000" font-family="sans-serif" font-size="13" lengthAdjust="spacing" textLength="8" x="320.9314" y="87.9436">1</text><text fill="#000000" font-family="sans-serif" font-size="13" lengthAdjust="spacing" textLength="8" x="426.5938" y="246.723">1</text></g><!--link HojaCalculo to InterfazUsuario--><g id="link_HojaCalculo_InterfazUsuario"><path codeLine="32" d="M308,67.69 C308,87.17 308,118.64 308,138.18 " fill="none" id="HojaCalculo-to-InterfazUsuario" style="stroke:#181818;stroke-width:1.0;"/><polygon fill="#181818" points="308,144.18,312,135.18,308,139.18,304,135.18,308,144.18" style="stroke:#181818;stroke-width:1.0;"/><text fill="#000000" font-family="sans-serif" font-size="13" lengthAdjust="spacing" textLength="39" x="309" y="111.0584">utiliza</text><text fill="#000000" font-family="sans-serif" font-size="13" lengthAdjust="spacing" textLength="8" x="298.525" y="88.0394">1</text><text fill="#000000" font-family="sans-serif" font-size="13" lengthAdjust="spacing" textLength="8" x="298.475" y="133.7807">1</text></g><!--reverse link Matriz to Celda--><g id="link_Matriz_Celda"><path codeLine="33" d="M97.1537,235.9682 C88.8837,243.5482 88.45,245.86 84,257.46 C79.78,268.46 78.46,273.56 84,283.95 C107.36,327.75 162.8,353.86 194.23,365.65 " fill="none" id="Matriz-backto-Celda" style="stroke:#181818;stroke-width:1.0;"/><polygon fill="#181818" points="106,227.86,98.8741,228.9653,97.1537,235.9682,104.2796,234.8629,106,227.86" style="stroke:#181818;stroke-width:1.0;"/><text fill="#000000" font-family="sans-serif" font-size="13" lengthAdjust="spacing" textLength="88" x="85" y="275.7784">compuesta de</text><text fill="#000000" font-family="sans-serif" font-size="13" lengthAdjust="spacing" textLength="8" x="90.875" y="248.0133">1</text><text fill="#000000" font-family="sans-serif" font-size="13" lengthAdjust="spacing" textLength="6" x="180.6601" y="358.551">*</text></g><!--link Teclado to Celda--><g id="link_Teclado_Celda"><path codeLine="34" d="M324.04,284.15 C300.63,303.63 260.1827,337.273 236.6927,356.813 " fill="none" id="Teclado-to-Celda" style="stroke:#181818;stroke-width:1.0;"/><polygon fill="#181818" points="232.08,360.65,241.5571,357.9696,235.9239,357.4525,236.441,351.8193,232.08,360.65" style="stroke:#181818;stroke-width:1.0;"/><text fill="#000000" font-family="sans-serif" font-size="13" lengthAdjust="spacing" textLength="55" x="286.3" y="327.5184">modifica</text><text fill="#000000" font-family="sans-serif" font-size="13" lengthAdjust="spacing" textLength="8" x="309.0485" y="304.4994">1</text><text fill="#000000" font-family="sans-serif" font-size="13" lengthAdjust="spacing" textLength="8" x="228.3043" y="350.2545">1</text></g><!--link InterfazUsuario to Teclado--><g id="link_InterfazUsuario_Teclado"><path codeLine="35" d="M305.38,171.28 C302.98,185.36 300.69,208.68 307,227.46 C310.81,238.8 314.9487,245.0942 322.0887,252.8942 " fill="none" id="InterfazUsuario-to-Teclado" style="stroke:#181818;stroke-width:1.0;"/><polygon fill="#181818" points="326.14,257.32,323.0136,247.9805,322.7639,253.6319,317.1126,253.3822,326.14,257.32" style="stroke:#181818;stroke-width:1.0;"/><text fill="#000000" font-family="sans-serif" font-size="13" lengthAdjust="spacing" textLength="22" x="308" y="219.2884">usa</text><text fill="#000000" font-family="sans-serif" font-size="13" lengthAdjust="spacing" textLength="8" x="294.9389" y="191.6663">1</text><text fill="#000000" font-family="sans-serif" font-size="13" lengthAdjust="spacing" textLength="8" x="311.5014" y="246.7264">1</text></g><!--link InterfazUsuario to Posicion--><g id="link_InterfazUsuario_Posicion"><path codeLine="36" d="M318.31,171.47 C330.36,185.93 351.28,209.8 372,227.46 C384.93,238.48 395.7286,245.9455 408.3186,253.7955 " fill="none" id="InterfazUsuario-to-Posicion" style="stroke:#181818;stroke-width:1.0;stroke-dasharray:7.0,7.0;"/><polygon fill="#181818" points="413.41,256.97,407.8893,248.8139,409.1672,254.3246,403.6565,255.6025,413.41,256.97" style="stroke:#181818;stroke-width:1.0;"/><text fill="#000000" font-family="sans-serif" font-size="13" lengthAdjust="spacing" textLength="51" x="373" y="219.2884">muestra</text></g><!--link InterfazUsuario to Celda--><g id="link_InterfazUsuario_Celda"><path codeLine="37" d="M295.59,171.19 C278.87,188.77 249.54,222.64 235,257.46 C220.27,292.74 217.5934,332.6213 217.1434,354.5013 " fill="none" id="InterfazUsuario-to-Celda" style="stroke:#181818;stroke-width:1.0;stroke-dasharray:7.0,7.0;"/><polygon fill="#181818" points="217.02,360.5,221.2042,351.5842,217.1228,355.5011,213.2059,351.4197,217.02,360.5" style="stroke:#181818;stroke-width:1.0;"/><text fill="#000000" font-family="sans-serif" font-size="13" lengthAdjust="spacing" textLength="55" x="236" y="275.7784">visualiza</text></g><!--SRC=[XP6nRi8m48PtdkBaCLAGM3EmiC20r04UuEeSvS2E8zkfr5IyUsCd1Yi2kjZIVVz_zvyD073cca2obOhS0bA1TEj_G9F-9EiMiTwYlE8NWTYQ2q8mePATCk9tv5AXSn3WPWGmWLiyCyqUlUL-m2FDo8PKZGzVHZwCOyccUGftZITxmlxeEhJyUl21XhisinvvPB4IK9RhU4ynAv2cyKmDlLNV0rRmltWUk8BEi-8UesiQ78H5MO8enFGm8OfkEt8-V43KffNoxaciJSqdbcFJ-SZSa9eCCTnpzNAvpZVK8ODzBKq9ldaetlUw_G40]--></g></svg>