<svg xmlns="http://www.w3.org/2000/svg" xmlns:xlink="http://www.w3.org/1999/xlink" contentStyleType="text/css" data-diagram-type="CLASS" height="600px" preserveAspectRatio="none" style="width:784px;height:600px;background:#FFFFFF;" version="1.1" viewBox="0 0 784 600" width="784px" zoomAndPan="magnify"><defs/><g><!--cluster HojaDeCalculo--><g id="cluster_HojaDeCalculo"><rect fill="transparent" height="587" rx="2.5" ry="2.5" style="stroke:#000000;stroke-width:1.5;" width="771" x="7" y="7"/><text fill="#000000" font-family="sans-serif" font-size="14" font-weight="bold" lengthAdjust="spacing" textLength="113.9004" x="335.5498" y="21.9951">HojaDeCalculo</text></g><!--cluster Controlador--><g id="cluster_Controlador"><rect fill="transparent" height="245" rx="2.5" ry="2.5" style="stroke:#000000;stroke-width:1.5;" width="178" x="31" y="50"/><text fill="#000000" font-family="sans-serif" font-size="14" font-weight="bold" lengthAdjust="spacing" textLength="93.8643" x="73.0679" y="64.9951">Controlador</text></g><!--cluster Modelo--><g id="cluster_Modelo"><rect fill="transparent" height="226" rx="2.5" ry="2.5" style="stroke:#000000;stroke-width:1.5;" width="230" x="471" y="344"/><text fill="#000000" font-family="sans-serif" font-size="14" font-weight="bold" lengthAdjust="spacing" textLength="57.4834" x="557.2583" y="358.9951">Modelo</text></g><!--cluster Util--><g id="cluster_Util"><rect fill="transparent" height="99" rx="2.5" ry="2.5" style="stroke:#000000;stroke-width:1.5;" width="280" x="167" y="344"/><text fill="#000000" font-family="sans-serif" font-size="14" font-weight="bold" lengthAdjust="spacing" textLength="27.6582" x="293.1709" y="358.9951">Util</text></g><!--cluster Vista--><g id="cluster_Vista"><rect fill="transparent" height="99" rx="2.5" ry="2.5" style="stroke:#000000;stroke-width:1.5;" width="506" x="248" y="196"/><text fill="#000000" font-family="sans-serif" font-size="14" font-weight="bold" lengthAdjust="spacing" textLength="40.1064" x="480.9468" y="210.9951">Vista</text></g><!--class ControladorHoja--><g id="elem_ControladorHoja"><rect codeLine="7" fill="#F1F1F1" height="48" id="ControladorHoja" rx="2.5" ry="2.5" style="stroke:#181818;stroke-width:0.5;" width="146.2627" x="47" y="85"/><ellipse cx="62" cy="101" fill="#ADD1B2" rx="11" ry="11" style="stroke:#181818;stroke-width:1;"/><path d="M64.9688,106.6406 Q64.3906,106.9375 63.75,107.0781 Q63.1094,107.2344 62.4063,107.2344 Q59.9063,107.2344 58.5781,105.5938 Q57.2656,103.9375 57.2656,100.8125 Q57.2656,97.6875 58.5781,96.0313 Q59.9063,94.375 62.4063,94.375 Q63.1094,94.375 63.75,94.5313 Q64.4063,94.6875 64.9688,94.9844 L64.9688,97.7031 Q64.3438,97.125 63.75,96.8594 Q63.1563,96.5781 62.5313,96.5781 Q61.1875,96.5781 60.5,97.6563 Q59.8125,98.7188 59.8125,100.8125 Q59.8125,102.9063 60.5,103.9844 Q61.1875,105.0469 62.5313,105.0469 Q63.1563,105.0469 63.75,104.7813 Q64.3438,104.5 64.9688,103.9219 L64.9688,106.6406 Z " fill="#000000"/><text fill="#000000" font-family="sans-serif" font-size="14" lengthAdjust="spacing" textLength="114.2627" x="76" y="105.8467">ControladorHoja</text><line style="stroke:#181818;stroke-width:0.5;" x1="48" x2="192.2627" y1="117" y2="117"/><line style="stroke:#181818;stroke-width:0.5;" x1="48" x2="192.2627" y1="125" y2="125"/></g><!--class Teclado--><g id="elem_Teclado"><rect codeLine="8" fill="#F1F1F1" height="48" id="Teclado" rx="2.5" ry="2.5" style="stroke:#181818;stroke-width:0.5;" width="86.7832" x="47.5" y="231"/><ellipse cx="62.5" cy="247" fill="#ADD1B2" rx="11" ry="11" style="stroke:#181818;stroke-width:1;"/><path d="M65.4688,252.6406 Q64.8906,252.9375 64.25,253.0781 Q63.6094,253.2344 62.9063,253.2344 Q60.4063,253.2344 59.0781,251.5938 Q57.7656,249.9375 57.7656,246.8125 Q57.7656,243.6875 59.0781,242.0313 Q60.4063,240.375 62.9063,240.375 Q63.6094,240.375 64.25,240.5313 Q64.9063,240.6875 65.4688,240.9844 L65.4688,243.7031 Q64.8438,243.125 64.25,242.8594 Q63.6563,242.5781 63.0313,242.5781 Q61.6875,242.5781 61,243.6563 Q60.3125,244.7188 60.3125,246.8125 Q60.3125,248.9063 61,249.9844 Q61.6875,251.0469 63.0313,251.0469 Q63.6563,251.0469 64.25,250.7813 Q64.8438,250.5 65.4688,249.9219 L65.4688,252.6406 Z " fill="#000000"/><text fill="#000000" font-family="sans-serif" font-size="14" lengthAdjust="spacing" textLength="54.7832" x="76.5" y="251.8467">Teclado</text><line style="stroke:#181818;stroke-width:0.5;" x1="48.5" x2="133.2832" y1="263" y2="263"/><line style="stroke:#181818;stroke-width:0.5;" x1="48.5" x2="133.2832" y1="271" y2="271"/></g><!--class Celda--><g id="elem_Celda"><rect codeLine="12" fill="#F1F1F1" height="48" id="Celda" rx="2.5" ry="2.5" style="stroke:#181818;stroke-width:0.5;" width="71.7441" x="487" y="506"/><ellipse cx="502" cy="522" fill="#ADD1B2" rx="11" ry="11" style="stroke:#181818;stroke-width:1;"/><path d="M504.9688,527.6406 Q504.3906,527.9375 503.75,528.0781 Q503.1094,528.2344 502.4063,528.2344 Q499.9063,528.2344 498.5781,526.5938 Q497.2656,524.9375 497.2656,521.8125 Q497.2656,518.6875 498.5781,517.0313 Q499.9063,515.375 502.4063,515.375 Q503.1094,515.375 503.75,515.5313 Q504.4063,515.6875 504.9688,515.9844 L504.9688,518.7031 Q504.3438,518.125 503.75,517.8594 Q503.1563,517.5781 502.5313,517.5781 Q501.1875,517.5781 500.5,518.6563 Q499.8125,519.7188 499.8125,521.8125 Q499.8125,523.9063 500.5,524.9844 Q501.1875,526.0469 502.5313,526.0469 Q503.1563,526.0469 503.75,525.7813 Q504.3438,525.5 504.9688,524.9219 L504.9688,527.6406 Z " fill="#000000"/><text fill="#000000" font-family="sans-serif" font-size="14" lengthAdjust="spacing" textLength="39.7441" x="516" y="526.8467">Celda</text><line style="stroke:#181818;stroke-width:0.5;" x1="488" x2="557.7441" y1="538" y2="538"/><line style="stroke:#181818;stroke-width:0.5;" x1="488" x2="557.7441" y1="546" y2="546"/></g><!--class Matriz--><g id="elem_Matriz"><rect codeLine="13" fill="#F1F1F1" height="48" id="Matriz" rx="2.5" ry="2.5" style="stroke:#181818;stroke-width:0.5;" width="75.1416" x="486.5" y="379"/><ellipse cx="501.5" cy="395" fill="#ADD1B2" rx="11" ry="11" style="stroke:#181818;stroke-width:1;"/><path d="M504.4688,400.6406 Q503.8906,400.9375 503.25,401.0781 Q502.6094,401.2344 501.9063,401.2344 Q499.4063,401.2344 498.0781,399.5938 Q496.7656,397.9375 496.7656,394.8125 Q496.7656,391.6875 498.0781,390.0313 Q499.4063,388.375 501.9063,388.375 Q502.6094,388.375 503.25,388.5313 Q503.9063,388.6875 504.4688,388.9844 L504.4688,391.7031 Q503.8438,391.125 503.25,390.8594 Q502.6563,390.5781 502.0313,390.5781 Q500.6875,390.5781 500,391.6563 Q499.3125,392.7188 499.3125,394.8125 Q499.3125,396.9063 500,397.9844 Q500.6875,399.0469 502.0313,399.0469 Q502.6563,399.0469 503.25,398.7813 Q503.8438,398.5 504.4688,397.9219 L504.4688,400.6406 Z " fill="#000000"/><text fill="#000000" font-family="sans-serif" font-size="14" lengthAdjust="spacing" textLength="43.1416" x="515.5" y="399.8467">Matriz</text><line style="stroke:#181818;stroke-width:0.5;" x1="487.5" x2="560.6416" y1="411" y2="411"/><line style="stroke:#181818;stroke-width:0.5;" x1="487.5" x2="560.6416" y1="419" y2="419"/></g><!--class Posicion--><g id="elem_Posicion"><rect codeLine="14" fill="#F1F1F1" height="48" id="Posicion" rx="2.5" ry="2.5" style="stroke:#181818;stroke-width:0.5;" width="89.2168" x="596.5" y="379"/><ellipse cx="611.5" cy="395" fill="#ADD1B2" rx="11" ry="11" style="stroke:#181818;stroke-width:1;"/><path d="M614.4688,400.6406 Q613.8906,400.9375 613.25,401.0781 Q612.6094,401.2344 611.9063,401.2344 Q609.4063,401.2344 608.0781,399.5938 Q606.7656,397.9375 606.7656,394.8125 Q606.7656,391.6875 608.0781,390.0313 Q609.4063,388.375 611.9063,388.375 Q612.6094,388.375 613.25,388.5313 Q613.9063,388.6875 614.4688,388.9844 L614.4688,391.7031 Q613.8438,391.125 613.25,390.8594 Q612.6563,390.5781 612.0313,390.5781 Q610.6875,390.5781 610,391.6563 Q609.3125,392.7188 609.3125,394.8125 Q609.3125,396.9063 610,397.9844 Q610.6875,399.0469 612.0313,399.0469 Q612.6563,399.0469 613.25,398.7813 Q613.8438,398.5 614.4688,397.9219 L614.4688,400.6406 Z " fill="#000000"/><text fill="#000000" font-family="sans-serif" font-size="14" lengthAdjust="spacing" textLength="57.2168" x="625.5" y="399.8467">Posicion</text><line style="stroke:#181818;stroke-width:0.5;" x1="597.5" x2="684.7168" y1="411" y2="411"/><line style="stroke:#181818;stroke-width:0.5;" x1="597.5" x2="684.7168" y1="419" y2="419"/></g><!--class Constantes--><g id="elem_Constantes"><rect codeLine="18" fill="#F1F1F1" height="48" id="Constantes" rx="2.5" ry="2.5" style="stroke:#181818;stroke-width:0.5;" width="110.8457" x="320.5" y="379"/><ellipse cx="335.5" cy="395" fill="#ADD1B2" rx="11" ry="11" style="stroke:#181818;stroke-width:1;"/><path d="M338.4688,400.6406 Q337.8906,400.9375 337.25,401.0781 Q336.6094,401.2344 335.9063,401.2344 Q333.4063,401.2344 332.0781,399.5938 Q330.7656,397.9375 330.7656,394.8125 Q330.7656,391.6875 332.0781,390.0313 Q333.4063,388.375 335.9063,388.375 Q336.6094,388.375 337.25,388.5313 Q337.9063,388.6875 338.4688,388.9844 L338.4688,391.7031 Q337.8438,391.125 337.25,390.8594 Q336.6563,390.5781 336.0313,390.5781 Q334.6875,390.5781 334,391.6563 Q333.3125,392.7188 333.3125,394.8125 Q333.3125,396.9063 334,397.9844 Q334.6875,399.0469 336.0313,399.0469 Q336.6563,399.0469 337.25,398.7813 Q337.8438,398.5 338.4688,397.9219 L338.4688,400.6406 Z " fill="#000000"/><text fill="#000000" font-family="sans-serif" font-size="14" lengthAdjust="spacing" textLength="78.8457" x="349.5" y="399.8467">Constantes</text><line style="stroke:#181818;stroke-width:0.5;" x1="321.5" x2="430.3457" y1="411" y2="411"/><line style="stroke:#181818;stroke-width:0.5;" x1="321.5" x2="430.3457" y1="419" y2="419"/></g><!--class Utilidades--><g id="elem_Utilidades"><rect codeLine="19" fill="#F1F1F1" height="48" id="Utilidades" rx="2.5" ry="2.5" style="stroke:#181818;stroke-width:0.5;" width="101.665" x="183" y="379"/><ellipse cx="198" cy="395" fill="#ADD1B2" rx="11" ry="11" style="stroke:#181818;stroke-width:1;"/><path d="M200.9688,400.6406 Q200.3906,400.9375 199.75,401.0781 Q199.1094,401.2344 198.4063,401.2344 Q195.9063,401.2344 194.5781,399.5938 Q193.2656,397.9375 193.2656,394.8125 Q193.2656,391.6875 194.5781,390.0313 Q195.9063,388.375 198.4063,388.375 Q199.1094,388.375 199.75,388.5313 Q200.4063,388.6875 200.9688,388.9844 L200.9688,391.7031 Q200.3438,391.125 199.75,390.8594 Q199.1563,390.5781 198.5313,390.5781 Q197.1875,390.5781 196.5,391.6563 Q195.8125,392.7188 195.8125,394.8125 Q195.8125,396.9063 196.5,397.9844 Q197.1875,399.0469 198.5313,399.0469 Q199.1563,399.0469 199.75,398.7813 Q200.3438,398.5 200.9688,397.9219 L200.9688,400.6406 Z " fill="#000000"/><text fill="#000000" font-family="sans-serif" font-size="14" lengthAdjust="spacing" textLength="69.665" x="212" y="399.8467">Utilidades</text><line style="stroke:#181818;stroke-width:0.5;" x1="184" x2="283.665" y1="411" y2="411"/><line style="stroke:#181818;stroke-width:0.5;" x1="184" x2="283.665" y1="419" y2="419"/></g><!--class InterfazUsuario--><g id="elem_InterfazUsuario"><rect codeLine="23" fill="#F1F1F1" height="48" id="InterfazUsuario" rx="2.5" ry="2.5" style="stroke:#181818;stroke-width:0.5;" width="138.9209" x="264.5" y="231"/><ellipse cx="279.5" cy="247" fill="#ADD1B2" rx="11" ry="11" style="stroke:#181818;stroke-width:1;"/><path d="M282.4688,252.6406 Q281.8906,252.9375 281.25,253.0781 Q280.6094,253.2344 279.9063,253.2344 Q277.4063,253.2344 276.0781,251.5938 Q274.7656,249.9375 274.7656,246.8125 Q274.7656,243.6875 276.0781,242.0313 Q277.4063,240.375 279.9063,240.375 Q280.6094,240.375 281.25,240.5313 Q281.9063,240.6875 282.4688,240.9844 L282.4688,243.7031 Q281.8438,243.125 281.25,242.8594 Q280.6563,242.5781 280.0313,242.5781 Q278.6875,242.5781 278,243.6563 Q277.3125,244.7188 277.3125,246.8125 Q277.3125,248.9063 278,249.9844 Q278.6875,251.0469 280.0313,251.0469 Q280.6563,251.0469 281.25,250.7813 Q281.8438,250.5 282.4688,249.9219 L282.4688,252.6406 Z " fill="#000000"/><text fill="#000000" font-family="sans-serif" font-size="14" lengthAdjust="spacing" textLength="106.9209" x="293.5" y="251.8467">InterfazUsuario</text><line style="stroke:#181818;stroke-width:0.5;" x1="265.5" x2="402.4209" y1="263" y2="263"/><line style="stroke:#181818;stroke-width:0.5;" x1="265.5" x2="402.4209" y1="271" y2="271"/></g><!--class VisualizadorHoja--><g id="elem_VisualizadorHoja"><rect codeLine="24" fill="#F1F1F1" height="48" id="VisualizadorHoja" rx="2.5" ry="2.5" style="stroke:#181818;stroke-width:0.5;" width="148.6895" x="438.5" y="231"/><ellipse cx="453.5" cy="247" fill="#ADD1B2" rx="11" ry="11" style="stroke:#181818;stroke-width:1;"/><path d="M456.4688,252.6406 Q455.8906,252.9375 455.25,253.0781 Q454.6094,253.2344 453.9063,253.2344 Q451.4063,253.2344 450.0781,251.5938 Q448.7656,249.9375 448.7656,246.8125 Q448.7656,243.6875 450.0781,242.0313 Q451.4063,240.375 453.9063,240.375 Q454.6094,240.375 455.25,240.5313 Q455.9063,240.6875 456.4688,240.9844 L456.4688,243.7031 Q455.8438,243.125 455.25,242.8594 Q454.6563,242.5781 454.0313,242.5781 Q452.6875,242.5781 452,243.6563 Q451.3125,244.7188 451.3125,246.8125 Q451.3125,248.9063 452,249.9844 Q452.6875,251.0469 454.0313,251.0469 Q454.6563,251.0469 455.25,250.7813 Q455.8438,250.5 456.4688,249.9219 L456.4688,252.6406 Z " fill="#000000"/><text fill="#000000" font-family="sans-serif" font-size="14" lengthAdjust="spacing" textLength="116.6895" x="467.5" y="251.8467">VisualizadorHoja</text><line style="stroke:#181818;stroke-width:0.5;" x1="439.5" x2="586.1895" y1="263" y2="263"/><line style="stroke:#181818;stroke-width:0.5;" x1="439.5" x2="586.1895" y1="271" y2="271"/></g><!--class HojaCalculo--><g id="elem_HojaCalculo"><rect codeLine="25" fill="#F1F1F1" height="48" id="HojaCalculo" rx="2.5" ry="2.5" style="stroke:#181818;stroke-width:0.5;" width="114.8311" x="622.5" y="231"/><ellipse cx="637.5" cy="247" fill="#ADD1B2" rx="11" ry="11" style="stroke:#181818;stroke-width:1;"/><path d="M640.4688,252.6406 Q639.8906,252.9375 639.25,253.0781 Q638.6094,253.2344 637.9063,253.2344 Q635.4063,253.2344 634.0781,251.5938 Q632.7656,249.9375 632.7656,246.8125 Q632.7656,243.6875 634.0781,242.0313 Q635.4063,240.375 637.9063,240.375 Q638.6094,240.375 639.25,240.5313 Q639.9063,240.6875 640.4688,240.9844 L640.4688,243.7031 Q639.8438,243.125 639.25,242.8594 Q638.6563,242.5781 638.0313,242.5781 Q636.6875,242.5781 636,243.6563 Q635.3125,244.7188 635.3125,246.8125 Q635.3125,248.9063 636,249.9844 Q636.6875,251.0469 638.0313,251.0469 Q638.6563,251.0469 639.25,250.7813 Q639.8438,250.5 640.4688,249.9219 L640.4688,252.6406 Z " fill="#000000"/><text fill="#000000" font-family="sans-serif" font-size="14" lengthAdjust="spacing" textLength="82.8311" x="651.5" y="251.8467">HojaCalculo</text><line style="stroke:#181818;stroke-width:0.5;" x1="623.5" x2="736.3311" y1="263" y2="263"/><line style="stroke:#181818;stroke-width:0.5;" x1="623.5" x2="736.3311" y1="271" y2="271"/></g><!--link HojaCalculo to ControladorHoja--><g id="link_HojaCalculo_ControladorHoja"><path codeLine="28" d="M660.08,230.72 C646.17,216.06 626.34,198.06 605,188 C469.43,124.08 297.409,111.2705 199.129,109.4605 " fill="transparent" id="HojaCalculo-to-ControladorHoja" style="stroke:#181818;stroke-width:1;"/><polygon fill="#181818" points="193.13,109.35,202.0548,113.515,198.1292,109.4421,202.2021,105.5164,193.13,109.35" style="stroke:#181818;stroke-width:1;"/><text fill="#000000" font-family="sans-serif" font-size="13" lengthAdjust="spacing" textLength="56.2847" x="581" y="176.0669">contiene</text></g><!--link ControladorHoja to InterfazUsuario--><g id="link_ControladorHoja_InterfazUsuario"><path codeLine="29" d="M163.78,133.07 C179.86,141.97 198.03,152.51 214,163 C246.56,184.39 277.1882,207.9475 301.0182,227.0475 " fill="transparent" id="ControladorHoja-to-InterfazUsuario" style="stroke:#181818;stroke-width:1;"/><polygon fill="#181818" points="305.7,230.8,301.179,222.0501,301.7985,227.6729,296.1757,228.2925,305.7,230.8" style="stroke:#181818;stroke-width:1;"/><text fill="#000000" font-family="sans-serif" font-size="13" lengthAdjust="spacing" textLength="22.9785" x="238" y="176.0669">usa</text></g><!--link ControladorHoja to Teclado--><g id="link_ControladorHoja_Teclado"><path codeLine="30" d="M115.34,133.14 C109.93,160.01 102.233,198.1878 96.833,225.0378 " fill="transparent" id="ControladorHoja-to-Teclado" style="stroke:#181818;stroke-width:1;"/><polygon fill="#181818" points="95.65,230.92,101.346,222.8854,96.6358,226.0182,93.503,221.308,95.65,230.92" style="stroke:#181818;stroke-width:1;"/><text fill="#000000" font-family="sans-serif" font-size="13" lengthAdjust="spacing" textLength="22.9785" x="110" y="176.0669">usa</text></g><!--link ControladorHoja to VisualizadorHoja--><g id="link_ControladorHoja_VisualizadorHoja"><path codeLine="31" d="M193.12,121.16 C255.72,132.51 347.18,153.43 421,188 C444.85,199.17 464.2756,212.956 481.8256,227.156 " fill="transparent" id="ControladorHoja-to-VisualizadorHoja" style="stroke:#181818;stroke-width:1;"/><polygon fill="#181818" points="486.49,230.93,482.0094,222.1593,482.603,227.785,476.9774,228.3785,486.49,230.93" style="stroke:#181818;stroke-width:1;"/><text fill="#000000" font-family="sans-serif" font-size="13" lengthAdjust="spacing" textLength="22.9785" x="398" y="176.0669">usa</text></g><!--link InterfazUsuario to Posicion--><g id="link_InterfazUsuario_Posicion"><path codeLine="33" d="M356.48,279.05 C374.58,295.95 401.61,317.68 430,328 C461.16,339.33 548.93,322.02 579,336 C598.67,345.15 611.6099,358.7657 622.6299,373.8457 " fill="transparent" id="InterfazUsuario-to-Posicion" style="stroke:#181818;stroke-width:1;"/><polygon fill="#181818" points="626.17,378.69,624.0894,369.0634,623.2199,374.653,617.6303,373.7835,626.17,378.69" style="stroke:#181818;stroke-width:1;"/><text fill="#000000" font-family="sans-serif" font-size="13" lengthAdjust="spacing" textLength="49.1499" x="431" y="324.0669">obtiene</text></g><!--link InterfazUsuario to Matriz--><g id="link_InterfazUsuario_Matriz"><path codeLine="34" d="M324.03,279.05 C318.93,294.84 316.01,315.17 328,328 C337.05,337.68 434.73,330.99 447,336 C469.49,345.19 485.9907,359.2875 500.2207,374.3575 " fill="transparent" id="InterfazUsuario-to-Matriz" style="stroke:#181818;stroke-width:1;"/><polygon fill="#181818" points="504.34,378.72,501.0693,369.4301,500.9072,375.0846,495.2527,374.9225,504.34,378.72" style="stroke:#181818;stroke-width:1;"/><text fill="#000000" font-family="sans-serif" font-size="13" lengthAdjust="spacing" textLength="56.2974" x="329" y="324.0669">visualiza</text></g><!--link Teclado to Celda--><g id="link_Teclado_Celda"><path codeLine="36" d="M85.38,279.01 C76.99,319.44 66.51,403.43 110,451 C160.53,506.27 389.5273,522.7549 480.7073,527.2449 " fill="transparent" id="Teclado-to-Celda" style="stroke:#181818;stroke-width:1;"/><polygon fill="#181818" points="486.7,527.54,477.9076,523.1022,481.7061,527.2941,477.5142,531.0925,486.7,527.54" style="stroke:#181818;stroke-width:1;"/><text fill="#000000" font-family="sans-serif" font-size="13" lengthAdjust="spacing" textLength="55.7832" x="111" y="407.5669">modifica</text></g><!--link Matriz to Celda--><g id="link_Matriz_Celda"><path codeLine="38" d="M523.81,427.22 C523.63,449.67 523.4082,477.5002 523.2282,499.9102 " fill="transparent" id="Matriz-to-Celda" style="stroke:#181818;stroke-width:1;"/><polygon fill="#181818" points="523.18,505.91,527.2522,496.9424,523.2202,500.9102,519.2524,496.8782,523.18,505.91" style="stroke:#181818;stroke-width:1;"/><text fill="#000000" font-family="sans-serif" font-size="13" lengthAdjust="spacing" textLength="92.4727" x="524" y="472.0669">compuesta de</text></g><!--link HojaCalculo to Matriz--><g id="link_HojaCalculo_Matriz"><path codeLine="39" d="M641.47,279.2 C622.91,290.72 602.97,303.7 595,311 C572.68,331.43 555.3545,354.4521 542.1345,373.9721 " fill="transparent" id="HojaCalculo-to-Matriz" style="stroke:#181818;stroke-width:1;"/><polygon fill="#181818" points="538.77,378.94,547.1287,373.7312,541.5738,374.8001,540.5049,369.2451,538.77,378.94" style="stroke:#181818;stroke-width:1;"/><text fill="#000000" font-family="sans-serif" font-size="13" lengthAdjust="spacing" textLength="56.2847" x="596" y="324.0669">contiene</text></g><!--link HojaCalculo to Posicion--><g id="link_HojaCalculo_Posicion"><path codeLine="40" d="M673.82,279.13 C666.52,306.47 655.9885,345.8833 648.6985,373.1733 " fill="transparent" id="HojaCalculo-to-Posicion" style="stroke:#181818;stroke-width:1;"/><polygon fill="#181818" points="647.15,378.97,653.3372,371.3072,648.4404,374.1394,645.6082,369.2426,647.15,378.97" style="stroke:#181818;stroke-width:1;"/><text fill="#000000" font-family="sans-serif" font-size="13" lengthAdjust="spacing" textLength="55.0278" x="666" y="324.0669">consulta</text></g><!--link HojaCalculo to Constantes--><g id="link_HojaCalculo_Constantes"><path codeLine="42" d="M649.78,279.04 C636.68,287.91 620.74,297.28 605,303 C580.54,311.88 572.35,305.13 547,311 C512.36,319.02 502.82,320.13 471,336 C447.28,347.83 427.5315,361.3723 409.3515,375.2323 " fill="transparent" id="HojaCalculo-to-Constantes" style="stroke:#181818;stroke-width:1;stroke-dasharray:7.0,7.0;"/><polygon fill="#181818" points="404.58,378.87,414.1624,376.5945,408.5563,375.8386,409.3121,370.2325,404.58,378.87" style="stroke:#181818;stroke-width:1;"/><text fill="#000000" font-family="sans-serif" font-size="13" lengthAdjust="spacing" textLength="22.9785" x="548" y="324.0669">usa</text></g><!--link ControladorHoja to Utilidades--><g id="link_ControladorHoja_Utilidades"><path codeLine="43" d="M129.66,133.15 C136.09,148.64 144.66,169.5 152,188 C179.43,257.16 208.4298,333.8533 223.2098,373.1933 " fill="transparent" id="ControladorHoja-to-Utilidades" style="stroke:#181818;stroke-width:1;stroke-dasharray:7.0,7.0;"/><polygon fill="#181818" points="225.32,378.81,225.8992,368.9782,223.5615,374.1294,218.4103,371.7918,225.32,378.81" style="stroke:#181818;stroke-width:1;"/><text fill="#000000" font-family="sans-serif" font-size="13" lengthAdjust="spacing" textLength="22.9785" x="196" y="259.5669">usa</text></g><!--SRC=[XP9FRy8m3CNl_HGHTz3EEo1Dx30EI9E0tKrYa4UeKVvCMYU- -voIGWbbwz7lvsVtENvFzH4S7DGHz1vsk0pV5fL37Q3UMQpy1T0Ml7y9mT4c1fnhhfVKe7gggjogHc_y2Qyu0wkZvP7wgIebNoVFk0wEBHXs8gdyjRPzBPaKwWfrajhgwTPqmGOjt_kXDQNB0cJtfYY-ioTDN0zvhmFPeKszP1FG5qAYoO39Gk7rGT9rPpON7xU5PkqZEE92bPu8bfe7gQHIphe_iLTMu_6qZ5OzApbT8AonnKivjHHhIKlqy93Er_c7AdycuorVpajyTnZXU7DTTmWz7rR0hsx6sRPRh4qXFGX13cneIpeJkRCFQ3uS8wPZ6HpCypBj9iQIwgqld8ysmFrv9fDfxptz4M02h- -hY-xq2m00]--></g></svg>