<svg xmlns="http://www.w3.org/2000/svg" xmlns:xlink="http://www.w3.org/1999/xlink" contentStyleType="text/css" data-diagram-type="CLASS" height="479px" preserveAspectRatio="none" style="width:1042px;height:479px;background:#FFFFFF;" version="1.1" viewBox="0 0 1042 479" width="1042px" zoomAndPan="magnify"><defs/><g><!--cluster modelo--><g class="cluster" data-entity="modelo" data-source-line="1" data-uid="ent0002" id="cluster_modelo"><path d="M8.5,205 L67.6396,205 A3.75,3.75 0 0 1 70.1396,207.5 L77.1396,227.2969 L530.5,227.2969 A2.5,2.5 0 0 1 533,229.7969 L533,469.5 A2.5,2.5 0 0 1 530.5,472 L8.5,472 A2.5,2.5 0 0 1 6,469.5 L6,207.5 A2.5,2.5 0 0 1 8.5,205" fill="none" style="stroke:#000000;stroke-width:1.5;"/><line style="stroke:#000000;stroke-width:1.5;" x1="6" x2="77.1396" y1="227.2969" y2="227.2969"/><text fill="#000000" font-family="sans-serif" font-size="14" font-weight="bold" lengthAdjust="spacing" textLength="58.1396" x="10" y="219.9951">modelo</text></g><!--cluster controlador--><g class="cluster" data-entity="controlador" data-source-line="22" data-uid="ent0009" id="cluster_controlador"><path d="M434.5,98 L527.3887,98 A3.75,3.75 0 0 1 529.8887,100.5 L536.8887,120.2969 L607.5,120.2969 A2.5,2.5 0 0 1 610,122.7969 L610,178.5 A2.5,2.5 0 0 1 607.5,181 L434.5,181 A2.5,2.5 0 0 1 432,178.5 L432,100.5 A2.5,2.5 0 0 1 434.5,98" fill="none" style="stroke:#000000;stroke-width:1.5;"/><line style="stroke:#000000;stroke-width:1.5;" x1="432" x2="536.8887" y1="120.2969" y2="120.2969"/><text fill="#000000" font-family="sans-serif" font-size="14" font-weight="bold" lengthAdjust="spacing" textLength="91.8887" x="436" y="112.9951">controlador</text></g><!--cluster util--><g class="cluster" data-entity="util" data-source-line="28" data-uid="ent0011" id="cluster_util"><path d="M636.5,98 L663.7568,98 A3.75,3.75 0 0 1 666.2568,100.5 L673.2568,120.2969 L1032.5,120.2969 A2.5,2.5 0 0 1 1035,122.7969 L1035,178.5 A2.5,2.5 0 0 1 1032.5,181 L636.5,181 A2.5,2.5 0 0 1 634,178.5 L634,100.5 A2.5,2.5 0 0 1 636.5,98" fill="none" style="stroke:#000000;stroke-width:1.5;"/><line style="stroke:#000000;stroke-width:1.5;" x1="634" x2="673.2568" y1="120.2969" y2="120.2969"/><text fill="#000000" font-family="sans-serif" font-size="14" font-weight="bold" lengthAdjust="spacing" textLength="26.2568" x="638" y="112.9951">util</text></g><!--cluster vista--><g class="cluster" data-entity="vista" data-source-line="40" data-uid="ent0015" id="cluster_vista"><path d="M230.5,6 L269.8975,6 A3.75,3.75 0 0 1 272.3975,8.5 L279.3975,28.2969 L405.5,28.2969 A2.5,2.5 0 0 1 408,30.7969 L408,178.5 A2.5,2.5 0 0 1 405.5,181 L230.5,181 A2.5,2.5 0 0 1 228,178.5 L228,8.5 A2.5,2.5 0 0 1 230.5,6" fill="none" style="stroke:#000000;stroke-width:1.5;"/><line style="stroke:#000000;stroke-width:1.5;" x1="228" x2="279.3975" y1="28.2969" y2="28.2969"/><text fill="#000000" font-family="sans-serif" font-size="14" font-weight="bold" lengthAdjust="spacing" textLength="38.3975" x="232" y="20.9951">vista</text></g><!--class Celda--><g class="entity" data-entity="Celda" data-source-line="3" data-uid="ent0003" id="entity_Celda"><rect fill="#F1F1F1" height="32" rx="2.5" ry="2.5" style="stroke:#181818;stroke-width:0.5;" width="71.7441" x="259.13" y="240"/><ellipse cx="274.13" cy="256" fill="#A9DCDF" rx="11" ry="11" style="stroke:#181818;stroke-width:1;"/><path d="M274.2394,251.3438 L273.0831,256.4219 L275.4113,256.4219 L274.2394,251.3438 Z M272.755,249.1094 L275.7394,249.1094 L279.0988,261.5 L276.6456,261.5 L275.88,258.4375 L272.5988,258.4375 L271.8488,261.5 L269.4113,261.5 L272.755,249.1094 Z " fill="#000000"/><text fill="#000000" font-family="sans-serif" font-size="14" font-style="italic" lengthAdjust="spacing" textLength="39.7441" x="288.13" y="260.8467">Celda</text></g><!--class CeldaTexto--><g class="entity" data-entity="CeldaTexto" data-source-line="6" data-uid="ent0004" id="entity_CeldaTexto"><rect fill="#F1F1F1" height="32" rx="2.5" ry="2.5" style="stroke:#181818;stroke-width:0.5;" width="111.249" x="22.38" y="332"/><ellipse cx="37.38" cy="348" fill="#ADD1B2" rx="11" ry="11" style="stroke:#181818;stroke-width:1;"/><path d="M40.3488,353.6406 Q39.7706,353.9375 39.13,354.0781 Q38.4894,354.2344 37.7863,354.2344 Q35.2863,354.2344 33.9581,352.5938 Q32.6456,350.9375 32.6456,347.8125 Q32.6456,344.6875 33.9581,343.0313 Q35.2863,341.375 37.7863,341.375 Q38.4894,341.375 39.13,341.5313 Q39.7863,341.6875 40.3488,341.9844 L40.3488,344.7031 Q39.7238,344.125 39.13,343.8594 Q38.5363,343.5781 37.9113,343.5781 Q36.5675,343.5781 35.88,344.6563 Q35.1925,345.7188 35.1925,347.8125 Q35.1925,349.9063 35.88,350.9844 Q36.5675,352.0469 37.9113,352.0469 Q38.5363,352.0469 39.13,351.7813 Q39.7238,351.5 40.3488,350.9219 L40.3488,353.6406 Z " fill="#000000"/><text fill="#000000" font-family="sans-serif" font-size="14" lengthAdjust="spacing" textLength="79.249" x="51.38" y="352.8467">CeldaTexto</text></g><!--class CeldaFormula--><g class="entity" data-entity="CeldaFormula" data-source-line="9" data-uid="ent0005" id="entity_CeldaFormula"><rect fill="#F1F1F1" height="32" rx="2.5" ry="2.5" style="stroke:#181818;stroke-width:0.5;" width="129.0977" x="168.45" y="332"/><ellipse cx="183.45" cy="348" fill="#ADD1B2" rx="11" ry="11" style="stroke:#181818;stroke-width:1;"/><path d="M186.4188,353.6406 Q185.8406,353.9375 185.2,354.0781 Q184.5594,354.2344 183.8563,354.2344 Q181.3563,354.2344 180.0281,352.5938 Q178.7156,350.9375 178.7156,347.8125 Q178.7156,344.6875 180.0281,343.0313 Q181.3563,341.375 183.8563,341.375 Q184.5594,341.375 185.2,341.5313 Q185.8563,341.6875 186.4188,341.9844 L186.4188,344.7031 Q185.7938,344.125 185.2,343.8594 Q184.6063,343.5781 183.9813,343.5781 Q182.6375,343.5781 181.95,344.6563 Q181.2625,345.7188 181.2625,347.8125 Q181.2625,349.9063 181.95,350.9844 Q182.6375,352.0469 183.9813,352.0469 Q184.6063,352.0469 185.2,351.7813 Q185.7938,351.5 186.4188,350.9219 L186.4188,353.6406 Z " fill="#000000"/><text fill="#000000" font-family="sans-serif" font-size="14" lengthAdjust="spacing" textLength="97.0977" x="197.45" y="352.8467">CeldaFormula</text></g><!--class CeldaReferencia--><g class="entity" data-entity="CeldaReferencia" data-source-line="12" data-uid="ent0006" id="entity_CeldaReferencia"><rect fill="#F1F1F1" height="32" rx="2.5" ry="2.5" style="stroke:#181818;stroke-width:0.5;" width="147.0352" x="332.48" y="332"/><ellipse cx="347.48" cy="348" fill="#ADD1B2" rx="11" ry="11" style="stroke:#181818;stroke-width:1;"/><path d="M350.4488,353.6406 Q349.8706,353.9375 349.23,354.0781 Q348.5894,354.2344 347.8863,354.2344 Q345.3863,354.2344 344.0581,352.5938 Q342.7456,350.9375 342.7456,347.8125 Q342.7456,344.6875 344.0581,343.0313 Q345.3863,341.375 347.8863,341.375 Q348.5894,341.375 349.23,341.5313 Q349.8863,341.6875 350.4488,341.9844 L350.4488,344.7031 Q349.8238,344.125 349.23,343.8594 Q348.6363,343.5781 348.0113,343.5781 Q346.6675,343.5781 345.98,344.6563 Q345.2925,345.7188 345.2925,347.8125 Q345.2925,349.9063 345.98,350.9844 Q346.6675,352.0469 348.0113,352.0469 Q348.6363,352.0469 349.23,351.7813 Q349.8238,351.5 350.4488,350.9219 L350.4488,353.6406 Z " fill="#000000"/><text fill="#000000" font-family="sans-serif" font-size="14" lengthAdjust="spacing" textLength="115.0352" x="361.48" y="352.8467">CeldaReferencia</text></g><!--class Matriz--><g class="entity" data-entity="Matriz" data-source-line="15" data-uid="ent0007" id="entity_Matriz"><rect fill="#F1F1F1" height="32" rx="2.5" ry="2.5" style="stroke:#181818;stroke-width:0.5;" width="75.1416" x="404.43" y="424"/><ellipse cx="419.43" cy="440" fill="#ADD1B2" rx="11" ry="11" style="stroke:#181818;stroke-width:1;"/><path d="M422.3988,445.6406 Q421.8206,445.9375 421.18,446.0781 Q420.5394,446.2344 419.8363,446.2344 Q417.3363,446.2344 416.0081,444.5938 Q414.6956,442.9375 414.6956,439.8125 Q414.6956,436.6875 416.0081,435.0313 Q417.3363,433.375 419.8363,433.375 Q420.5394,433.375 421.18,433.5313 Q421.8363,433.6875 422.3988,433.9844 L422.3988,436.7031 Q421.7738,436.125 421.18,435.8594 Q420.5863,435.5781 419.9613,435.5781 Q418.6175,435.5781 417.93,436.6563 Q417.2425,437.7188 417.2425,439.8125 Q417.2425,441.9063 417.93,442.9844 Q418.6175,444.0469 419.9613,444.0469 Q420.5863,444.0469 421.18,443.7813 Q421.7738,443.5 422.3988,442.9219 L422.3988,445.6406 Z " fill="#000000"/><text fill="#000000" font-family="sans-serif" font-size="14" lengthAdjust="spacing" textLength="43.1416" x="433.43" y="444.8467">Matriz</text></g><!--class Posicion--><g class="entity" data-entity="Posicion" data-source-line="18" data-uid="ent0008" id="entity_Posicion"><rect fill="#F1F1F1" height="32" rx="2.5" ry="2.5" style="stroke:#181818;stroke-width:0.5;" width="89.2168" x="427.39" y="240"/><ellipse cx="442.39" cy="256" fill="#ADD1B2" rx="11" ry="11" style="stroke:#181818;stroke-width:1;"/><path d="M445.3588,261.6406 Q444.7806,261.9375 444.14,262.0781 Q443.4994,262.2344 442.7963,262.2344 Q440.2963,262.2344 438.9681,260.5938 Q437.6556,258.9375 437.6556,255.8125 Q437.6556,252.6875 438.9681,251.0313 Q440.2963,249.375 442.7963,249.375 Q443.4994,249.375 444.14,249.5313 Q444.7963,249.6875 445.3588,249.9844 L445.3588,252.7031 Q444.7338,252.125 444.14,251.8594 Q443.5463,251.5781 442.9213,251.5781 Q441.5775,251.5781 440.89,252.6563 Q440.2025,253.7188 440.2025,255.8125 Q440.2025,257.9063 440.89,258.9844 Q441.5775,260.0469 442.9213,260.0469 Q443.5463,260.0469 444.14,259.7813 Q444.7338,259.5 445.3588,258.9219 L445.3588,261.6406 Z " fill="#000000"/><text fill="#000000" font-family="sans-serif" font-size="14" lengthAdjust="spacing" textLength="57.2168" x="456.39" y="260.8467">Posicion</text></g><!--class ControladorHoja--><g class="entity" data-entity="ControladorHoja" data-source-line="24" data-uid="ent0010" id="entity_ControladorHoja"><rect fill="#F1F1F1" height="32" rx="2.5" ry="2.5" style="stroke:#181818;stroke-width:0.5;" width="146.2627" x="447.87" y="133"/><ellipse cx="462.87" cy="149" fill="#ADD1B2" rx="11" ry="11" style="stroke:#181818;stroke-width:1;"/><path d="M465.8388,154.6406 Q465.2606,154.9375 464.62,155.0781 Q463.9794,155.2344 463.2763,155.2344 Q460.7763,155.2344 459.4481,153.5938 Q458.1356,151.9375 458.1356,148.8125 Q458.1356,145.6875 459.4481,144.0313 Q460.7763,142.375 463.2763,142.375 Q463.9794,142.375 464.62,142.5313 Q465.2763,142.6875 465.8388,142.9844 L465.8388,145.7031 Q465.2138,145.125 464.62,144.8594 Q464.0263,144.5781 463.4013,144.5781 Q462.0575,144.5781 461.37,145.6563 Q460.6825,146.7188 460.6825,148.8125 Q460.6825,150.9063 461.37,151.9844 Q462.0575,153.0469 463.4013,153.0469 Q464.0263,153.0469 464.62,152.7813 Q465.2138,152.5 465.8388,151.9219 L465.8388,154.6406 Z " fill="#000000"/><text fill="#000000" font-family="sans-serif" font-size="14" lengthAdjust="spacing" textLength="114.2627" x="476.87" y="153.8467">ControladorHoja</text></g><!--class Teclado--><g class="entity" data-entity="Teclado" data-source-line="30" data-uid="ent0012" id="entity_Teclado"><rect fill="#F1F1F1" height="32" rx="2.5" ry="2.5" style="stroke:#181818;stroke-width:0.5;" width="86.7832" x="649.61" y="133"/><ellipse cx="664.61" cy="149" fill="#ADD1B2" rx="11" ry="11" style="stroke:#181818;stroke-width:1;"/><path d="M667.5788,154.6406 Q667.0006,154.9375 666.36,155.0781 Q665.7194,155.2344 665.0163,155.2344 Q662.5163,155.2344 661.1881,153.5938 Q659.8756,151.9375 659.8756,148.8125 Q659.8756,145.6875 661.1881,144.0313 Q662.5163,142.375 665.0163,142.375 Q665.7194,142.375 666.36,142.5313 Q667.0163,142.6875 667.5788,142.9844 L667.5788,145.7031 Q666.9538,145.125 666.36,144.8594 Q665.7663,144.5781 665.1413,144.5781 Q663.7975,144.5781 663.11,145.6563 Q662.4225,146.7188 662.4225,148.8125 Q662.4225,150.9063 663.11,151.9844 Q663.7975,153.0469 665.1413,153.0469 Q665.7663,153.0469 666.36,152.7813 Q666.9538,152.5 667.5788,151.9219 L667.5788,154.6406 Z " fill="#000000"/><text fill="#000000" font-family="sans-serif" font-size="14" lengthAdjust="spacing" textLength="54.7832" x="678.61" y="153.8467">Teclado</text></g><!--class Constantes--><g class="entity" data-entity="Constantes" data-source-line="33" data-uid="ent0013" id="entity_Constantes"><rect fill="#F1F1F1" height="32" rx="2.5" ry="2.5" style="stroke:#181818;stroke-width:0.5;" width="110.8457" x="771.58" y="133"/><ellipse cx="786.58" cy="149" fill="#ADD1B2" rx="11" ry="11" style="stroke:#181818;stroke-width:1;"/><path d="M789.5488,154.6406 Q788.9706,154.9375 788.33,155.0781 Q787.6894,155.2344 786.9863,155.2344 Q784.4863,155.2344 783.1581,153.5938 Q781.8456,151.9375 781.8456,148.8125 Q781.8456,145.6875 783.1581,144.0313 Q784.4863,142.375 786.9863,142.375 Q787.6894,142.375 788.33,142.5313 Q788.9863,142.6875 789.5488,142.9844 L789.5488,145.7031 Q788.9238,145.125 788.33,144.8594 Q787.7363,144.5781 787.1113,144.5781 Q785.7675,144.5781 785.08,145.6563 Q784.3925,146.7188 784.3925,148.8125 Q784.3925,150.9063 785.08,151.9844 Q785.7675,153.0469 787.1113,153.0469 Q787.7363,153.0469 788.33,152.7813 Q788.9238,152.5 789.5488,151.9219 L789.5488,154.6406 Z " fill="#000000"/><text fill="#000000" font-family="sans-serif" font-size="14" lengthAdjust="spacing" textLength="78.8457" x="800.58" y="153.8467">Constantes</text></g><!--class Utilidades--><g class="entity" data-entity="Utilidades" data-source-line="36" data-uid="ent0014" id="entity_Utilidades"><rect fill="#F1F1F1" height="32" rx="2.5" ry="2.5" style="stroke:#181818;stroke-width:0.5;" width="101.665" x="917.17" y="133"/><ellipse cx="932.17" cy="149" fill="#ADD1B2" rx="11" ry="11" style="stroke:#181818;stroke-width:1;"/><path d="M935.1388,154.6406 Q934.5606,154.9375 933.92,155.0781 Q933.2794,155.2344 932.5763,155.2344 Q930.0763,155.2344 928.7481,153.5938 Q927.4356,151.9375 927.4356,148.8125 Q927.4356,145.6875 928.7481,144.0313 Q930.0763,142.375 932.5763,142.375 Q933.2794,142.375 933.92,142.5313 Q934.5763,142.6875 935.1388,142.9844 L935.1388,145.7031 Q934.5138,145.125 933.92,144.8594 Q933.3263,144.5781 932.7013,144.5781 Q931.3575,144.5781 930.67,145.6563 Q929.9825,146.7188 929.9825,148.8125 Q929.9825,150.9063 930.67,151.9844 Q931.3575,153.0469 932.7013,153.0469 Q933.3263,153.0469 933.92,152.7813 Q934.5138,152.5 935.1388,151.9219 L935.1388,154.6406 Z " fill="#000000"/><text fill="#000000" font-family="sans-serif" font-size="14" lengthAdjust="spacing" textLength="69.665" x="946.17" y="153.8467">Utilidades</text></g><!--class InterfazUsuario--><g class="entity" data-entity="InterfazUsuario" data-source-line="42" data-uid="ent0016" id="entity_InterfazUsuario"><rect fill="#F1F1F1" height="32" rx="2.5" ry="2.5" style="stroke:#181818;stroke-width:0.5;" width="138.9209" x="253.54" y="41"/><ellipse cx="268.54" cy="57" fill="#ADD1B2" rx="11" ry="11" style="stroke:#181818;stroke-width:1;"/><path d="M271.5088,62.6406 Q270.9306,62.9375 270.29,63.0781 Q269.6494,63.2344 268.9463,63.2344 Q266.4463,63.2344 265.1181,61.5938 Q263.8056,59.9375 263.8056,56.8125 Q263.8056,53.6875 265.1181,52.0313 Q266.4463,50.375 268.9463,50.375 Q269.6494,50.375 270.29,50.5313 Q270.9463,50.6875 271.5088,50.9844 L271.5088,53.7031 Q270.8838,53.125 270.29,52.8594 Q269.6963,52.5781 269.0713,52.5781 Q267.7275,52.5781 267.04,53.6563 Q266.3525,54.7188 266.3525,56.8125 Q266.3525,58.9063 267.04,59.9844 Q267.7275,61.0469 269.0713,61.0469 Q269.6963,61.0469 270.29,60.7813 Q270.8838,60.5 271.5088,59.9219 L271.5088,62.6406 Z " fill="#000000"/><text fill="#000000" font-family="sans-serif" font-size="14" lengthAdjust="spacing" textLength="106.9209" x="282.54" y="61.8467">InterfazUsuario</text></g><!--class VisualizadorHoja--><g class="entity" data-entity="VisualizadorHoja" data-source-line="45" data-uid="ent0017" id="entity_VisualizadorHoja"><rect fill="#F1F1F1" height="32" rx="2.5" ry="2.5" style="stroke:#181818;stroke-width:0.5;" width="148.6895" x="243.66" y="133"/><ellipse cx="258.66" cy="149" fill="#ADD1B2" rx="11" ry="11" style="stroke:#181818;stroke-width:1;"/><path d="M261.6287,154.6406 Q261.0506,154.9375 260.41,155.0781 Q259.7694,155.2344 259.0662,155.2344 Q256.5662,155.2344 255.2381,153.5938 Q253.9256,151.9375 253.9256,148.8125 Q253.9256,145.6875 255.2381,144.0313 Q256.5662,142.375 259.0662,142.375 Q259.7694,142.375 260.41,142.5313 Q261.0662,142.6875 261.6287,142.9844 L261.6287,145.7031 Q261.0037,145.125 260.41,144.8594 Q259.8162,144.5781 259.1912,144.5781 Q257.8475,144.5781 257.16,145.6563 Q256.4725,146.7188 256.4725,148.8125 Q256.4725,150.9063 257.16,151.9844 Q257.8475,153.0469 259.1912,153.0469 Q259.8162,153.0469 260.41,152.7813 Q261.0037,152.5 261.6287,151.9219 L261.6287,154.6406 Z " fill="#000000"/><text fill="#000000" font-family="sans-serif" font-size="14" lengthAdjust="spacing" textLength="116.6895" x="272.66" y="153.8467">VisualizadorHoja</text></g><!--reverse link Celda to CeldaTexto--><g class="link" data-entity-1="Celda" data-entity-2="CeldaTexto" data-source-line="49" data-uid="lnk18" id="link_Celda_CeldaTexto"><path codeLine="49" d="M242.054,278.9576 C202.234,295.4776 155.31,314.93 115.17,331.59" fill="none" id="Celda-backto-CeldaTexto" style="stroke:#181818;stroke-width:1;"/><polygon fill="none" points="258.68,272.06,239.7548,273.4156,244.3532,284.4996,258.68,272.06" style="stroke:#181818;stroke-width:1;"/></g><!--reverse link Celda to CeldaFormula--><g class="link" data-entity-1="Celda" data-entity-2="CeldaFormula" data-source-line="50" data-uid="lnk19" id="link_Celda_CeldaFormula"><path codeLine="50" d="M274.2692,287.0936 C262.8692,303.6436 254.99,315.08 243.57,331.66" fill="none" id="Celda-backto-CeldaFormula" style="stroke:#181818;stroke-width:1;"/><polygon fill="none" points="284.48,272.27,269.328,283.69,279.2104,290.4972,284.48,272.27" style="stroke:#181818;stroke-width:1;"/></g><!--reverse link Celda to CeldaReferencia--><g class="link" data-entity-1="Celda" data-entity-2="CeldaReferencia" data-source-line="51" data-uid="lnk20" id="link_Celda_CeldaReferencia"><path codeLine="51" d="M328.0613,283.8068 C348.5213,300.3968 366.81,315.22 387.17,331.73" fill="none" id="Celda-backto-CeldaReferencia" style="stroke:#181818;stroke-width:1;"/><polygon fill="none" points="314.08,272.47,324.2824,288.4672,331.8403,279.1463,314.08,272.47" style="stroke:#181818;stroke-width:1;"/></g><!--reverse link Matriz to Celda--><g class="link" data-entity-1="Matriz" data-entity-2="Celda" data-source-line="52" data-uid="lnk21" id="link_Matriz_Celda"><path codeLine="52" d="M468.9403,415.6135 C492.1603,394.1935 518.23,362.52 497,332 C459.52,278.1 378.49,262.85 331.24,258.6" fill="none" id="Matriz-backto-Celda" style="stroke:#181818;stroke-width:1;"/><polygon fill="none" points="460.12,423.75,467.2423,422.6218,468.9403,415.6135,461.818,416.7417,460.12,423.75" style="stroke:#181818;stroke-width:1;"/></g><!--reverse link ControladorHoja to Matriz--><g class="link" data-entity-1="ControladorHoja" data-entity-2="Matriz" data-source-line="53" data-uid="lnk22" id="link_ControladorHoja_Matriz"><path codeLine="53" d="M530.0453,176.8861 C532.9253,185.9461 532.54,186.26 534,197 C544.1,271.37 544.8,298.04 509,364 C496.26,387.48 474.81,409.68 459.62,423.75" fill="none" id="ControladorHoja-backto-Matriz" style="stroke:#181818;stroke-width:1;"/><polygon fill="none" points="526.41,165.45,524.4156,172.3798,530.0453,176.8861,532.0397,169.9563,526.41,165.45" style="stroke:#181818;stroke-width:1;"/></g><!--reverse link ControladorHoja to Posicion--><g class="link" data-entity-1="ControladorHoja" data-entity-2="Posicion" data-source-line="54" data-uid="lnk23" id="link_ControladorHoja_Posicion"><path codeLine="54" d="M508.6951,176.3641 C499.3751,196.3341 488.35,219.95 479.1,239.78" fill="none" id="ControladorHoja-backto-Posicion" style="stroke:#181818;stroke-width:1;"/><polygon fill="none" points="513.77,165.49,507.6079,169.2354,508.6951,176.3641,514.8572,172.6187,513.77,165.49" style="stroke:#181818;stroke-width:1;"/></g><!--reverse link InterfazUsuario to ControladorHoja--><g class="link" data-entity-1="InterfazUsuario" data-entity-2="ControladorHoja" data-source-line="55" data-uid="lnk24" id="link_InterfazUsuario_ControladorHoja"><path codeLine="55" d="M378.3115,77.6986 C391.5915,82.6586 394.88,84.19 408,90 C437.64,103.13 470.5,120.31 493.11,132.55" fill="none" id="InterfazUsuario-backto-ControladorHoja" style="stroke:#181818;stroke-width:1;"/><polygon fill="none" points="367.07,73.5,371.2912,79.3465,378.3115,77.6986,374.0903,71.8521,367.07,73.5" style="stroke:#181818;stroke-width:1;"/></g><!--reverse link InterfazUsuario to VisualizadorHoja--><g class="link" data-entity-1="InterfazUsuario" data-entity-2="VisualizadorHoja" data-source-line="56" data-uid="lnk25" id="link_InterfazUsuario_VisualizadorHoja"><path codeLine="56" d="M321.484,85.2515 C320.564,101.8015 319.77,116.08 318.85,132.66" fill="none" id="InterfazUsuario-backto-VisualizadorHoja" style="stroke:#181818;stroke-width:1;"/><polygon fill="none" points="322.15,73.27,317.8231,79.0387,321.484,85.2515,325.8108,79.4828,322.15,73.27" style="stroke:#181818;stroke-width:1;"/></g><!--reverse link InterfazUsuario to Teclado--><g class="link" data-entity-1="InterfazUsuario" data-entity-2="Teclado" data-source-line="57" data-uid="lnk26" id="link_InterfazUsuario_Teclado"><path codeLine="57" d="M404.6252,62.5809 C476.5452,67.2109 571.53,75.5 610,90 C635.5,99.61 660.55,118.85 676.34,132.53" fill="none" id="InterfazUsuario-backto-Teclado" style="stroke:#181818;stroke-width:1;"/><polygon fill="none" points="392.65,61.81,398.3806,66.1872,404.6252,62.5809,398.8946,58.2037,392.65,61.81" style="stroke:#181818;stroke-width:1;"/></g><!--reverse link CeldaFormula to Matriz--><g class="link" data-entity-1="CeldaFormula" data-entity-2="Matriz" data-source-line="58" data-uid="lnk27" id="link_CeldaFormula_Matriz"><path codeLine="58" d="M279.9511,369.2171 C318.3511,385.7571 367.84,407.06 406.19,423.58" fill="none" id="CeldaFormula-backto-Matriz" style="stroke:#181818;stroke-width:1;"/><polygon fill="none" points="268.93,364.47,272.8582,370.5173,279.9511,369.2171,276.0229,363.1699,268.93,364.47" style="stroke:#181818;stroke-width:1;"/></g><!--reverse link CeldaReferencia to Matriz--><g class="link" data-entity-1="CeldaReferencia" data-entity-2="Matriz" data-source-line="59" data-uid="lnk28" id="link_CeldaReferencia_Matriz"><path codeLine="59" d="M416.5667,375.4117 C423.1867,391.9617 429.23,407.08 435.86,423.66" fill="none" id="CeldaReferencia-backto-Matriz" style="stroke:#181818;stroke-width:1;"/><polygon fill="none" points="412.11,364.27,410.6244,371.3264,416.5667,375.4117,418.0523,368.3553,412.11,364.27" style="stroke:#181818;stroke-width:1;"/></g><!--SRC=[ZL91RiCW4Bpp2ZwG7_HMgMeFbQegwNq3ctPRy5g0ezPj_bwCiMnZ58K3XvtPsHs65jGNlAEqhD6m_1KodW_IAD6suKTQj4TqFfNXw8C35QGouBsyHwCXTrpIdQu5kCVlm5SP3-niPmQLElwA9tJOA4g3Dfnd28xwMlSBUrB4JS8kGhJPf-8cE3QWsLqtcvUOwO_ycTsk1Bj0vXQbFQf1Pb8epNBZ0pG1VTNd8GuX3Ng4YmtE55jlMU4fwhiJz0VVWIEkJdgZ21hgrux7WMFWTt-xtIBUJJL7kgdFKOeS6q-GA9zvG4PI5Ph25QMZfBXkg79AbrLIJaoiFkfoi-A3pj0_]--></g></svg>