<svg xmlns="http://www.w3.org/2000/svg" xmlns:xlink="http://www.w3.org/1999/xlink" contentStyleType="text/css" data-diagram-type="CLASS" height="565px" preserveAspectRatio="none" style="width:403px;height:565px;background:#FFFFFF;" version="1.1" viewBox="0 0 403 565" width="403px" zoomAndPan="magnify"><defs/><g><!--class ComponenteHoja--><g id="elem_ComponenteHoja"><rect codeLine="1" fill="#F1F1F1" height="96.8906" id="ComponenteHoja" rx="2.5" ry="2.5" style="stroke:#181818;stroke-width:0.5;" width="153.4541" x="47.5" y="7"/><ellipse cx="62.5" cy="23" fill="#A9DCDF" rx="11" ry="11" style="stroke:#181818;stroke-width:1;"/><path d="M62.6094,18.3438 L61.4531,23.4219 L63.7813,23.4219 L62.6094,18.3438 Z M61.125,16.1094 L64.1094,16.1094 L67.4688,28.5 L65.0156,28.5 L64.25,25.4375 L60.9688,25.4375 L60.2188,28.5 L57.7813,28.5 L61.125,16.1094 Z " fill="#000000"/><text fill="#000000" font-family="sans-serif" font-size="14" font-style="italic" lengthAdjust="spacing" textLength="121.4541" x="76.5" y="27.8467">ComponenteHoja</text><line style="stroke:#181818;stroke-width:0.5;" x1="48.5" x2="199.9541" y1="39" y2="39"/><text fill="#000000" font-family="sans-serif" font-size="14" lengthAdjust="spacing" text-decoration="underline" textLength="38.4453" x="53.5" y="55.9951">FILAS</text><text fill="#000000" font-family="sans-serif" font-size="14" lengthAdjust="spacing" text-decoration="underline" textLength="79.8574" x="53.5" y="72.292">COLUMNAS</text><line style="stroke:#181818;stroke-width:0.5;" x1="48.5" x2="199.9541" y1="79.5938" y2="79.5938"/><text fill="#000000" font-family="sans-serif" font-size="14" font-style="italic" lengthAdjust="spacing" textLength="79.6045" x="53.5" y="96.5889">actualizar()</text></g><!--class Celda--><g id="elem_Celda"><rect codeLine="7" fill="#F1F1F1" height="96.8906" id="Celda" rx="2.5" ry="2.5" style="stroke:#181818;stroke-width:0.5;" width="163.5322" x="7" y="462"/><ellipse cx="64.644" cy="478" fill="#ADD1B2" rx="11" ry="11" style="stroke:#181818;stroke-width:1;"/><path d="M67.6128,483.6406 Q67.0347,483.9375 66.394,484.0781 Q65.7534,484.2344 65.0503,484.2344 Q62.5503,484.2344 61.2222,482.5938 Q59.9097,480.9375 59.9097,477.8125 Q59.9097,474.6875 61.2222,473.0313 Q62.5503,471.375 65.0503,471.375 Q65.7534,471.375 66.394,471.5313 Q67.0503,471.6875 67.6128,471.9844 L67.6128,474.7031 Q66.9878,474.125 66.394,473.8594 Q65.8003,473.5781 65.1753,473.5781 Q63.8315,473.5781 63.144,474.6563 Q62.4565,475.7188 62.4565,477.8125 Q62.4565,479.9063 63.144,480.9844 Q63.8315,482.0469 65.1753,482.0469 Q65.8003,482.0469 66.394,481.7813 Q66.9878,481.5 67.6128,480.9219 L67.6128,483.6406 Z " fill="#000000"/><text fill="#000000" font-family="sans-serif" font-size="14" lengthAdjust="spacing" textLength="39.7441" x="85.144" y="482.8467">Celda</text><line style="stroke:#181818;stroke-width:0.5;" x1="8" x2="169.5322" y1="494" y2="494"/><rect fill="transparent" height="6" style="stroke:#C82930;stroke-width:1;" width="6" x="15" y="504.6484"/><text fill="#000000" font-family="sans-serif" font-size="14" lengthAdjust="spacing" textLength="120.4014" x="27" y="510.9951">contenido: String</text><rect fill="transparent" height="6" style="stroke:#C82930;stroke-width:1;" width="6" x="15" y="520.9453"/><text fill="#000000" font-family="sans-serif" font-size="14" lengthAdjust="spacing" textLength="106.4697" x="27" y="527.292">formato: String</text><line style="stroke:#181818;stroke-width:0.5;" x1="8" x2="169.5322" y1="534.5938" y2="534.5938"/><ellipse cx="18" cy="548.2422" fill="#84BE84" rx="3" ry="3" style="stroke:#038048;stroke-width:1;"/><text fill="#000000" font-family="sans-serif" font-size="14" lengthAdjust="spacing" textLength="137.5322" x="27" y="551.5889">mostrarContenido()</text></g><!--class Matriz--><g id="elem_Matriz"><rect codeLine="13" fill="#F1F1F1" height="80.5938" id="Matriz" rx="2.5" ry="2.5" style="stroke:#181818;stroke-width:0.5;" width="141.7188" x="80" y="321"/><ellipse cx="125.0386" cy="337" fill="#ADD1B2" rx="11" ry="11" style="stroke:#181818;stroke-width:1;"/><path d="M128.0073,342.6406 Q127.4292,342.9375 126.7886,343.0781 Q126.1479,343.2344 125.4448,343.2344 Q122.9448,343.2344 121.6167,341.5938 Q120.3042,339.9375 120.3042,336.8125 Q120.3042,333.6875 121.6167,332.0313 Q122.9448,330.375 125.4448,330.375 Q126.1479,330.375 126.7886,330.5313 Q127.4448,330.6875 128.0073,330.9844 L128.0073,333.7031 Q127.3823,333.125 126.7886,332.8594 Q126.1948,332.5781 125.5698,332.5781 Q124.2261,332.5781 123.5386,333.6563 Q122.8511,334.7188 122.8511,336.8125 Q122.8511,338.9063 123.5386,339.9844 Q124.2261,341.0469 125.5698,341.0469 Q126.1948,341.0469 126.7886,340.7813 Q127.3823,340.5 128.0073,339.9219 L128.0073,342.6406 Z " fill="#000000"/><text fill="#000000" font-family="sans-serif" font-size="14" lengthAdjust="spacing" textLength="43.1416" x="145.5386" y="341.8467">Matriz</text><line style="stroke:#181818;stroke-width:0.5;" x1="81" x2="220.7188" y1="353" y2="353"/><rect fill="transparent" height="6" style="stroke:#C82930;stroke-width:1;" width="6" x="88" y="363.6484"/><text fill="#000000" font-family="sans-serif" font-size="14" lengthAdjust="spacing" textLength="115.7188" x="100" y="369.9951">celdas: Celda[][]</text><line style="stroke:#181818;stroke-width:0.5;" x1="81" x2="220.7188" y1="377.2969" y2="377.2969"/><ellipse cx="91" cy="390.9453" fill="#84BE84" rx="3" ry="3" style="stroke:#038048;stroke-width:1;"/><text fill="#000000" font-family="sans-serif" font-size="14" lengthAdjust="spacing" textLength="105.4648" x="100" y="394.292">obtenerCelda()</text></g><!--class HojaCalculo--><g id="elem_HojaCalculo"><rect codeLine="18" fill="#F1F1F1" height="96.8906" id="HojaCalculo" rx="2.5" ry="2.5" style="stroke:#181818;stroke-width:0.5;" width="195.5654" x="177" y="164"/><ellipse cx="229.1172" cy="180" fill="#ADD1B2" rx="11" ry="11" style="stroke:#181818;stroke-width:1;"/><path d="M232.0859,185.6406 Q231.5078,185.9375 230.8672,186.0781 Q230.2266,186.2344 229.5234,186.2344 Q227.0234,186.2344 225.6953,184.5938 Q224.3828,182.9375 224.3828,179.8125 Q224.3828,176.6875 225.6953,175.0313 Q227.0234,173.375 229.5234,173.375 Q230.2266,173.375 230.8672,173.5313 Q231.5234,173.6875 232.0859,173.9844 L232.0859,176.7031 Q231.4609,176.125 230.8672,175.8594 Q230.2734,175.5781 229.6484,175.5781 Q228.3047,175.5781 227.6172,176.6563 Q226.9297,177.7188 226.9297,179.8125 Q226.9297,181.9063 227.6172,182.9844 Q228.3047,184.0469 229.6484,184.0469 Q230.2734,184.0469 230.8672,183.7813 Q231.4609,183.5 232.0859,182.9219 L232.0859,185.6406 Z " fill="#000000"/><text fill="#000000" font-family="sans-serif" font-size="14" lengthAdjust="spacing" textLength="82.8311" x="249.6172" y="184.8467">HojaCalculo</text><line style="stroke:#181818;stroke-width:0.5;" x1="178" x2="371.5654" y1="196" y2="196"/><rect fill="transparent" height="6" style="stroke:#C82930;stroke-width:1;" width="6" x="185" y="206.6484"/><text fill="#000000" font-family="sans-serif" font-size="14" lengthAdjust="spacing" textLength="97.0088" x="197" y="212.9951">matriz: Matriz</text><rect fill="transparent" height="6" style="stroke:#C82930;stroke-width:1;" width="6" x="185" y="222.9453"/><text fill="#000000" font-family="sans-serif" font-size="14" lengthAdjust="spacing" textLength="169.5654" x="197" y="229.292">interfaz: InterfazUsuario</text><line style="stroke:#181818;stroke-width:0.5;" x1="178" x2="371.5654" y1="236.5938" y2="236.5938"/><ellipse cx="188" cy="250.2422" fill="#84BE84" rx="3" ry="3" style="stroke:#038048;stroke-width:1;"/><text fill="#000000" font-family="sans-serif" font-size="14" lengthAdjust="spacing" textLength="68.4346" x="197" y="253.5889">ejecutar()</text></g><!--class InterfazUsuario--><g id="elem_InterfazUsuario"><rect fill="#F1F1F1" height="48" id="InterfazUsuario" rx="2.5" ry="2.5" style="stroke:#181818;stroke-width:0.5;" width="138.9209" x="257.5" y="337.5"/><ellipse cx="272.5" cy="353.5" fill="#ADD1B2" rx="11" ry="11" style="stroke:#181818;stroke-width:1;"/><path d="M275.4688,359.1406 Q274.8906,359.4375 274.25,359.5781 Q273.6094,359.7344 272.9063,359.7344 Q270.4063,359.7344 269.0781,358.0938 Q267.7656,356.4375 267.7656,353.3125 Q267.7656,350.1875 269.0781,348.5313 Q270.4063,346.875 272.9063,346.875 Q273.6094,346.875 274.25,347.0313 Q274.9063,347.1875 275.4688,347.4844 L275.4688,350.2031 Q274.8438,349.625 274.25,349.3594 Q273.6563,349.0781 273.0313,349.0781 Q271.6875,349.0781 271,350.1563 Q270.3125,351.2188 270.3125,353.3125 Q270.3125,355.4063 271,356.4844 Q271.6875,357.5469 273.0313,357.5469 Q273.6563,357.5469 274.25,357.2813 Q274.8438,357 275.4688,356.4219 L275.4688,359.1406 Z " fill="#000000"/><text fill="#000000" font-family="sans-serif" font-size="14" lengthAdjust="spacing" textLength="106.9209" x="286.5" y="358.3467">InterfazUsuario</text><line style="stroke:#181818;stroke-width:0.5;" x1="258.5" x2="395.4209" y1="369.5" y2="369.5"/><line style="stroke:#181818;stroke-width:0.5;" x1="258.5" x2="395.4209" y1="377.5" y2="377.5"/></g><!--reverse link ComponenteHoja to Celda--><g id="link_ComponenteHoja_Celda"><path codeLine="24" d="M100.4311,121.0635 C77.7511,187.4535 48.74,294.8 62,402 C64.46,421.86 69.37,443.33 74.35,461.82 " fill="transparent" id="ComponenteHoja-backto-Celda" style="stroke:#181818;stroke-width:1;"/><polygon fill="transparent" points="106.25,104.03,94.7532,119.1238,106.1089,123.0031,106.25,104.03" style="stroke:#181818;stroke-width:1;"/></g><!--reverse link ComponenteHoja to Matriz--><g id="link_ComponenteHoja_Matriz"><path codeLine="25" d="M129.8109,121.9296 C135.1009,181.5496 142.5,264.8 147.46,320.6 " fill="transparent" id="ComponenteHoja-backto-Matriz" style="stroke:#181818;stroke-width:1;"/><polygon fill="transparent" points="128.22,104,123.8343,122.4598,135.7874,121.3993,128.22,104" style="stroke:#181818;stroke-width:1;"/></g><!--reverse link ComponenteHoja to HojaCalculo--><g id="link_ComponenteHoja_HojaCalculo"><path codeLine="26" d="M183.0966,117.1669 C201.5466,136.1169 210.17,144.96 228.62,163.89 " fill="transparent" id="ComponenteHoja-backto-HojaCalculo" style="stroke:#181818;stroke-width:1;"/><polygon fill="transparent" points="170.54,104.27,178.7977,121.3525,187.3956,112.9814,170.54,104.27" style="stroke:#181818;stroke-width:1;"/></g><!--link Matriz to Celda--><g id="link_Matriz_Celda"><path codeLine="27" d="M134.22,402.28 C126.48,420.65 117.22,442.6 109.1,461.84 " fill="transparent" id="Matriz-Celda" style="stroke:#181818;stroke-width:1;"/></g><!--link HojaCalculo to Matriz--><g id="link_HojaCalculo_Matriz"><path codeLine="28" d="M234.74,261.23 C218.48,280.51 199.93,302.5 184.42,320.88 " fill="transparent" id="HojaCalculo-Matriz" style="stroke:#181818;stroke-width:1;"/></g><!--link HojaCalculo to InterfazUsuario--><g id="link_HojaCalculo_InterfazUsuario"><path codeLine="29" d="M291.88,261.23 C300.9,286.71 311.59,316.93 318.79,337.28 " fill="transparent" id="HojaCalculo-InterfazUsuario" style="stroke:#181818;stroke-width:1;"/></g><!--SRC=[RP2n3e8m48RtFaL7ZU45Y8iXCPgW3iI9C1orc9B2cROi8kzkeQr1j4FJVErz_rsXr4O1CvH9q9ecs3omvQtX1wo1zeJQrMi3Hh21xe_fBlj6oIMzdiw1WhSDr6uTIF44jLgJWH2lv_8Mh1536zEA6yOqCqgqTuShL0sORxXfS1Ih99JCfIUm3vyVwnYXOnUL5tdX15ZQGgucEYyUnqn0iavYC3IJB_PUnuJDLHLOUlIdg-v02NHsNdFMcJ3huXEthoXoxVozyJ7_hcRD4JybjTZBvgrFs9j- -ABbDm00]--></g></svg>