<svg xmlns="http://www.w3.org/2000/svg" xmlns:xlink="http://www.w3.org/1999/xlink" contentStyleType="text/css" data-diagram-type="CLASS" height="423px" preserveAspectRatio="none" style="width:724px;height:423px;background:#FFFFFF;" version="1.1" viewBox="0 0 724 423" width="724px" zoomAndPan="magnify"><defs/><g><!--cluster HojaCalculo--><g id="cluster_HojaCalculo"><path d="M8.5,6 L102.2842,6 A3.75,3.75 0 0 1 104.7842,8.5 L111.7842,28.2969 L714.5,28.2969 A2.5,2.5 0 0 1 717,30.7969 L717,413.5 A2.5,2.5 0 0 1 714.5,416 L8.5,416 A2.5,2.5 0 0 1 6,413.5 L6,8.5 A2.5,2.5 0 0 1 8.5,6 " fill="transparent" style="stroke:#000000;stroke-width:1.5;"/><line style="stroke:#000000;stroke-width:1.5;" x1="6" x2="111.7842" y1="28.2969" y2="28.2969"/><text fill="#000000" font-family="sans-serif" font-size="14" font-weight="bold" lengthAdjust="spacing" textLength="92.7842" x="10" y="20.9951">HojaCalculo</text></g><!--class HojaCalculo--><g id="elem_HojaCalculo"><rect codeLine="7" fill="#F1F1F1" height="32" id="HojaCalculo" rx="2.5" ry="2.5" style="stroke:#181818;stroke-width:0.5;" width="114.8311" x="427.5" y="41"/><ellipse cx="442.5" cy="57" fill="#ADD1B2" rx="11" ry="11" style="stroke:#181818;stroke-width:1;"/><path d="M445.4688,62.6406 Q444.8906,62.9375 444.25,63.0781 Q443.6094,63.2344 442.9063,63.2344 Q440.4063,63.2344 439.0781,61.5938 Q437.7656,59.9375 437.7656,56.8125 Q437.7656,53.6875 439.0781,52.0313 Q440.4063,50.375 442.9063,50.375 Q443.6094,50.375 444.25,50.5313 Q444.9063,50.6875 445.4688,50.9844 L445.4688,53.7031 Q444.8438,53.125 444.25,52.8594 Q443.6563,52.5781 443.0313,52.5781 Q441.6875,52.5781 441,53.6563 Q440.3125,54.7188 440.3125,56.8125 Q440.3125,58.9063 441,59.9844 Q441.6875,61.0469 443.0313,61.0469 Q443.6563,61.0469 444.25,60.7813 Q444.8438,60.5 445.4688,59.9219 L445.4688,62.6406 Z " fill="#000000"/><text fill="#000000" font-family="sans-serif" font-size="14" lengthAdjust="spacing" textLength="82.8311" x="456.5" y="61.8467">HojaCalculo</text></g><!--class Matriz--><g id="elem_Matriz"><rect codeLine="8" fill="#F1F1F1" height="32" id="Matriz" rx="2.5" ry="2.5" style="stroke:#181818;stroke-width:0.5;" width="75.1416" x="93.5" y="259"/><ellipse cx="108.5" cy="275" fill="#ADD1B2" rx="11" ry="11" style="stroke:#181818;stroke-width:1;"/><path d="M111.4688,280.6406 Q110.8906,280.9375 110.25,281.0781 Q109.6094,281.2344 108.9063,281.2344 Q106.4063,281.2344 105.0781,279.5938 Q103.7656,277.9375 103.7656,274.8125 Q103.7656,271.6875 105.0781,270.0313 Q106.4063,268.375 108.9063,268.375 Q109.6094,268.375 110.25,268.5313 Q110.9063,268.6875 111.4688,268.9844 L111.4688,271.7031 Q110.8438,271.125 110.25,270.8594 Q109.6563,270.5781 109.0313,270.5781 Q107.6875,270.5781 107,271.6563 Q106.3125,272.7188 106.3125,274.8125 Q106.3125,276.9063 107,277.9844 Q107.6875,279.0469 109.0313,279.0469 Q109.6563,279.0469 110.25,278.7813 Q110.8438,278.5 111.4688,277.9219 L111.4688,280.6406 Z " fill="#000000"/><text fill="#000000" font-family="sans-serif" font-size="14" lengthAdjust="spacing" textLength="43.1416" x="122.5" y="279.8467">Matriz</text></g><!--class Celda--><g id="elem_Celda"><rect codeLine="9" fill="#F1F1F1" height="32" id="Celda" rx="2.5" ry="2.5" style="stroke:#181818;stroke-width:0.5;" width="71.7441" x="95" y="368"/><ellipse cx="110" cy="384" fill="#ADD1B2" rx="11" ry="11" style="stroke:#181818;stroke-width:1;"/><path d="M112.9688,389.6406 Q112.3906,389.9375 111.75,390.0781 Q111.1094,390.2344 110.4063,390.2344 Q107.9063,390.2344 106.5781,388.5938 Q105.2656,386.9375 105.2656,383.8125 Q105.2656,380.6875 106.5781,379.0313 Q107.9063,377.375 110.4063,377.375 Q111.1094,377.375 111.75,377.5313 Q112.4063,377.6875 112.9688,377.9844 L112.9688,380.7031 Q112.3438,380.125 111.75,379.8594 Q111.1563,379.5781 110.5313,379.5781 Q109.1875,379.5781 108.5,380.6563 Q107.8125,381.7188 107.8125,383.8125 Q107.8125,385.9063 108.5,386.9844 Q109.1875,388.0469 110.5313,388.0469 Q111.1563,388.0469 111.75,387.7813 Q112.3438,387.5 112.9688,386.9219 L112.9688,389.6406 Z " fill="#000000"/><text fill="#000000" font-family="sans-serif" font-size="14" lengthAdjust="spacing" textLength="39.7441" x="124" y="388.8467">Celda</text></g><!--class Posicion--><g id="elem_Posicion"><rect codeLine="10" fill="#F1F1F1" height="32" id="Posicion" rx="2.5" ry="2.5" style="stroke:#181818;stroke-width:0.5;" width="89.2168" x="392.5" y="259"/><ellipse cx="407.5" cy="275" fill="#ADD1B2" rx="11" ry="11" style="stroke:#181818;stroke-width:1;"/><path d="M410.4688,280.6406 Q409.8906,280.9375 409.25,281.0781 Q408.6094,281.2344 407.9063,281.2344 Q405.4063,281.2344 404.0781,279.5938 Q402.7656,277.9375 402.7656,274.8125 Q402.7656,271.6875 404.0781,270.0313 Q405.4063,268.375 407.9063,268.375 Q408.6094,268.375 409.25,268.5313 Q409.9063,268.6875 410.4688,268.9844 L410.4688,271.7031 Q409.8438,271.125 409.25,270.8594 Q408.6563,270.5781 408.0313,270.5781 Q406.6875,270.5781 406,271.6563 Q405.3125,272.7188 405.3125,274.8125 Q405.3125,276.9063 406,277.9844 Q406.6875,279.0469 408.0313,279.0469 Q408.6563,279.0469 409.25,278.7813 Q409.8438,278.5 410.4688,277.9219 L410.4688,280.6406 Z " fill="#000000"/><text fill="#000000" font-family="sans-serif" font-size="14" lengthAdjust="spacing" textLength="57.2168" x="421.5" y="279.8467">Posicion</text></g><!--class InterfazUsuario--><g id="elem_InterfazUsuario"><rect codeLine="11" fill="#F1F1F1" height="32" id="InterfazUsuario" rx="2.5" ry="2.5" style="stroke:#181818;stroke-width:0.5;" width="138.9209" x="261.5" y="150"/><ellipse cx="276.5" cy="166" fill="#ADD1B2" rx="11" ry="11" style="stroke:#181818;stroke-width:1;"/><path d="M279.4688,171.6406 Q278.8906,171.9375 278.25,172.0781 Q277.6094,172.2344 276.9063,172.2344 Q274.4063,172.2344 273.0781,170.5938 Q271.7656,168.9375 271.7656,165.8125 Q271.7656,162.6875 273.0781,161.0313 Q274.4063,159.375 276.9063,159.375 Q277.6094,159.375 278.25,159.5313 Q278.9063,159.6875 279.4688,159.9844 L279.4688,162.7031 Q278.8438,162.125 278.25,161.8594 Q277.6563,161.5781 277.0313,161.5781 Q275.6875,161.5781 275,162.6563 Q274.3125,163.7188 274.3125,165.8125 Q274.3125,167.9063 275,168.9844 Q275.6875,170.0469 277.0313,170.0469 Q277.6563,170.0469 278.25,169.7813 Q278.8438,169.5 279.4688,168.9219 L279.4688,171.6406 Z " fill="#000000"/><text fill="#000000" font-family="sans-serif" font-size="14" lengthAdjust="spacing" textLength="106.9209" x="290.5" y="170.8467">InterfazUsuario</text></g><!--class Teclado--><g id="elem_Teclado"><rect codeLine="12" fill="#F1F1F1" height="32" id="Teclado" rx="2.5" ry="2.5" style="stroke:#181818;stroke-width:0.5;" width="86.7832" x="236.5" y="259"/><ellipse cx="251.5" cy="275" fill="#ADD1B2" rx="11" ry="11" style="stroke:#181818;stroke-width:1;"/><path d="M254.4688,280.6406 Q253.8906,280.9375 253.25,281.0781 Q252.6094,281.2344 251.9063,281.2344 Q249.4063,281.2344 248.0781,279.5938 Q246.7656,277.9375 246.7656,274.8125 Q246.7656,271.6875 248.0781,270.0313 Q249.4063,268.375 251.9063,268.375 Q252.6094,268.375 253.25,268.5313 Q253.9063,268.6875 254.4688,268.9844 L254.4688,271.7031 Q253.8438,271.125 253.25,270.8594 Q252.6563,270.5781 252.0313,270.5781 Q250.6875,270.5781 250,271.6563 Q249.3125,272.7188 249.3125,274.8125 Q249.3125,276.9063 250,277.9844 Q250.6875,279.0469 252.0313,279.0469 Q252.6563,279.0469 253.25,278.7813 Q253.8438,278.5 254.4688,277.9219 L254.4688,280.6406 Z " fill="#000000"/><text fill="#000000" font-family="sans-serif" font-size="14" lengthAdjust="spacing" textLength="54.7832" x="265.5" y="279.8467">Teclado</text></g><!--class ComponenteHoja--><g id="elem_ComponenteHoja"><rect codeLine="13" fill="#F1F1F1" height="32" id="ComponenteHoja" rx="2.5" ry="2.5" style="stroke:#181818;stroke-width:0.5;" width="153.4541" x="148.5" y="41"/><ellipse cx="163.5" cy="57" fill="#A9DCDF" rx="11" ry="11" style="stroke:#181818;stroke-width:1;"/><path d="M163.6094,52.3438 L162.4531,57.4219 L164.7813,57.4219 L163.6094,52.3438 Z M162.125,50.1094 L165.1094,50.1094 L168.4688,62.5 L166.0156,62.5 L165.25,59.4375 L161.9688,59.4375 L161.2188,62.5 L158.7813,62.5 L162.125,50.1094 Z " fill="#000000"/><text fill="#000000" font-family="sans-serif" font-size="14" font-style="italic" lengthAdjust="spacing" textLength="121.4541" x="177.5" y="61.8467">ComponenteHoja</text></g><!--reverse link ComponenteHoja to Matriz--><g id="link_ComponenteHoja_Matriz"><path codeLine="16" d="M167.2519,80.2837 C134.7219,94.5837 108.08,112.33 88,150 C68.28,187 99.12,234.87 118.03,258.87 " fill="transparent" id="ComponenteHoja-backto-Matriz" style="stroke:#181818;stroke-width:1;"/><polygon fill="transparent" points="183.73,73.04,164.8373,74.791,169.6664,85.7764,183.73,73.04" style="stroke:#181818;stroke-width:1;"/></g><!--reverse link ComponenteHoja to Celda--><g id="link_ComponenteHoja_Celda"><path codeLine="17" d="M143.7213,78.8828 C123.7813,85.7128 119.7,89.55 103,103 C83.7,118.54 79.94,126.21 73,150 C65.9,174.33 56.19,222.92 76,291 C84.63,320.66 105.19,350.54 118.59,367.88 " fill="transparent" id="ComponenteHoja-backto-Celda" style="stroke:#181818;stroke-width:1;"/><polygon fill="transparent" points="160.75,73.05,141.777,73.2066,145.6655,84.5591,160.75,73.05" style="stroke:#181818;stroke-width:1;"/></g><!--reverse link ComponenteHoja to Posicion--><g id="link_ComponenteHoja_Posicion"><path codeLine="18" d="M307.0267,78.4597 C349.6267,91.7197 386.03,109.98 418,150 C443.42,181.82 441.84,233.32 439.14,258.77 " fill="transparent" id="ComponenteHoja-backto-Posicion" style="stroke:#181818;stroke-width:1;"/><polygon fill="transparent" points="289.84,73.11,305.2434,84.1885,308.8099,72.7308,289.84,73.11" style="stroke:#181818;stroke-width:1;"/></g><!--reverse link ComponenteHoja to Teclado--><g id="link_ComponenteHoja_Teclado"><path codeLine="19" d="M227.8727,91.0349 C230.0327,114.6049 233.66,143.51 244,182 C251.48,209.83 264.64,240.75 272.81,258.73 " fill="transparent" id="ComponenteHoja-backto-Teclado" style="stroke:#181818;stroke-width:1;"/><polygon fill="transparent" points="226.23,73.11,221.8977,91.5824,233.8476,90.4873,226.23,73.11" style="stroke:#181818;stroke-width:1;"/></g><!--reverse link ComponenteHoja to InterfazUsuario--><g id="link_ComponenteHoja_InterfazUsuario"><path codeLine="20" d="M252.8581,86.1175 C273.0081,106.4575 295.7,129.37 315.84,149.7 " fill="transparent" id="ComponenteHoja-backto-InterfazUsuario" style="stroke:#181818;stroke-width:1;"/><polygon fill="transparent" points="240.19,73.33,248.5956,90.3402,257.1206,81.8948,240.19,73.33" style="stroke:#181818;stroke-width:1;"/></g><!--reverse link HojaCalculo to Matriz--><g id="link_HojaCalculo_Matriz"><path codeLine="23" d="M415.5587,62.9518 C349.7487,70.0218 254.24,89.43 186,150 C152.89,179.39 138.75,232.49 133.57,258.62 " fill="transparent" id="HojaCalculo-backto-Matriz" style="stroke:#181818;stroke-width:1;"/><polygon fill="#181818" points="427.49,61.67,421.0971,58.3338,415.5587,62.9518,421.9516,66.288,427.49,61.67" style="stroke:#181818;stroke-width:1;"/><text fill="#000000" font-family="sans-serif" font-size="13" lengthAdjust="spacing" textLength="56.2847" x="187" y="170.5669">contiene</text></g><!--reverse link HojaCalculo to InterfazUsuario--><g id="link_HojaCalculo_InterfazUsuario"><path codeLine="24" d="M453.4064,79.9488 C424.0564,100.3488 381.92,129.62 352.63,149.97 " fill="transparent" id="HojaCalculo-backto-InterfazUsuario" style="stroke:#181818;stroke-width:1;"/><polygon fill="#181818" points="463.26,73.1,456.0503,73.2399,453.4064,79.9488,460.6161,79.809,463.26,73.1" style="stroke:#181818;stroke-width:1;"/><text fill="#000000" font-family="sans-serif" font-size="13" lengthAdjust="spacing" textLength="38.9619" x="418" y="116.0669">utiliza</text></g><!--reverse link HojaCalculo to Posicion--><g id="link_HojaCalculo_Posicion"><path codeLine="25" d="M530.7518,78.3269 C575.1218,99.7969 632.03,136.38 605,182 C578.56,226.63 521.96,251.03 481.77,263.28 " fill="transparent" id="HojaCalculo-backto-Posicion" style="stroke:#181818;stroke-width:1;"/><polygon fill="#181818" points="519.95,73.1,523.6086,79.314,530.7518,78.3269,527.0932,72.1128,519.95,73.1" style="stroke:#181818;stroke-width:1;"/><text fill="#000000" font-family="sans-serif" font-size="13" lengthAdjust="spacing" textLength="32.9443" x="612" y="170.5669">tiene</text></g><!--link HojaCalculo to Teclado--><g id="link_HojaCalculo_Teclado"><path codeLine="26" d="M484.15,73.24 C481.46,106.46 470.38,185.87 425,229 C397.58,255.06 361.2778,265.1782 329.4478,269.7982 " fill="transparent" id="HojaCalculo-to-Teclado" style="stroke:#181818;stroke-width:1;"/><polygon fill="#181818" points="323.51,270.66,332.9912,273.3258,328.4581,269.9418,331.8421,265.4087,323.51,270.66" style="stroke:#181818;stroke-width:1;"/><text fill="#000000" font-family="sans-serif" font-size="13" lengthAdjust="spacing" textLength="87.0137" x="470" y="170.5669">obtiene de UI</text></g><!--reverse link Matriz to Celda--><g id="link_Matriz_Celda"><path codeLine="28" d="M131,303.33 C131,323.67 131,347.37 131,367.7 " fill="transparent" id="Matriz-backto-Celda" style="stroke:#181818;stroke-width:1;"/><polygon fill="#181818" points="131,291.33,127,297.33,131,303.33,135,297.33,131,291.33" style="stroke:#181818;stroke-width:1;"/><text fill="#000000" font-family="sans-serif" font-size="13" lengthAdjust="spacing" textLength="92.4727" x="132" y="334.0669">compuesta de</text></g><!--reverse link InterfazUsuario to Teclado--><g id="link_InterfazUsuario_Teclado"><path codeLine="29" d="M306.5226,190.9772 C298.8126,199.1072 298.38,200.97 293,212 C285.72,226.92 282.5,245.81 281.09,258.8 " fill="transparent" id="InterfazUsuario-backto-Teclado" style="stroke:#181818;stroke-width:1;"/><polygon fill="#181818" points="314.78,182.27,307.7489,183.8711,306.5226,190.9772,313.5537,189.3761,314.78,182.27" style="stroke:#181818;stroke-width:1;"/><text fill="#000000" font-family="sans-serif" font-size="13" lengthAdjust="spacing" textLength="22.9785" x="294" y="225.0669">usa</text></g><!--link InterfazUsuario to Posicion--><g id="link_InterfazUsuario_Posicion"><path codeLine="30" d="M338.57,182.22 C345.7,195.56 357.32,214.97 371,229 C382.33,240.62 391.9903,247.8588 404.6703,255.7188 " fill="transparent" id="InterfazUsuario-to-Posicion" style="stroke:#181818;stroke-width:1;"/><polygon fill="#181818" points="409.77,258.88,404.2279,250.7384,405.5202,256.2457,400.013,257.538,409.77,258.88" style="stroke:#181818;stroke-width:1;"/><text fill="#000000" font-family="sans-serif" font-size="13" lengthAdjust="spacing" textLength="55.0278" x="372" y="225.0669">consulta</text></g><!--link InterfazUsuario to Matriz--><g id="link_InterfazUsuario_Matriz"><path codeLine="31" d="M287.55,182.04 C266.63,189.92 241.48,200.35 220,212 C194.51,225.82 172.2362,241.7924 154.7462,255.2424 " fill="transparent" id="InterfazUsuario-to-Matriz" style="stroke:#181818;stroke-width:1;"/><polygon fill="#181818" points="149.99,258.9,159.5628,256.5844,153.9535,255.852,154.686,250.2428,149.99,258.9" style="stroke:#181818;stroke-width:1;"/><text fill="#000000" font-family="sans-serif" font-size="13" lengthAdjust="spacing" textLength="56.2974" x="221" y="225.0669">visualiza</text></g><!--link Teclado to Celda--><g id="link_Teclado_Celda"><path codeLine="33" d="M271.23,291.25 C262.69,304.99 248.6,324.97 232,338 C212.67,353.17 193.0557,362.3611 172.6357,369.8211 " fill="transparent" id="Teclado-to-Celda" style="stroke:#181818;stroke-width:1;"/><polygon fill="#181818" points="167,371.88,176.8261,372.5488,171.6964,370.1643,174.081,365.0346,167,371.88" style="stroke:#181818;stroke-width:1;"/><text fill="#000000" font-family="sans-serif" font-size="13" lengthAdjust="spacing" textLength="55.7832" x="249" y="334.0669">modifica</text></g><!--SRC=[RP91JiGm34NtFeLtI2Fr0WYnwMPcWSI2EO2RUXX3cbH9YZG3d8eZS36SqfHXsbMJ_E_lPwj7QHdHM8eHZldCNPzEs77NS8W0FPbNUcRS-XUgoPh1-dU06worWYFsGPoHdYn764CkZTFB0wKWv-bIisrfEZ_wA4QycwuxbpWSwBoF0mKfrK-itzO3DJ45CWcd7D_rth6Mv8QPQCk1bONWluHt7rLL6DQaNw8rPUPR4mlNcdOzITvNjkMuxo-79wJe5JM7w-8kLeQR6HPlqNYNX1ql75SDr3eaiNAcXRFCe9PbL5NTbpbKzyteGFq9zZk0YM9JLZJoTFt0CP5wu9fXyxUKp1DfuSZjBdXqkZZOjEwRT_0c-ZgE1YKzwmMfywqSn11y_W00]--></g></svg>