<svg xmlns="http://www.w3.org/2000/svg" xmlns:xlink="http://www.w3.org/1999/xlink" contentStyleType="text/css" data-diagram-type="STATE" height="1136px" preserveAspectRatio="none" style="width:333px;height:1136px;background:#FFFFFF;" version="1.1" viewBox="0 0 333 1136" width="333px" zoomAndPan="magnify"><defs/><g><path d="M19.5,214 L307.353,214 A12.5,12.5 0 0 1 319.853,226.5 L319.853,240.2969 L7,240.2969 L7,226.5 A12.5,12.5 0 0 1 19.5,214 " fill="#F1F1F1" style="stroke:#F1F1F1;stroke-width:1;"/><rect fill="none" height="316.2969" rx="12.5" ry="12.5" style="stroke:#181818;stroke-width:0.5;" width="312.853" x="7" y="214"/><line style="stroke:#181818;stroke-width:0.5;" x1="7" x2="319.853" y1="240.2969" y2="240.2969"/><text fill="#000000" font-family="sans-serif" font-size="14" lengthAdjust="spacing" textLength="138.4756" x="94.1887" y="231.9951">GuardandoCambios</text><ellipse cx="165.25" cy="261.2969" fill="#222222" rx="10" ry="10" style="stroke:#222222;stroke-width:1;"/><g id="GuardandoCambios.VerificandoCambios"><rect fill="#F1F1F1" height="50" rx="12.5" ry="12.5" style="stroke:#181818;stroke-width:0.5;" width="159.8838" x="85.3" y="308.2969"/><line style="stroke:#181818;stroke-width:0.5;" x1="85.3" x2="245.1838" y1="334.5937" y2="334.5937"/><text fill="#000000" font-family="sans-serif" font-size="14" lengthAdjust="spacing" textLength="139.8838" x="95.3" y="326.292">VerificandoCambios</text></g><g id="GuardandoCambios.GuardandoArchivo"><rect fill="#F1F1F1" height="50" rx="12.5" ry="12.5" style="stroke:#181818;stroke-width:0.5;" width="150.4912" x="19" y="411.2969"/><line style="stroke:#181818;stroke-width:0.5;" x1="19" x2="169.4912" y1="437.5937" y2="437.5937"/><text fill="#000000" font-family="sans-serif" font-size="14" lengthAdjust="spacing" textLength="130.4912" x="29" y="429.292">GuardandoArchivo</text></g><g id="GuardandoCambios.SinGuardar"><rect fill="#F1F1F1" height="50" rx="12.5" ry="12.5" style="stroke:#181818;stroke-width:0.5;" width="98.9277" x="190.78" y="411.2969"/><line style="stroke:#181818;stroke-width:0.5;" x1="190.78" x2="289.7077" y1="437.5937" y2="437.5937"/><text fill="#000000" font-family="sans-serif" font-size="14" lengthAdjust="spacing" textLength="78.9277" x="200.78" y="429.292">SinGuardar</text></g><ellipse cx="165.25" cy="509.2969" fill="none" rx="11" ry="11" style="stroke:#222222;stroke-width:1;"/><ellipse cx="165.25" cy="509.2969" fill="#222222" rx="6" ry="6" style="stroke:#222222;stroke-width:1;"/><!--link *start*GuardandoCambios to VerificandoCambios--><g class="link" data-entity-1="*start*GuardandoCambios" data-entity-2="VerificandoCambios" data-source-line="10" data-uid="lnk13" id="link_*start*GuardandoCambios_VerificandoCambios"><path d="M165.25,271.7369 C165.25,280.9969 165.25,289.4869 165.25,301.9769 " fill="none" id="*start*GuardandoCambios-to-VerificandoCambios" style="stroke:#181818;stroke-width:1;"/><polygon fill="#181818" points="165.25,307.9769,169.25,298.9769,165.25,302.9769,161.25,298.9769,165.25,307.9769" style="stroke:#181818;stroke-width:1;"/></g><!--link VerificandoCambios to GuardandoArchivo--><g class="link" data-entity-1="VerificandoCambios" data-entity-2="GuardandoArchivo" data-source-line="11" data-uid="lnk15" id="link_VerificandoCambios_GuardandoArchivo"><path d="M104.55,358.5469 C98.08,363.4869 92.37,369.3569 88.25,376.2969 C82.15,386.5669 81.4814,393.7958 84.0314,405.0258 " fill="none" id="VerificandoCambios-to-GuardandoArchivo" style="stroke:#181818;stroke-width:1;"/><polygon fill="#181818" points="85.36,410.8769,87.2678,401.2146,84.2528,406.001,79.4664,402.986,85.36,410.8769" style="stroke:#181818;stroke-width:1;"/><text fill="#000000" font-family="sans-serif" font-size="13" lengthAdjust="spacing" textLength="132.9644" x="89.25" y="389.3638">Cambios detectados</text></g><!--link VerificandoCambios to SinGuardar--><g class="link" data-entity-1="VerificandoCambios" data-entity-2="SinGuardar" data-source-line="12" data-uid="lnk17" id="link_VerificandoCambios_SinGuardar"><path d="M205.38,358.6569 C211.68,363.8569 217.63,369.7769 222.25,376.2969 C229.48,386.5269 232.5171,393.8814 235.1371,405.2014 " fill="none" id="VerificandoCambios-to-SinGuardar" style="stroke:#181818;stroke-width:1;"/><polygon fill="#181818" points="236.49,411.0469,238.3576,401.3767,235.3626,406.1756,230.5636,403.1806,236.49,411.0469" style="stroke:#181818;stroke-width:1;"/><text fill="#000000" font-family="sans-serif" font-size="13" lengthAdjust="spacing" textLength="78.603" x="231.25" y="389.3638">Sin cambios</text></g><!--link GuardandoArchivo to *end*GuardandoCambios--><g class="link" data-entity-1="GuardandoArchivo" data-entity-2="*end*GuardandoCambios" data-source-line="13" data-uid="lnk19" id="link_GuardandoArchivo_*end*GuardandoCambios"><path d="M118.68,461.7269 C132.48,475.5269 144.5197,487.5619 153.7097,496.7619 " fill="none" id="GuardandoArchivo-to-*end*GuardandoCambios" style="stroke:#181818;stroke-width:1;"/><polygon fill="#181818" points="157.95,501.0069,154.4195,491.8126,154.4164,497.4694,148.7595,497.4663,157.95,501.0069" style="stroke:#181818;stroke-width:1;"/></g><!--link SinGuardar to *end*GuardandoCambios--><g class="link" data-entity-1="SinGuardar" data-entity-2="*end*GuardandoCambios" data-source-line="14" data-uid="lnk20" id="link_SinGuardar_*end*GuardandoCambios"><path d="M214.43,461.7269 C199.86,475.5269 187.0155,487.6802 177.3055,496.8802 " fill="none" id="SinGuardar-to-*end*GuardandoCambios" style="stroke:#181818;stroke-width:1;"/><polygon fill="#181818" points="172.95,501.0069,182.2344,497.7205,176.5796,497.5679,176.7321,491.9131,172.95,501.0069" style="stroke:#181818;stroke-width:1;"/></g><path d="M93.64,607.29 L233.2064,607.29 A12.5,12.5 0 0 1 245.7064,619.79 L245.7064,633.5869 L81.14,633.5869 L81.14,619.79 A12.5,12.5 0 0 1 93.64,607.29 " fill="#F1F1F1" style="stroke:#F1F1F1;stroke-width:1;"/><rect fill="none" height="297.2969" rx="12.5" ry="12.5" style="stroke:#181818;stroke-width:0.5;" width="164.5664" x="81.14" y="607.29"/><line style="stroke:#181818;stroke-width:0.5;" x1="81.14" x2="245.7064" y1="633.5869" y2="633.5869"/><text fill="#000000" font-family="sans-serif" font-size="14" lengthAdjust="spacing" textLength="133.6699" x="96.5882" y="625.2851">LiberandoRecursos</text><ellipse cx="164.92" cy="654.5869" fill="#222222" rx="10" ry="10" style="stroke:#222222;stroke-width:1;"/><g id="LiberandoRecursos.LiberandoMatriz"><rect fill="#F1F1F1" height="50" rx="12.5" ry="12.5" style="stroke:#181818;stroke-width:0.5;" width="132.9912" x="98.43" y="700.5869"/><line style="stroke:#181818;stroke-width:0.5;" x1="98.43" x2="231.4212" y1="726.8838" y2="726.8838"/><text fill="#000000" font-family="sans-serif" font-size="14" lengthAdjust="spacing" textLength="112.9912" x="108.43" y="718.582">LiberandoMatriz</text></g><g id="LiberandoRecursos.LiberandoInterfaz"><rect fill="#F1F1F1" height="50" rx="12.5" ry="12.5" style="stroke:#181818;stroke-width:0.5;" width="143.5664" x="93.14" y="786.5869"/><line style="stroke:#181818;stroke-width:0.5;" x1="93.14" x2="236.7064" y1="812.8838" y2="812.8838"/><text fill="#000000" font-family="sans-serif" font-size="14" lengthAdjust="spacing" textLength="123.5664" x="103.14" y="804.582">LiberandoInterfaz</text></g><ellipse cx="164.92" cy="883.5869" fill="none" rx="11" ry="11" style="stroke:#222222;stroke-width:1;"/><ellipse cx="164.92" cy="883.5869" fill="#222222" rx="6" ry="6" style="stroke:#222222;stroke-width:1;"/><!--link *start*LiberandoRecursos to LiberandoMatriz--><g class="link" data-entity-1="*start*LiberandoRecursos" data-entity-2="LiberandoMatriz" data-source-line="18" data-uid="lnk23" id="link_*start*LiberandoRecursos_LiberandoMatriz"><path d="M164.92,664.8969 C164.92,673.9369 164.92,682.0769 164.92,694.3169 " fill="none" id="*start*LiberandoRecursos-to-LiberandoMatriz" style="stroke:#181818;stroke-width:1;"/><polygon fill="#181818" points="164.92,700.3169,168.92,691.3169,164.92,695.3169,160.92,691.3169,164.92,700.3169" style="stroke:#181818;stroke-width:1;"/></g><!--link LiberandoMatriz to LiberandoInterfaz--><g class="link" data-entity-1="LiberandoMatriz" data-entity-2="LiberandoInterfaz" data-source-line="19" data-uid="lnk25" id="link_LiberandoMatriz_LiberandoInterfaz"><path d="M164.92,750.8869 C164.92,762.0269 164.92,769.2069 164.92,780.3469 " fill="none" id="LiberandoMatriz-to-LiberandoInterfaz" style="stroke:#181818;stroke-width:1;"/><polygon fill="#181818" points="164.92,786.3469,168.92,777.3469,164.92,781.3469,160.92,777.3469,164.92,786.3469" style="stroke:#181818;stroke-width:1;"/></g><!--link LiberandoInterfaz to *end*LiberandoRecursos--><g class="link" data-entity-1="LiberandoInterfaz" data-entity-2="*end*LiberandoRecursos" data-source-line="20" data-uid="lnk27" id="link_LiberandoInterfaz_*end*LiberandoRecursos"><path d="M164.92,837.0669 C164.92,849.0569 164.92,856.8569 164.92,866.0869 " fill="none" id="LiberandoInterfaz-to-*end*LiberandoRecursos" style="stroke:#181818;stroke-width:1;"/><polygon fill="#181818" points="164.92,872.0869,168.92,863.0869,164.92,867.0869,160.92,863.0869,164.92,872.0869" style="stroke:#181818;stroke-width:1;"/></g><ellipse cx="163.43" cy="16" fill="#222222" rx="10" ry="10" style="stroke:#222222;stroke-width:1;"/><g id="Activo"><rect fill="#F1F1F1" height="50" rx="12.5" ry="12.5" style="stroke:#181818;stroke-width:0.5;" width="63.5039" x="131.67" y="87"/><line style="stroke:#181818;stroke-width:0.5;" x1="131.67" x2="195.1739" y1="113.2969" y2="113.2969"/><text fill="#000000" font-family="sans-serif" font-size="14" lengthAdjust="spacing" textLength="43.5039" x="141.67" y="104.9951">Activo</text></g><g id="CerrandoPrograma"><rect fill="#F1F1F1" height="50" rx="12.5" ry="12.5" style="stroke:#181818;stroke-width:0.5;" width="153.0068" x="86.92" y="981.59"/><line style="stroke:#181818;stroke-width:0.5;" x1="86.92" x2="239.9268" y1="1007.8869" y2="1007.8869"/><text fill="#000000" font-family="sans-serif" font-size="14" lengthAdjust="spacing" textLength="133.0068" x="96.92" y="999.5851">CerrandoPrograma</text></g><ellipse cx="163.43" cy="1119.59" fill="none" rx="11" ry="11" style="stroke:#222222;stroke-width:1;"/><ellipse cx="163.43" cy="1119.59" fill="#222222" rx="6" ry="6" style="stroke:#222222;stroke-width:1;"/><!--link *start* to Activo--><g class="link" data-entity-1="*start*" data-entity-2="Activo" data-source-line="1" data-uid="lnk4" id="link_*start*_Activo"><path d="M163.43,26.35 C163.43,40.28 163.43,60.95 163.43,80.64 " fill="none" id="*start*-to-Activo" style="stroke:#181818;stroke-width:1;"/><polygon fill="#181818" points="163.43,86.64,167.43,77.64,163.43,81.64,159.43,77.64,163.43,86.64" style="stroke:#181818;stroke-width:1;"/></g><!--link Activo to GuardandoCambios--><g class="link" data-entity-1="Activo" data-entity-2="GuardandoCambios" data-source-line="3" data-uid="lnk5" id="link_Activo_GuardandoCambios"><path d="M163.43,137.28 C163.43,156.05 163.43,177.79 163.43,207.67 " fill="none" id="Activo-to-GuardandoCambios" style="stroke:#181818;stroke-width:1;"/><polygon fill="#181818" points="163.43,213.67,167.43,204.67,163.43,208.67,159.43,204.67,163.43,213.67" style="stroke:#181818;stroke-width:1;"/><text fill="#000000" font-family="sans-serif" font-size="13" lengthAdjust="spacing" textLength="129.3018" x="164.43" y="180.0669">Usuario inicia cierre</text></g><!--link GuardandoCambios to LiberandoRecursos--><g class="link" data-entity-1="GuardandoCambios" data-entity-2="LiberandoRecursos" data-source-line="4" data-uid="lnk6" id="link_GuardandoCambios_LiberandoRecursos"><path d="M163.43,530.64 C163.43,555.91 163.43,575.98 163.43,601.01 " fill="none" id="GuardandoCambios-to-LiberandoRecursos" style="stroke:#181818;stroke-width:1;"/><polygon fill="#181818" points="163.43,607.01,167.43,598.01,163.43,602.01,159.43,598.01,163.43,607.01" style="stroke:#181818;stroke-width:1;"/><text fill="#000000" font-family="sans-serif" font-size="13" lengthAdjust="spacing" textLength="110.9316" x="164.43" y="573.3569">Datos guardados</text></g><!--link LiberandoRecursos to CerrandoPrograma--><g class="link" data-entity-1="LiberandoRecursos" data-entity-2="CerrandoPrograma" data-source-line="6" data-uid="lnk8" id="link_LiberandoRecursos_CerrandoPrograma"><path d="M163.43,904.81 C163.43,934.64 163.43,956.59 163.43,975.45 " fill="none" id="LiberandoRecursos-to-CerrandoPrograma" style="stroke:#181818;stroke-width:1;"/><polygon fill="#181818" points="163.43,981.45,167.43,972.45,163.43,976.45,159.43,972.45,163.43,981.45" style="stroke:#181818;stroke-width:1;"/><text fill="#000000" font-family="sans-serif" font-size="13" lengthAdjust="spacing" textLength="123.1572" x="164.43" y="947.6569">Recursos liberados</text></g><!--link CerrandoPrograma to *end*--><g class="link" data-entity-1="CerrandoPrograma" data-entity-2="*end*" data-source-line="7" data-uid="lnk10" id="link_CerrandoPrograma_*end*"><path d="M163.43,1031.95 C163.43,1055.82 163.43,1085.05 163.43,1102.3 " fill="none" id="CerrandoPrograma-to-*end*" style="stroke:#181818;stroke-width:1;"/><polygon fill="#181818" points="163.43,1108.3,167.43,1099.3,163.43,1103.3,159.43,1099.3,163.43,1108.3" style="stroke:#181818;stroke-width:1;"/><text fill="#000000" font-family="sans-serif" font-size="13" lengthAdjust="spacing" textLength="130.0762" x="164.43" y="1074.6569">Programa finalizado</text></g><!--SRC=[VL31IWCn4Btx5NCkz0To44eB8YY8HIzB3zFiR1re4vYaFLJyTvEfctKJCOSb-zwRzoQlM-nWkRo7bOryyNUGZdvk_qezd55wTBrVusdFFXXu2mbY3-pOCe9b4Y4TgxLgyCHxaWo-aZrBo0uRZ8aygBhtOSfjjEgmJW4PV15_43oXWK8VTM3qg8KwtIrs1WeoiCCZNzF8b1eYHcgN_rGod-wdfdSI7jZ-4XL9IytRMudzI9KQ6DcU8jbOLl_7OylkPYCcty5MqNN6-EeYc0ncr5VTGDj-Mq7HF6CKlXQ-mkVQHnT91ln3FJBpnRu1]--></g></svg>