<svg xmlns="http://www.w3.org/2000/svg" xmlns:xlink="http://www.w3.org/1999/xlink" contentStyleType="text/css" data-diagram-type="CLASS" height="441px" preserveAspectRatio="none" style="width:546px;height:441px;background:#FFFFFF;" version="1.1" viewBox="0 0 546 441" width="546px" zoomAndPan="magnify"><defs/><g><!--class HojaCalculo--><g id="elem_HojaCalculo"><rect codeLine="1" fill="#F1F1F1" height="145.7813" id="HojaCalculo" rx="2.5" ry="2.5" style="stroke:#181818;stroke-width:0.5;" width="237.2305" x="183" y="7"/><ellipse cx="255.9497" cy="23" fill="#ADD1B2" rx="11" ry="11" style="stroke:#181818;stroke-width:1;"/><path d="M258.9185,28.6406 Q258.3403,28.9375 257.6997,29.0781 Q257.0591,29.2344 256.356,29.2344 Q253.856,29.2344 252.5278,27.5938 Q251.2153,25.9375 251.2153,22.8125 Q251.2153,19.6875 252.5278,18.0313 Q253.856,16.375 256.356,16.375 Q257.0591,16.375 257.6997,16.5313 Q258.356,16.6875 258.9185,16.9844 L258.9185,19.7031 Q258.2935,19.125 257.6997,18.8594 Q257.106,18.5781 256.481,18.5781 Q255.1372,18.5781 254.4497,19.6563 Q253.7622,20.7188 253.7622,22.8125 Q253.7622,24.9063 254.4497,25.9844 Q255.1372,27.0469 256.481,27.0469 Q257.106,27.0469 257.6997,26.7813 Q258.2935,26.5 258.9185,25.9219 L258.9185,28.6406 Z " fill="#000000"/><text fill="#000000" font-family="sans-serif" font-size="14" lengthAdjust="spacing" textLength="82.8311" x="276.4497" y="27.8467">HojaCalculo</text><line style="stroke:#181818;stroke-width:0.5;" x1="184" x2="419.2305" y1="39" y2="39"/><ellipse cx="194" cy="52.6484" fill="transparent" rx="3" ry="3" style="stroke:#038048;stroke-width:1;"/><text fill="#000000" font-family="sans-serif" font-size="14" lengthAdjust="spacing" textLength="56" x="203" y="55.9951">filas: int</text><ellipse cx="194" cy="68.9453" fill="transparent" rx="3" ry="3" style="stroke:#038048;stroke-width:1;"/><text fill="#000000" font-family="sans-serif" font-size="14" lengthAdjust="spacing" textLength="94.8281" x="203" y="72.292">columnas: int</text><ellipse cx="194" cy="85.2422" fill="transparent" rx="3" ry="3" style="stroke:#038048;stroke-width:1;"/><text fill="#000000" font-family="sans-serif" font-size="14" lengthAdjust="spacing" textLength="115.7188" x="203" y="88.5889">celdas: Celda[][]</text><line style="stroke:#181818;stroke-width:0.5;" x1="184" x2="419.2305" y1="95.8906" y2="95.8906"/><ellipse cx="194" cy="109.5391" fill="#84BE84" rx="3" ry="3" style="stroke:#038048;stroke-width:1;"/><text fill="#000000" font-family="sans-serif" font-size="14" lengthAdjust="spacing" textLength="211.2305" x="203" y="112.8857">navegar(direccion: char): void</text><ellipse cx="194" cy="125.8359" fill="#84BE84" rx="3" ry="3" style="stroke:#038048;stroke-width:1;"/><text fill="#000000" font-family="sans-serif" font-size="14" lengthAdjust="spacing" textLength="90.9316" x="203" y="129.1826">editar(): void</text><ellipse cx="194" cy="142.1328" fill="#84BE84" rx="3" ry="3" style="stroke:#038048;stroke-width:1;"/><text fill="#000000" font-family="sans-serif" font-size="14" lengthAdjust="spacing" textLength="110.3115" x="203" y="145.4795">terminar(): void</text></g><!--class Celda--><g id="elem_Celda"><rect codeLine="10" fill="#F1F1F1" height="96.8906" id="Celda" rx="2.5" ry="2.5" style="stroke:#181818;stroke-width:0.5;" width="305.1113" x="7" y="213"/><ellipse cx="135.4336" cy="229" fill="#ADD1B2" rx="11" ry="11" style="stroke:#181818;stroke-width:1;"/><path d="M138.4023,234.6406 Q137.8242,234.9375 137.1836,235.0781 Q136.543,235.2344 135.8398,235.2344 Q133.3398,235.2344 132.0117,233.5938 Q130.6992,231.9375 130.6992,228.8125 Q130.6992,225.6875 132.0117,224.0313 Q133.3398,222.375 135.8398,222.375 Q136.543,222.375 137.1836,222.5313 Q137.8398,222.6875 138.4023,222.9844 L138.4023,225.7031 Q137.7773,225.125 137.1836,224.8594 Q136.5898,224.5781 135.9648,224.5781 Q134.6211,224.5781 133.9336,225.6563 Q133.2461,226.7188 133.2461,228.8125 Q133.2461,230.9063 133.9336,231.9844 Q134.6211,233.0469 135.9648,233.0469 Q136.5898,233.0469 137.1836,232.7813 Q137.7773,232.5 138.4023,231.9219 L138.4023,234.6406 Z " fill="#000000"/><text fill="#000000" font-family="sans-serif" font-size="14" lengthAdjust="spacing" textLength="39.7441" x="155.9336" y="233.8467">Celda</text><line style="stroke:#181818;stroke-width:0.5;" x1="8" x2="311.1113" y1="245" y2="245"/><ellipse cx="18" cy="258.6484" fill="transparent" rx="3" ry="3" style="stroke:#038048;stroke-width:1;"/><text fill="#000000" font-family="sans-serif" font-size="14" lengthAdjust="spacing" textLength="118.8086" x="27" y="261.9951">contenido: string</text><line style="stroke:#181818;stroke-width:0.5;" x1="8" x2="311.1113" y1="269.2969" y2="269.2969"/><ellipse cx="18" cy="282.9453" fill="#84BE84" rx="3" ry="3" style="stroke:#038048;stroke-width:1;"/><text fill="#000000" font-family="sans-serif" font-size="14" lengthAdjust="spacing" textLength="186.6074" x="27" y="286.292">obtenerContenido(): string</text><ellipse cx="18" cy="299.2422" fill="#84BE84" rx="3" ry="3" style="stroke:#038048;stroke-width:1;"/><text fill="#000000" font-family="sans-serif" font-size="14" lengthAdjust="spacing" textLength="279.1113" x="27" y="302.5889">establecerContenido(valor: string): void</text></g><!--class InterfazUsuario--><g id="elem_InterfazUsuario"><rect codeLine="16" fill="#F1F1F1" height="80.5938" id="InterfazUsuario" rx="2.5" ry="2.5" style="stroke:#181818;stroke-width:0.5;" width="191.6211" x="347.5" y="221"/><ellipse cx="386.2151" cy="237" fill="#ADD1B2" rx="11" ry="11" style="stroke:#181818;stroke-width:1;"/><path d="M389.1838,242.6406 Q388.6057,242.9375 387.9651,243.0781 Q387.3245,243.2344 386.6213,243.2344 Q384.1213,243.2344 382.7932,241.5938 Q381.4807,239.9375 381.4807,236.8125 Q381.4807,233.6875 382.7932,232.0313 Q384.1213,230.375 386.6213,230.375 Q387.3245,230.375 387.9651,230.5313 Q388.6213,230.6875 389.1838,230.9844 L389.1838,233.7031 Q388.5588,233.125 387.9651,232.8594 Q387.3713,232.5781 386.7463,232.5781 Q385.4026,232.5781 384.7151,233.6563 Q384.0276,234.7188 384.0276,236.8125 Q384.0276,238.9063 384.7151,239.9844 Q385.4026,241.0469 386.7463,241.0469 Q387.3713,241.0469 387.9651,240.7813 Q388.5588,240.5 389.1838,239.9219 L389.1838,242.6406 Z " fill="#000000"/><text fill="#000000" font-family="sans-serif" font-size="14" lengthAdjust="spacing" textLength="106.9209" x="405.4851" y="241.8467">InterfazUsuario</text><line style="stroke:#181818;stroke-width:0.5;" x1="348.5" x2="538.1211" y1="253" y2="253"/><line style="stroke:#181818;stroke-width:0.5;" x1="348.5" x2="538.1211" y1="261" y2="261"/><ellipse cx="358.5" cy="274.6484" fill="#84BE84" rx="3" ry="3" style="stroke:#038048;stroke-width:1;"/><text fill="#000000" font-family="sans-serif" font-size="14" lengthAdjust="spacing" textLength="104.7949" x="367.5" y="277.9951">mostrar(): void</text><ellipse cx="358.5" cy="290.9453" fill="#84BE84" rx="3" ry="3" style="stroke:#038048;stroke-width:1;"/><text fill="#000000" font-family="sans-serif" font-size="14" lengthAdjust="spacing" textLength="165.6211" x="367.5" y="294.292">capturarEntrada(): char</text></g><!--class Teclado--><g id="elem_Teclado"><rect codeLine="21" fill="#F1F1F1" height="64.2969" id="Teclado" rx="2.5" ry="2.5" style="stroke:#181818;stroke-width:0.5;" width="173.9434" x="356.5" y="370"/><ellipse cx="411.8301" cy="386" fill="#ADD1B2" rx="11" ry="11" style="stroke:#181818;stroke-width:1;"/><path d="M414.7988,391.6406 Q414.2207,391.9375 413.5801,392.0781 Q412.9395,392.2344 412.2363,392.2344 Q409.7363,392.2344 408.4082,390.5938 Q407.0957,388.9375 407.0957,385.8125 Q407.0957,382.6875 408.4082,381.0313 Q409.7363,379.375 412.2363,379.375 Q412.9395,379.375 413.5801,379.5313 Q414.2363,379.6875 414.7988,379.9844 L414.7988,382.7031 Q414.1738,382.125 413.5801,381.8594 Q412.9863,381.5781 412.3613,381.5781 Q411.0176,381.5781 410.3301,382.6563 Q409.6426,383.7188 409.6426,385.8125 Q409.6426,387.9063 410.3301,388.9844 Q411.0176,390.0469 412.3613,390.0469 Q412.9863,390.0469 413.5801,389.7813 Q414.1738,389.5 414.7988,388.9219 L414.7988,391.6406 Z " fill="#000000"/><text fill="#000000" font-family="sans-serif" font-size="14" lengthAdjust="spacing" textLength="54.7832" x="432.3301" y="390.8467">Teclado</text><line style="stroke:#181818;stroke-width:0.5;" x1="357.5" x2="529.4434" y1="402" y2="402"/><line style="stroke:#181818;stroke-width:0.5;" x1="357.5" x2="529.4434" y1="410" y2="410"/><ellipse cx="367.5" cy="423.6484" fill="#84BE84" rx="3" ry="3" style="stroke:#038048;stroke-width:1;"/><text fill="#000000" font-family="sans-serif" font-size="14" lengthAdjust="spacing" textLength="147.9434" x="376.5" y="426.9951">capturarTecla(): char</text></g><!--reverse link HojaCalculo to Celda--><g id="link_HojaCalculo_Celda"><path codeLine="25" d="M236.9141,162.6405 C221.0341,182.7105 211.64,194.59 197.19,212.86 " fill="transparent" id="HojaCalculo-backto-Celda" style="stroke:#181818;stroke-width:1;"/><polygon fill="#181818" points="244.36,153.23,237.5002,155.4533,236.9141,162.6405,243.7739,160.4172,244.36,153.23" style="stroke:#181818;stroke-width:1;"/><text fill="#000000" font-family="sans-serif" font-size="13" lengthAdjust="spacing" textLength="8.271" x="230.7255" y="172.7554">1</text><text fill="#000000" font-family="sans-serif" font-size="13" lengthAdjust="spacing" textLength="9.7246" x="192.9005" y="202.0492">N</text></g><!--reverse link HojaCalculo to InterfazUsuario--><g id="link_HojaCalculo_InterfazUsuario"><path codeLine="26" d="M366.086,162.6405 C384.356,185.7305 396.45,201.02 412.16,220.89 " fill="transparent" id="HojaCalculo-backto-InterfazUsuario" style="stroke:#181818;stroke-width:1;"/><polygon fill="#181818" points="358.64,153.23,359.2262,160.4172,366.086,162.6405,365.4998,155.4532,358.64,153.23" style="stroke:#181818;stroke-width:1;"/><text fill="#000000" font-family="sans-serif" font-size="13" lengthAdjust="spacing" textLength="8.271" x="355.5407" y="172.7554">1</text><text fill="#000000" font-family="sans-serif" font-size="13" lengthAdjust="spacing" textLength="8.271" x="398.3606" y="210.0333">1</text></g><!--reverse link InterfazUsuario to Teclado--><g id="link_InterfazUsuario_Teclado"><path codeLine="27" d="M443.5,314.19 C443.5,335.61 443.5,349.68 443.5,369.66 " fill="transparent" id="InterfazUsuario-backto-Teclado" style="stroke:#181818;stroke-width:1;"/><polygon fill="#181818" points="443.5,302.19,439.5,308.19,443.5,314.19,447.5,308.19,443.5,302.19" style="stroke:#181818;stroke-width:1;"/><text fill="#000000" font-family="sans-serif" font-size="13" lengthAdjust="spacing" textLength="8.271" x="434.9373" y="321.6773">1</text><text fill="#000000" font-family="sans-serif" font-size="13" lengthAdjust="spacing" textLength="8.271" x="434.7448" y="358.8672">1</text></g><!--SRC=[RP0_JmCn3CNt-nJMJVnH1zPRJqYmC9Mfwk0wRZ7AnIZ9tT2AxquI6X4E9Yll_VJoRB8O0ZpfEuveQROAbmxW7ewIZ074nV8ajVFaVYbiJNwFUUxsktrH7IvyGdzZn3EHg1k0tj3V3h2ec8AmaPY8Lehi9t6D-DbrL8gLz6ibKXVPYT41GlJYJaNLGnBPZzNC6OtD8UB1ChN4WbPzfVvy-PmmVyJpQvZHIxt7f0bVrIRyY7CI7rso36OlB_iJjUKqJOseU55RkBr-_z33tMO3_Kl_lVp_RfghdjswTyjUYtm1]--></g></svg>