<svg xmlns="http://www.w3.org/2000/svg" xmlns:xlink="http://www.w3.org/1999/xlink" contentStyleType="text/css" data-diagram-type="CLASS" height="474px" preserveAspectRatio="none" style="width:686px;height:474px;background:#FFFFFF;" version="1.1" viewBox="0 0 686 474" width="686px" zoomAndPan="magnify"><title>Hoja de C&#225;lculo</title><defs/><g><text fill="#000000" font-family="sans-serif" font-size="14" font-weight="bold" lengthAdjust="spacing" textLength="122.0488" x="275.0574" y="22.9951">Hoja de C&#225;lculo</text><!--class ComponenteHoja--><g id="elem_ComponenteHoja"><rect codeLine="4" fill="#F1F1F1" height="48" id="ComponenteHoja" rx="2.5" ry="2.5" style="stroke:#181818;stroke-width:0.5;" width="153.4541" x="127.65" y="44.2969"/><ellipse cx="142.65" cy="60.2969" fill="#A9DCDF" rx="11" ry="11" style="stroke:#181818;stroke-width:1;"/><path d="M142.7594,55.6406 L141.6031,60.7188 L143.9313,60.7188 L142.7594,55.6406 Z M141.275,53.4063 L144.2594,53.4063 L147.6188,65.7969 L145.1656,65.7969 L144.4,62.7344 L141.1188,62.7344 L140.3688,65.7969 L137.9313,65.7969 L141.275,53.4063 Z " fill="#000000"/><text fill="#000000" font-family="sans-serif" font-size="14" font-style="italic" lengthAdjust="spacing" textLength="121.4541" x="156.65" y="65.1436">ComponenteHoja</text><line style="stroke:#181818;stroke-width:0.5;" x1="128.65" x2="280.1041" y1="76.2969" y2="76.2969"/><line style="stroke:#181818;stroke-width:0.5;" x1="128.65" x2="280.1041" y1="84.2969" y2="84.2969"/></g><!--class HojaCalculo--><g id="elem_HojaCalculo"><rect codeLine="7" fill="#F1F1F1" height="48" id="HojaCalculo" rx="2.5" ry="2.5" style="stroke:#181818;stroke-width:0.5;" width="114.8311" x="448.65" y="44.2969"/><ellipse cx="463.65" cy="60.2969" fill="#ADD1B2" rx="11" ry="11" style="stroke:#181818;stroke-width:1;"/><path d="M466.6188,65.9375 Q466.0406,66.2344 465.4,66.375 Q464.7594,66.5313 464.0563,66.5313 Q461.5563,66.5313 460.2281,64.8906 Q458.9156,63.2344 458.9156,60.1094 Q458.9156,56.9844 460.2281,55.3281 Q461.5563,53.6719 464.0563,53.6719 Q464.7594,53.6719 465.4,53.8281 Q466.0563,53.9844 466.6188,54.2813 L466.6188,57 Q465.9938,56.4219 465.4,56.1563 Q464.8063,55.875 464.1813,55.875 Q462.8375,55.875 462.15,56.9531 Q461.4625,58.0156 461.4625,60.1094 Q461.4625,62.2031 462.15,63.2813 Q462.8375,64.3438 464.1813,64.3438 Q464.8063,64.3438 465.4,64.0781 Q465.9938,63.7969 466.6188,63.2188 L466.6188,65.9375 Z " fill="#000000"/><text fill="#000000" font-family="sans-serif" font-size="14" lengthAdjust="spacing" textLength="82.8311" x="477.65" y="65.1436">HojaCalculo</text><line style="stroke:#181818;stroke-width:0.5;" x1="449.65" x2="562.4811" y1="76.2969" y2="76.2969"/><line style="stroke:#181818;stroke-width:0.5;" x1="449.65" x2="562.4811" y1="84.2969" y2="84.2969"/></g><!--class Matriz--><g id="elem_Matriz"><rect codeLine="8" fill="#F1F1F1" height="48" id="Matriz" rx="2.5" ry="2.5" style="stroke:#181818;stroke-width:0.5;" width="75.1416" x="42.65" y="294.2969"/><ellipse cx="57.65" cy="310.2969" fill="#ADD1B2" rx="11" ry="11" style="stroke:#181818;stroke-width:1;"/><path d="M60.6188,315.9375 Q60.0406,316.2344 59.4,316.375 Q58.7594,316.5313 58.0563,316.5313 Q55.5563,316.5313 54.2281,314.8906 Q52.9156,313.2344 52.9156,310.1094 Q52.9156,306.9844 54.2281,305.3281 Q55.5563,303.6719 58.0563,303.6719 Q58.7594,303.6719 59.4,303.8281 Q60.0563,303.9844 60.6188,304.2813 L60.6188,307 Q59.9938,306.4219 59.4,306.1563 Q58.8063,305.875 58.1813,305.875 Q56.8375,305.875 56.15,306.9531 Q55.4625,308.0156 55.4625,310.1094 Q55.4625,312.2031 56.15,313.2813 Q56.8375,314.3438 58.1813,314.3438 Q58.8063,314.3438 59.4,314.0781 Q59.9938,313.7969 60.6188,313.2188 L60.6188,315.9375 Z " fill="#000000"/><text fill="#000000" font-family="sans-serif" font-size="14" lengthAdjust="spacing" textLength="43.1416" x="71.65" y="315.1436">Matriz</text><line style="stroke:#181818;stroke-width:0.5;" x1="43.65" x2="116.7916" y1="326.2969" y2="326.2969"/><line style="stroke:#181818;stroke-width:0.5;" x1="43.65" x2="116.7916" y1="334.2969" y2="334.2969"/></g><!--class Celda--><g id="elem_Celda"><rect codeLine="9" fill="#F1F1F1" height="48" id="Celda" rx="2.5" ry="2.5" style="stroke:#181818;stroke-width:0.5;" width="71.7441" x="44.15" y="419.2969"/><ellipse cx="59.15" cy="435.2969" fill="#ADD1B2" rx="11" ry="11" style="stroke:#181818;stroke-width:1;"/><path d="M62.1188,440.9375 Q61.5406,441.2344 60.9,441.375 Q60.2594,441.5313 59.5563,441.5313 Q57.0563,441.5313 55.7281,439.8906 Q54.4156,438.2344 54.4156,435.1094 Q54.4156,431.9844 55.7281,430.3281 Q57.0563,428.6719 59.5563,428.6719 Q60.2594,428.6719 60.9,428.8281 Q61.5563,428.9844 62.1188,429.2813 L62.1188,432 Q61.4938,431.4219 60.9,431.1563 Q60.3063,430.875 59.6813,430.875 Q58.3375,430.875 57.65,431.9531 Q56.9625,433.0156 56.9625,435.1094 Q56.9625,437.2031 57.65,438.2813 Q58.3375,439.3438 59.6813,439.3438 Q60.3063,439.3438 60.9,439.0781 Q61.4938,438.7969 62.1188,438.2188 L62.1188,440.9375 Z " fill="#000000"/><text fill="#000000" font-family="sans-serif" font-size="14" lengthAdjust="spacing" textLength="39.7441" x="73.15" y="440.1436">Celda</text><line style="stroke:#181818;stroke-width:0.5;" x1="45.15" x2="114.8941" y1="451.2969" y2="451.2969"/><line style="stroke:#181818;stroke-width:0.5;" x1="45.15" x2="114.8941" y1="459.2969" y2="459.2969"/></g><!--class Posicion--><g id="elem_Posicion"><rect codeLine="10" fill="#F1F1F1" height="48" id="Posicion" rx="2.5" ry="2.5" style="stroke:#181818;stroke-width:0.5;" width="89.2168" x="232.65" y="294.2969"/><ellipse cx="247.65" cy="310.2969" fill="#ADD1B2" rx="11" ry="11" style="stroke:#181818;stroke-width:1;"/><path d="M250.6188,315.9375 Q250.0406,316.2344 249.4,316.375 Q248.7594,316.5313 248.0563,316.5313 Q245.5563,316.5313 244.2281,314.8906 Q242.9156,313.2344 242.9156,310.1094 Q242.9156,306.9844 244.2281,305.3281 Q245.5563,303.6719 248.0563,303.6719 Q248.7594,303.6719 249.4,303.8281 Q250.0563,303.9844 250.6188,304.2813 L250.6188,307 Q249.9938,306.4219 249.4,306.1563 Q248.8063,305.875 248.1813,305.875 Q246.8375,305.875 246.15,306.9531 Q245.4625,308.0156 245.4625,310.1094 Q245.4625,312.2031 246.15,313.2813 Q246.8375,314.3438 248.1813,314.3438 Q248.8063,314.3438 249.4,314.0781 Q249.9938,313.7969 250.6188,313.2188 L250.6188,315.9375 Z " fill="#000000"/><text fill="#000000" font-family="sans-serif" font-size="14" lengthAdjust="spacing" textLength="57.2168" x="261.65" y="315.1436">Posicion</text><line style="stroke:#181818;stroke-width:0.5;" x1="233.65" x2="320.8668" y1="326.2969" y2="326.2969"/><line style="stroke:#181818;stroke-width:0.5;" x1="233.65" x2="320.8668" y1="334.2969" y2="334.2969"/></g><!--class InterfazUsuario--><g id="elem_InterfazUsuario"><rect codeLine="11" fill="#F1F1F1" height="48" id="InterfazUsuario" rx="2.5" ry="2.5" style="stroke:#181818;stroke-width:0.5;" width="138.9209" x="257.65" y="169.2969"/><ellipse cx="272.65" cy="185.2969" fill="#ADD1B2" rx="11" ry="11" style="stroke:#181818;stroke-width:1;"/><path d="M275.6188,190.9375 Q275.0406,191.2344 274.4,191.375 Q273.7594,191.5313 273.0563,191.5313 Q270.5563,191.5313 269.2281,189.8906 Q267.9156,188.2344 267.9156,185.1094 Q267.9156,181.9844 269.2281,180.3281 Q270.5563,178.6719 273.0563,178.6719 Q273.7594,178.6719 274.4,178.8281 Q275.0563,178.9844 275.6188,179.2813 L275.6188,182 Q274.9938,181.4219 274.4,181.1563 Q273.8063,180.875 273.1813,180.875 Q271.8375,180.875 271.15,181.9531 Q270.4625,183.0156 270.4625,185.1094 Q270.4625,187.2031 271.15,188.2813 Q271.8375,189.3438 273.1813,189.3438 Q273.8063,189.3438 274.4,189.0781 Q274.9938,188.7969 275.6188,188.2188 L275.6188,190.9375 Z " fill="#000000"/><text fill="#000000" font-family="sans-serif" font-size="14" lengthAdjust="spacing" textLength="106.9209" x="286.65" y="190.1436">InterfazUsuario</text><line style="stroke:#181818;stroke-width:0.5;" x1="258.65" x2="395.5709" y1="201.2969" y2="201.2969"/><line style="stroke:#181818;stroke-width:0.5;" x1="258.65" x2="395.5709" y1="209.2969" y2="209.2969"/></g><!--class Teclado--><g id="elem_Teclado"><rect codeLine="12" fill="#F1F1F1" height="48" id="Teclado" rx="2.5" ry="2.5" style="stroke:#181818;stroke-width:0.5;" width="86.7832" x="387.65" y="294.2969"/><ellipse cx="402.65" cy="310.2969" fill="#ADD1B2" rx="11" ry="11" style="stroke:#181818;stroke-width:1;"/><path d="M405.6188,315.9375 Q405.0406,316.2344 404.4,316.375 Q403.7594,316.5313 403.0563,316.5313 Q400.5563,316.5313 399.2281,314.8906 Q397.9156,313.2344 397.9156,310.1094 Q397.9156,306.9844 399.2281,305.3281 Q400.5563,303.6719 403.0563,303.6719 Q403.7594,303.6719 404.4,303.8281 Q405.0563,303.9844 405.6188,304.2813 L405.6188,307 Q404.9938,306.4219 404.4,306.1563 Q403.8063,305.875 403.1813,305.875 Q401.8375,305.875 401.15,306.9531 Q400.4625,308.0156 400.4625,310.1094 Q400.4625,312.2031 401.15,313.2813 Q401.8375,314.3438 403.1813,314.3438 Q403.8063,314.3438 404.4,314.0781 Q404.9938,313.7969 405.6188,313.2188 L405.6188,315.9375 Z " fill="#000000"/><text fill="#000000" font-family="sans-serif" font-size="14" lengthAdjust="spacing" textLength="54.7832" x="416.65" y="315.1436">Teclado</text><line style="stroke:#181818;stroke-width:0.5;" x1="388.65" x2="473.4332" y1="326.2969" y2="326.2969"/><line style="stroke:#181818;stroke-width:0.5;" x1="388.65" x2="473.4332" y1="334.2969" y2="334.2969"/></g><!--reverse link ComponenteHoja to Matriz--><g id="link_ComponenteHoja_Matriz"><path codeLine="15" d="M125.5015,100.1519 C91.8715,116.1819 69.62,133.4369 50.15,169.2969 C28.32,209.4969 50.19,263.6569 66.33,294.0669 " fill="transparent" id="ComponenteHoja-backto-Matriz" style="stroke:#181818;stroke-width:1;"/><polygon fill="transparent" points="141.75,92.4069,122.9198,94.7357,128.0831,105.568,141.75,92.4069" style="stroke:#181818;stroke-width:1;"/></g><!--reverse link ComponenteHoja to Celda--><g id="link_ComponenteHoja_Celda"><path codeLine="16" d="M110.7317,95.3046 C89.0917,103.2846 83.39,107.8869 65.15,122.2969 C45.32,137.9669 41.36,145.3969 33.15,169.2969 C8.15,242.0969 6,267.7469 25.15,342.2969 C32.45,370.6969 49.69,399.6869 62.94,419.0869 " fill="transparent" id="ComponenteHoja-backto-Celda" style="stroke:#181818;stroke-width:1;"/><polygon fill="transparent" points="127.62,89.0769,108.6558,89.6752,112.8076,100.9341,127.62,89.0769" style="stroke:#181818;stroke-width:1;"/></g><!--reverse link ComponenteHoja to Posicion--><g id="link_ComponenteHoja_Posicion"><path codeLine="17" d="M212.6279,109.9445 C218.8479,139.2445 226.82,173.6769 240.15,217.2969 C248.32,244.0269 259.72,274.0169 267.71,294.1169 " fill="transparent" id="ComponenteHoja-backto-Posicion" style="stroke:#181818;stroke-width:1;"/><polygon fill="transparent" points="208.89,92.3369,206.7587,111.1905,218.4971,108.6985,208.89,92.3369" style="stroke:#181818;stroke-width:1;"/></g><!--reverse link ComponenteHoja to Teclado--><g id="link_ComponenteHoja_Teclado"><path codeLine="18" d="M298.0674,91.2294 C344.2574,105.4094 382.81,125.4369 414.15,169.2969 C440.69,206.4369 438.71,262.7169 434.93,294.0869 " fill="transparent" id="ComponenteHoja-backto-Teclado" style="stroke:#181818;stroke-width:1;"/><polygon fill="transparent" points="280.86,85.9469,296.3066,96.9652,299.8283,85.4936,280.86,85.9469" style="stroke:#181818;stroke-width:1;"/></g><!--reverse link ComponenteHoja to InterfazUsuario--><g id="link_ComponenteHoja_InterfazUsuario"><path codeLine="19" d="M240.0179,105.1648 C262.0079,127.1548 282.16,147.3069 304.12,169.2669 " fill="transparent" id="ComponenteHoja-backto-InterfazUsuario" style="stroke:#181818;stroke-width:1;"/><polygon fill="transparent" points="227.29,92.4369,235.7753,109.4074,244.2606,100.9222,227.29,92.4369" style="stroke:#181818;stroke-width:1;"/></g><!--reverse link HojaCalculo to Matriz--><g id="link_HojaCalculo_Matriz"><path codeLine="22" d="M436.7602,77.171 C367.6902,87.021 262.94,109.9769 182.15,169.2969 C137.13,202.3569 105.2,261.5469 90.06,294.1569 " fill="transparent" id="HojaCalculo-backto-Matriz" style="stroke:#181818;stroke-width:1;"/><polygon fill="#181818" points="448.64,75.4769,442.1354,72.364,436.7602,77.171,443.2648,80.2839,448.64,75.4769" style="stroke:#181818;stroke-width:1;"/><text fill="#000000" font-family="sans-serif" font-size="13" lengthAdjust="spacing" textLength="56.2847" x="183.15" y="197.8638">contiene</text></g><!--reverse link HojaCalculo to InterfazUsuario--><g id="link_HojaCalculo_InterfazUsuario"><path codeLine="23" d="M462.5901,99.2331 C430.5901,121.2231 392.62,147.3069 360.67,169.2669 " fill="transparent" id="HojaCalculo-backto-InterfazUsuario" style="stroke:#181818;stroke-width:1;"/><polygon fill="#181818" points="472.48,92.4369,465.2696,92.5383,462.5901,99.2331,469.8004,99.1316,472.48,92.4369" style="stroke:#181818;stroke-width:1;"/><text fill="#000000" font-family="sans-serif" font-size="13" lengthAdjust="spacing" textLength="38.9619" x="428.15" y="135.3638">utiliza</text></g><!--reverse link HojaCalculo to Posicion--><g id="link_HojaCalculo_Posicion"><path codeLine="24" d="M495.6123,103.9362 C482.5723,144.3162 454.16,216.3269 399.15,264.2969 C376.96,283.6469 346.61,296.8669 321.74,305.2669 " fill="transparent" id="HojaCalculo-backto-Posicion" style="stroke:#181818;stroke-width:1;"/><polygon fill="#181818" points="499.3,92.5169,493.6497,96.9973,495.6123,103.9362,501.2626,99.4558,499.3,92.5169" style="stroke:#181818;stroke-width:1;"/><text fill="#000000" font-family="sans-serif" font-size="13" lengthAdjust="spacing" textLength="32.9443" x="468.15" y="197.8638">tiene</text></g><!--link HojaCalculo to Teclado--><g id="link_HojaCalculo_Teclado"><path codeLine="25" d="M537.1,92.4169 C546.83,100.9369 556.91,111.2269 564.15,122.2969 C587.59,158.1269 600.3,179.5169 580.15,217.2969 C558.09,258.6669 515.9704,283.5599 480.4704,299.0299 " fill="transparent" id="HojaCalculo-to-Teclado" style="stroke:#181818;stroke-width:1;"/><polygon fill="#181818" points="474.97,301.4269,484.8186,301.4984,479.5537,299.4294,481.6227,294.1645,474.97,301.4269" style="stroke:#181818;stroke-width:1;"/><text fill="#000000" font-family="sans-serif" font-size="13" lengthAdjust="spacing" textLength="87.0137" x="591.15" y="197.8638">obtiene de UI</text></g><!--reverse link Matriz to Celda--><g id="link_Matriz_Celda"><path codeLine="27" d="M80.15,354.4369 C80.15,376.4269 80.15,397.3069 80.15,419.2669 " fill="transparent" id="Matriz-backto-Celda" style="stroke:#181818;stroke-width:1;"/><polygon fill="#181818" points="80.15,342.4369,76.15,348.4369,80.15,354.4369,84.15,348.4369,80.15,342.4369" style="stroke:#181818;stroke-width:1;"/><text fill="#000000" font-family="sans-serif" font-size="13" lengthAdjust="spacing" textLength="92.4727" x="81.15" y="385.3638">compuesta de</text></g><!--reverse link InterfazUsuario to Teclado--><g id="link_InterfazUsuario_Teclado"><path codeLine="28" d="M354.4596,226.5989 C373.0596,248.5889 393.11,272.3069 411.68,294.2669 " fill="transparent" id="InterfazUsuario-backto-Teclado" style="stroke:#181818;stroke-width:1;"/><polygon fill="#181818" points="346.71,217.4369,347.5308,224.6011,354.4596,226.5989,353.6388,219.4347,346.71,217.4369" style="stroke:#181818;stroke-width:1;"/><text fill="#000000" font-family="sans-serif" font-size="13" lengthAdjust="spacing" textLength="22.9785" x="386.15" y="260.3638">usa</text></g><!--link InterfazUsuario to Posicion--><g id="link_InterfazUsuario_Posicion"><path codeLine="29" d="M295.96,217.5269 C287.22,225.8469 278.83,235.9969 274.15,247.2969 C268.05,262.0169 267.9861,274.0898 270.3461,288.1398 " fill="transparent" id="InterfazUsuario-to-Posicion" style="stroke:#181818;stroke-width:1;"/><polygon fill="#181818" points="271.34,294.0569,273.7939,284.5186,270.5117,289.126,265.9044,285.8438,271.34,294.0569" style="stroke:#181818;stroke-width:1;"/><text fill="#000000" font-family="sans-serif" font-size="13" lengthAdjust="spacing" textLength="55.0278" x="275.15" y="260.3638">consulta</text></g><!--link InterfazUsuario to Matriz--><g id="link_InterfazUsuario_Matriz"><path codeLine="30" d="M269.43,217.3669 C248.34,226.2169 224.44,236.7369 203.15,247.2969 C173.88,261.8269 146.9804,277.0858 122.9404,291.3458 " fill="transparent" id="InterfazUsuario-to-Matriz" style="stroke:#181818;stroke-width:1;"/><polygon fill="#181818" points="117.78,294.4069,127.5613,293.2556,122.0804,291.856,123.4799,286.375,117.78,294.4069" style="stroke:#181818;stroke-width:1;"/><text fill="#000000" font-family="sans-serif" font-size="13" lengthAdjust="spacing" textLength="56.2974" x="204.15" y="260.3638">visualiza</text></g><!--link Teclado to Celda--><g id="link_Teclado_Celda"><path codeLine="32" d="M387.41,334.6269 C317.3,359.1969 186.7424,404.9426 121.8524,427.6826 " fill="transparent" id="Teclado-to-Celda" style="stroke:#181818;stroke-width:1;"/><polygon fill="#181818" points="116.19,429.6669,126.0064,430.4653,120.9086,428.0133,123.3607,422.9155,116.19,429.6669" style="stroke:#181818;stroke-width:1;"/><text fill="#000000" font-family="sans-serif" font-size="13" lengthAdjust="spacing" textLength="55.7832" x="277.15" y="385.3638">modifica</text></g><!--SRC=[RL91ReGm3Bpd5RvLGk83LTKBFUmUAlNGVO09Hd8L4fI4bOhwcRwXJzYFDGP2jy254C_4CvuaSZG49_U1q11Kjs-Z1-EKUe0NQjcovjkF5SWWQ8E1e4uVXNM87dMSQW4gr_NEaeqadUHq9Tm0lMUhkKT3GSrK8LGugyoLLuoUnsLJaMbm-Nzp8UaxkspFgRrlSRo40Jtdq- -KrcPoV29FIGtLVplmz5MMMUK8cZMFaDN14PYLZx2jLqb4Q649z1Cmk6HLcgTexaA1OZKBZw2TZKoMTeoDGA8EaGsFk6Fc6H9btweid_CS2NVrn93hlfoLMbmKEQB9JzSF5AAy5hNrKFo58du2xXWYT-SdJHS64uzvQmPNJjLfD9Mx2vujTQxXbZN-0W00]--></g></svg>